<svg xmlns="http://www.w3.org/2000/svg" xmlns:v="https://svgstorm.com"
viewBox = "0 0 316 316"
width="316"
height="316">
<g fill="None" fill-opacity="0.0" stroke="#000000" stroke-opacity="0.00" stroke-width="0.3"><path d="
M 0.00 316.00 
L 316.00 316.00
L 316.00 0.00
L 0.00 0.00
L 0.00 316.00
M 254.00 134.00 
C 254.00 134.50 254.00 135.50 254.00 136.00
C 254.00 144.00 254.00 152.00 254.00 160.00
C 254.00 170.85 254.54 182.20 254.00 193.00 C 253.46 203.80 255.85 215.78 253.00 226.00
C 247.36 246.22 217.72 236.72 200.00 238.00 C 182.28 239.28 153.71 238.00 135.00 238.00
C 117.13 238.00 103.27 236.86 85.00 238.00 C 66.73 239.14 62.78 225.60 64.00 209.00 C 65.22 192.40 64.00 174.70 64.00 158.00
C 64.00 152.25 61.79 139.34 65.00 135.00
C 64.76 134.68 65.00 134.00 65.00 134.00
C 65.00 119.48 63.89 105.27 72.75 93.75 C 81.61 82.23 91.57 78.00 106.00 78.00
C 127.75 78.00 152.56 77.44 174.00 78.00 C 195.44 78.56 217.34 74.06 235.69 84.31 C 254.05 94.55 254.00 115.50 254.00 134.00 Z"/>
</g>
<g fill="None" fill-opacity="0.0" stroke="#C3570B" stroke-opacity="1.00" stroke-width="0.3"><path d="
M 65.00 134.00 
C 74.18 138.66 88.42 134.24 99.00 135.00 C 109.58 135.76 124.20 135.98 135.00 135.00
C 134.96 135.00 135.00 134.00 135.00 134.00
C 135.00 111.34 133.74 86.82 109.00 79.00
C 107.66 78.88 106.79 78.17 106.00 78.00
C 91.57 78.00 81.61 82.23 72.75 93.75 C 63.89 105.27 65.00 119.48 65.00 134.00 Z"/>
</g>
<g fill="None" fill-opacity="0.0" stroke="#DA8B38" stroke-opacity="0.96" stroke-width="0.3"><path d="
M 109.00 79.00 
C 140.62 81.71 176.56 78.63 208.00 79.00 C 239.44 79.37 257.91 102.39 252.00 134.00
C 240.67 134.00 229.33 134.00 218.00 134.00
C 218.09 134.35 218.65 134.95 219.00 135.00
C 224.64 135.81 231.50 133.75 237.00 135.00 C 242.50 136.25 249.26 132.87 254.00 134.00
C 254.00 115.50 254.05 94.55 235.69 84.31 C 217.34 74.06 195.44 78.56 174.00 78.00 C 152.56 77.44 127.75 78.00 106.00 78.00
C 106.79 78.17 107.66 78.88 109.00 79.00 Z"/>
</g>
<g fill="None" fill-opacity="0.0" stroke="#E67815" stroke-opacity="1.00" stroke-width="0.3"><path d="
M 135.00 134.00 
C 141.44 133.42 149.76 134.99 156.00 134.00 C 162.24 133.01 170.79 136.54 176.00 133.00
C 181.89 127.28 187.44 122.02 197.00 124.00 C 206.56 125.98 215.11 122.95 218.00 134.00
C 229.33 134.00 240.67 134.00 252.00 134.00
C 257.91 102.39 239.44 79.37 208.00 79.00 C 176.56 78.63 140.62 81.71 109.00 79.00
C 133.74 86.82 135.00 111.34 135.00 134.00 Z"/>
</g>
<g fill="None" fill-opacity="0.0" stroke="#FDAE05" stroke-opacity="1.00" stroke-width="0.3"><path d="
M 176.00 133.00 
C 173.87 135.07 172.90 134.92 169.00 135.00
C 166.39 141.66 165.46 149.41 164.00 156.00
C 165.77 158.03 169.48 156.53 172.00 157.00
C 160.57 159.32 147.18 157.34 135.00 158.00
C 135.00 150.33 135.00 142.67 135.00 135.00
C 124.20 135.98 109.58 135.76 99.00 135.00 C 88.42 134.24 74.18 138.66 65.00 134.00
C 65.00 134.00 64.76 134.68 65.00 135.00
C 67.95 138.99 66.48 152.71 66.00 158.00
C 101.92 157.99 137.25 158.48 173.00 159.00
C 170.56 176.41 179.74 184.42 196.00 185.00 C 212.26 185.58 224.43 177.93 220.00 159.00
C 220.00 158.50 220.00 158.00 220.00 158.00
C 220.00 150.21 220.24 142.49 219.00 135.00
C 218.65 134.95 218.09 134.35 218.00 134.00
C 215.11 122.95 206.56 125.98 197.00 124.00 C 187.44 122.02 181.89 127.28 176.00 133.00
M 198.00 142.00 
C 208.79 143.44 205.95 170.23 194.33 166.67 C 182.70 163.11 186.37 140.45 198.00 142.00 Z"/>
</g>
<g fill="None" fill-opacity="0.0" stroke="#DB8A00" stroke-opacity="1.00" stroke-width="0.3"><path d="
M 135.00 134.00 
C 135.00 134.00 134.96 135.00 135.00 135.00
C 146.06 136.00 157.89 135.22 169.00 135.00
C 172.90 134.92 173.87 135.07 176.00 133.00
C 170.79 136.54 162.24 133.01 156.00 134.00 C 149.76 134.99 141.44 133.42 135.00 134.00 Z"/>
</g>
<g fill="None" fill-opacity="0.0" stroke="#FDCC09" stroke-opacity="1.00" stroke-width="0.3"><path d="
M 219.00 135.00 
C 220.24 142.49 220.00 150.21 220.00 158.00
C 224.96 157.55 232.18 157.61 237.00 158.00 C 241.82 158.39 249.21 156.04 253.00 159.00
C 252.10 152.77 251.76 141.26 254.00 136.00
C 254.00 135.50 254.00 134.50 254.00 134.00
C 249.26 132.87 242.50 136.25 237.00 135.00 C 231.50 133.75 224.64 135.81 219.00 135.00 Z"/>
</g>
<g fill="None" fill-opacity="0.0" stroke="#CCA21C" stroke-opacity="0.85" stroke-width="0.3"><path d="
M 64.00 158.00 
C 64.00 157.96 65.00 158.00 65.00 158.00
C 65.50 158.00 66.00 158.00 66.00 158.00
C 66.48 152.71 67.95 138.99 65.00 135.00
C 61.79 139.34 64.00 152.25 64.00 158.00 Z"/>
</g>
<g fill="None" fill-opacity="0.0" stroke="#FECC06" stroke-opacity="1.00" stroke-width="0.3"><path d="
M 169.00 135.00 
C 157.89 135.22 146.06 136.00 135.00 135.00
C 135.00 142.67 135.00 150.33 135.00 158.00
C 147.18 157.34 160.57 159.32 172.00 157.00
C 169.48 156.53 165.77 158.03 164.00 156.00
C 165.46 149.41 166.39 141.66 169.00 135.00 Z"/>
</g>
<g fill="None" fill-opacity="0.0" stroke="#817002" stroke-opacity="0.46" stroke-width="0.3"><path d="
M 253.00 159.00 
C 253.05 159.35 253.95 159.77 254.00 160.00
C 254.00 152.00 254.00 144.00 254.00 136.00
C 251.76 141.26 252.10 152.77 253.00 159.00 Z"/>
</g>
<g fill="None" fill-opacity="0.0" stroke="#C85D0A" stroke-opacity="1.00" stroke-width="0.3"><path d="
M 198.00 142.00 
C 186.37 140.45 182.70 163.11 194.33 166.67 C 205.95 170.23 208.79 143.44 198.00 142.00 Z"/>
</g>
<g fill="None" fill-opacity="0.0" stroke="#C4570B" stroke-opacity="1.00" stroke-width="0.3"><path d="
M 135.00 238.00 
C 134.96 238.00 135.00 237.00 135.00 237.00
C 135.00 211.00 135.00 185.00 135.00 159.00
C 111.83 158.33 87.34 160.33 65.00 158.00
C 65.00 158.00 64.00 157.96 64.00 158.00
C 64.00 174.70 65.22 192.40 64.00 209.00 C 62.78 225.60 66.73 239.14 85.00 238.00 C 103.27 236.86 117.13 238.00 135.00 238.00 Z"/>
</g>
<g fill="None" fill-opacity="0.0" stroke="#E47715" stroke-opacity="1.00" stroke-width="0.3"><path d="
M 135.00 237.00 
C 153.55 235.32 181.38 239.21 199.00 237.00 C 216.62 234.79 245.00 245.61 252.00 226.00
C 250.00 203.85 253.50 181.20 252.00 159.00
C 241.33 159.00 230.67 159.00 220.00 159.00
C 224.43 177.93 212.26 185.58 196.00 185.00 C 179.74 184.42 170.56 176.41 173.00 159.00
C 137.25 158.48 101.92 157.99 66.00 158.00
C 66.00 158.00 65.50 158.00 65.00 158.00
C 87.34 160.33 111.83 158.33 135.00 159.00
C 135.00 185.00 135.00 211.00 135.00 237.00 Z"/>
</g>
<g fill="None" fill-opacity="0.0" stroke="#CE7C21" stroke-opacity="0.85" stroke-width="0.3"><path d="
M 220.00 159.00 
C 230.67 159.00 241.33 159.00 252.00 159.00
C 253.50 181.20 250.00 203.85 252.00 226.00
C 252.06 225.84 253.00 226.00 253.00 226.00
C 255.85 215.78 253.46 203.80 254.00 193.00 C 254.54 182.20 254.00 170.85 254.00 160.00
C 253.95 159.77 253.05 159.35 253.00 159.00
C 249.21 156.04 241.82 158.39 237.00 158.00 C 232.18 157.61 224.96 157.55 220.00 158.00
C 220.00 158.00 220.00 158.50 220.00 159.00 Z"/>
</g>
<g fill="None" fill-opacity="0.0" stroke="#E1903F" stroke-opacity="0.99" stroke-width="0.3"><path d="
M 135.00 237.00 
C 135.00 237.00 134.96 238.00 135.00 238.00
C 153.71 238.00 182.28 239.28 200.00 238.00 C 217.72 236.72 247.36 246.22 253.00 226.00
C 253.00 226.00 252.06 225.84 252.00 226.00
C 245.00 245.61 216.62 234.79 199.00 237.00 C 181.38 239.21 153.55 235.32 135.00 237.00 Z"/>
</g>
<g fill="#000000" fill-opacity="0.00" stroke="None">
<path d="
M 0.00 316.00 
L 316.00 316.00
L 316.00 0.00
L 0.00 0.00
L 0.00 316.00
M 254.00 134.00 
C 254.00 134.50 254.00 135.50 254.00 136.00
C 254.00 144.00 254.00 152.00 254.00 160.00
C 254.00 170.85 254.54 182.20 254.00 193.00 C 253.46 203.80 255.85 215.78 253.00 226.00
C 247.36 246.22 217.72 236.72 200.00 238.00 C 182.28 239.28 153.71 238.00 135.00 238.00
C 117.13 238.00 103.27 236.86 85.00 238.00 C 66.73 239.14 62.78 225.60 64.00 209.00 C 65.22 192.40 64.00 174.70 64.00 158.00
C 64.00 152.25 61.79 139.34 65.00 135.00
C 64.76 134.68 65.00 134.00 65.00 134.00
C 65.00 119.48 63.89 105.27 72.75 93.75 C 81.61 82.23 91.57 78.00 106.00 78.00
C 127.75 78.00 152.56 77.44 174.00 78.00 C 195.44 78.56 217.34 74.06 235.69 84.31 C 254.05 94.55 254.00 115.50 254.00 134.00 Z"/>
</g>
<g fill="#C3570B" fill-opacity="1.00" stroke="None">
<path d="
M 65.00 134.00 
C 74.18 138.66 88.42 134.24 99.00 135.00 C 109.58 135.76 124.20 135.98 135.00 135.00
C 134.96 135.00 135.00 134.00 135.00 134.00
C 135.00 111.34 133.74 86.82 109.00 79.00
C 107.66 78.88 106.79 78.17 106.00 78.00
C 91.57 78.00 81.61 82.23 72.75 93.75 C 63.89 105.27 65.00 119.48 65.00 134.00 Z"/>
</g>
<g fill="#DA8B38" fill-opacity="0.96" stroke="None">
<path d="
M 109.00 79.00 
C 140.62 81.71 176.56 78.63 208.00 79.00 C 239.44 79.37 257.91 102.39 252.00 134.00
C 240.67 134.00 229.33 134.00 218.00 134.00
C 218.09 134.35 218.65 134.95 219.00 135.00
C 224.64 135.81 231.50 133.75 237.00 135.00 C 242.50 136.25 249.26 132.87 254.00 134.00
C 254.00 115.50 254.05 94.55 235.69 84.31 C 217.34 74.06 195.44 78.56 174.00 78.00 C 152.56 77.44 127.75 78.00 106.00 78.00
C 106.79 78.17 107.66 78.88 109.00 79.00 Z"/>
</g>
<g fill="#E67815" fill-opacity="1.00" stroke="None">
<path d="
M 135.00 134.00 
C 141.44 133.42 149.76 134.99 156.00 134.00 C 162.24 133.01 170.79 136.54 176.00 133.00
C 181.89 127.28 187.44 122.02 197.00 124.00 C 206.56 125.98 215.11 122.95 218.00 134.00
C 229.33 134.00 240.67 134.00 252.00 134.00
C 257.91 102.39 239.44 79.37 208.00 79.00 C 176.56 78.63 140.62 81.71 109.00 79.00
C 133.74 86.82 135.00 111.34 135.00 134.00 Z"/>
</g>
<g fill="#FDAE05" fill-opacity="1.00" stroke="None">
<path d="
M 176.00 133.00 
C 173.87 135.07 172.90 134.92 169.00 135.00
C 166.39 141.66 165.46 149.41 164.00 156.00
C 165.77 158.03 169.48 156.53 172.00 157.00
C 160.57 159.32 147.18 157.34 135.00 158.00
C 135.00 150.33 135.00 142.67 135.00 135.00
C 124.20 135.98 109.58 135.76 99.00 135.00 C 88.42 134.24 74.18 138.66 65.00 134.00
C 65.00 134.00 64.76 134.68 65.00 135.00
C 67.95 138.99 66.48 152.71 66.00 158.00
C 101.92 157.99 137.25 158.48 173.00 159.00
C 170.56 176.41 179.74 184.42 196.00 185.00 C 212.26 185.58 224.43 177.93 220.00 159.00
C 220.00 158.50 220.00 158.00 220.00 158.00
C 220.00 150.21 220.24 142.49 219.00 135.00
C 218.65 134.95 218.09 134.35 218.00 134.00
C 215.11 122.95 206.56 125.98 197.00 124.00 C 187.44 122.02 181.89 127.28 176.00 133.00
M 198.00 142.00 
C 208.79 143.44 205.95 170.23 194.33 166.67 C 182.70 163.11 186.37 140.45 198.00 142.00 Z"/>
</g>
<g fill="#DB8A00" fill-opacity="1.00" stroke="None">
<path d="
M 135.00 134.00 
C 135.00 134.00 134.96 135.00 135.00 135.00
C 146.06 136.00 157.89 135.22 169.00 135.00
C 172.90 134.92 173.87 135.07 176.00 133.00
C 170.79 136.54 162.24 133.01 156.00 134.00 C 149.76 134.99 141.44 133.42 135.00 134.00 Z"/>
</g>
<g fill="#FDCC09" fill-opacity="1.00" stroke="None">
<path d="
M 219.00 135.00 
C 220.24 142.49 220.00 150.21 220.00 158.00
C 224.96 157.55 232.18 157.61 237.00 158.00 C 241.82 158.39 249.21 156.04 253.00 159.00
C 252.10 152.77 251.76 141.26 254.00 136.00
C 254.00 135.50 254.00 134.50 254.00 134.00
C 249.26 132.87 242.50 136.25 237.00 135.00 C 231.50 133.75 224.64 135.81 219.00 135.00 Z"/>
</g>
<g fill="#CCA21C" fill-opacity="0.85" stroke="None">
<path d="
M 64.00 158.00 
C 64.00 157.96 65.00 158.00 65.00 158.00
C 65.50 158.00 66.00 158.00 66.00 158.00
C 66.48 152.71 67.95 138.99 65.00 135.00
C 61.79 139.34 64.00 152.25 64.00 158.00 Z"/>
</g>
<g fill="#FECC06" fill-opacity="1.00" stroke="None">
<path d="
M 169.00 135.00 
C 157.89 135.22 146.06 136.00 135.00 135.00
C 135.00 142.67 135.00 150.33 135.00 158.00
C 147.18 157.34 160.57 159.32 172.00 157.00
C 169.48 156.53 165.77 158.03 164.00 156.00
C 165.46 149.41 166.39 141.66 169.00 135.00 Z"/>
</g>
<g fill="#817002" fill-opacity="0.46" stroke="None">
<path d="
M 253.00 159.00 
C 253.05 159.35 253.95 159.77 254.00 160.00
C 254.00 152.00 254.00 144.00 254.00 136.00
C 251.76 141.26 252.10 152.77 253.00 159.00 Z"/>
</g>
<g fill="#C85D0A" fill-opacity="1.00" stroke="None">
<path d="
M 198.00 142.00 
C 186.37 140.45 182.70 163.11 194.33 166.67 C 205.95 170.23 208.79 143.44 198.00 142.00 Z"/>
</g>
<g fill="#C4570B" fill-opacity="1.00" stroke="None">
<path d="
M 135.00 238.00 
C 134.96 238.00 135.00 237.00 135.00 237.00
C 135.00 211.00 135.00 185.00 135.00 159.00
C 111.83 158.33 87.34 160.33 65.00 158.00
C 65.00 158.00 64.00 157.96 64.00 158.00
C 64.00 174.70 65.22 192.40 64.00 209.00 C 62.78 225.60 66.73 239.14 85.00 238.00 C 103.27 236.86 117.13 238.00 135.00 238.00 Z"/>
</g>
<g fill="#E47715" fill-opacity="1.00" stroke="None">
<path d="
M 135.00 237.00 
C 153.55 235.32 181.38 239.21 199.00 237.00 C 216.62 234.79 245.00 245.61 252.00 226.00
C 250.00 203.85 253.50 181.20 252.00 159.00
C 241.33 159.00 230.67 159.00 220.00 159.00
C 224.43 177.93 212.26 185.58 196.00 185.00 C 179.74 184.42 170.56 176.41 173.00 159.00
C 137.25 158.48 101.92 157.99 66.00 158.00
C 66.00 158.00 65.50 158.00 65.00 158.00
C 87.34 160.33 111.83 158.33 135.00 159.00
C 135.00 185.00 135.00 211.00 135.00 237.00 Z"/>
</g>
<g fill="#CE7C21" fill-opacity="0.85" stroke="None">
<path d="
M 220.00 159.00 
C 230.67 159.00 241.33 159.00 252.00 159.00
C 253.50 181.20 250.00 203.85 252.00 226.00
C 252.06 225.84 253.00 226.00 253.00 226.00
C 255.85 215.78 253.46 203.80 254.00 193.00 C 254.54 182.20 254.00 170.85 254.00 160.00
C 253.95 159.77 253.05 159.35 253.00 159.00
C 249.21 156.04 241.82 158.39 237.00 158.00 C 232.18 157.61 224.96 157.55 220.00 158.00
C 220.00 158.00 220.00 158.50 220.00 159.00 Z"/>
</g>
<g fill="#E1903F" fill-opacity="0.99" stroke="None">
<path d="
M 135.00 237.00 
C 135.00 237.00 134.96 238.00 135.00 238.00
C 153.71 238.00 182.28 239.28 200.00 238.00 C 217.72 236.72 247.36 246.22 253.00 226.00
C 253.00 226.00 252.06 225.84 252.00 226.00
C 245.00 245.61 216.62 234.79 199.00 237.00 C 181.38 239.21 153.55 235.32 135.00 237.00 Z"/>
</g>
</svg>