<svg xmlns="http://www.w3.org/2000/svg" xmlns:v="https://svgstorm.com"
viewBox = "0 0 316 316"
width="316"
height="316">
<g fill="None" fill-opacity="0.0" stroke="#000000" stroke-opacity="0.00" stroke-width="0.3"><path d="
M 0.00 316.00 
L 316.00 316.00
L 316.00 0.00
L 0.00 0.00
L 0.00 316.00
M 133.00 89.00 
C 151.95 87.54 174.13 87.17 193.00 89.00
C 203.87 89.00 214.94 91.76 224.08 96.92 C 233.21 102.09 238.14 107.48 244.30 115.70 C 250.47 123.91 254.23 132.51 256.33 142.67 C 258.43 152.83 258.91 168.15 256.01 178.01 C 253.10 187.86 248.67 196.03 242.75 203.75 C 236.84 211.47 229.96 217.56 221.77 221.77 C 213.58 225.98 217.46 246.64 204.78 242.22 C 192.09 237.80 191.99 229.88 179.00 229.00
C 160.82 227.76 141.46 229.69 124.00 228.00
C 85.69 228.00 59.60 190.14 62.00 153.00 C 64.40 115.86 95.47 88.25 133.00 89.00 Z"/>
</g>
<g fill="None" fill-opacity="0.0" stroke="#9E35FB" stroke-opacity="1.00" stroke-width="0.3"><path d="
M 124.00 228.00 
C 141.80 228.00 162.14 225.98 179.00 229.00
C 191.99 229.88 192.09 237.80 204.78 242.22 C 217.46 246.64 213.58 225.98 221.77 221.77 C 229.96 217.56 236.84 211.47 242.75 203.75 C 248.67 196.03 253.10 187.86 256.01 178.01 C 258.91 168.15 258.43 152.83 256.33 142.67 C 254.23 132.51 250.47 123.91 244.30 115.70 C 238.14 107.48 233.21 102.09 224.08 96.92 C 214.94 91.76 203.87 89.00 193.00 89.00
C 173.01 89.00 152.98 89.40 133.00 89.00
C 95.47 88.25 64.40 115.86 62.00 153.00 C 59.60 190.14 85.69 228.00 124.00 228.00
M 122.00 146.00 
C 138.64 148.83 131.72 178.25 115.00 173.00 C 98.28 167.75 105.35 143.16 122.00 146.00
M 163.00 146.00 
C 179.82 149.91 173.11 176.93 156.33 172.67 C 139.55 168.41 146.14 142.08 163.00 146.00
M 204.00 146.00 
C 220.51 149.53 214.11 177.18 197.33 172.67 C 180.55 168.16 187.12 142.39 204.00 146.00 Z"/>
</g>
<g fill="None" fill-opacity="0.0" stroke="#2B0250" stroke-opacity="0.03" stroke-width="0.3"><path d="
M 133.00 89.00 
C 152.98 89.40 173.01 89.00 193.00 89.00
C 174.13 87.17 151.95 87.54 133.00 89.00 Z"/>
</g>
<g fill="None" fill-opacity="0.0" stroke="#9749A6" stroke-opacity="1.00" stroke-width="0.3"><path d="
M 122.00 146.00 
C 105.35 143.16 98.28 167.75 115.00 173.00 C 131.72 178.25 138.64 148.83 122.00 146.00
M 124.00 148.00 
C 137.43 152.96 127.59 177.47 113.78 170.22 C 99.97 162.98 109.47 142.64 124.00 148.00 Z"/>
</g>
<g fill="None" fill-opacity="0.0" stroke="#9746AA" stroke-opacity="1.00" stroke-width="0.3"><path d="
M 163.00 146.00 
C 146.14 142.08 139.55 168.41 156.33 172.67 C 173.11 176.93 179.82 149.91 163.00 146.00
M 165.00 148.00 
C 178.36 152.22 169.62 177.16 155.33 170.67 C 141.04 164.18 149.43 143.08 165.00 148.00 Z"/>
</g>
<g fill="None" fill-opacity="0.0" stroke="#9648A7" stroke-opacity="1.00" stroke-width="0.3"><path d="
M 204.00 146.00 
C 187.12 142.39 180.55 168.16 197.33 172.67 C 214.11 177.18 220.51 149.53 204.00 146.00
M 189.00 162.00 
C 188.02 158.62 188.39 158.08 190.00 155.00
C 196.14 143.25 213.59 147.40 212.00 161.00 C 210.41 174.60 192.40 173.73 189.00 162.00 Z"/>
</g>
<g fill="None" fill-opacity="0.0" stroke="#FBCB4B" stroke-opacity="1.00" stroke-width="0.3"><path d="
M 124.00 148.00 
C 109.47 142.64 99.97 162.98 113.78 170.22 C 127.59 177.47 137.43 152.96 124.00 148.00 Z"/>
</g>
<g fill="None" fill-opacity="0.0" stroke="#FACA4B" stroke-opacity="1.00" stroke-width="0.3"><path d="
M 165.00 148.00 
C 149.43 143.08 141.04 164.18 155.33 170.67 C 169.62 177.16 178.36 152.22 165.00 148.00 Z"/>
</g>
<g fill="None" fill-opacity="0.0" stroke="#FBCB49" stroke-opacity="1.00" stroke-width="0.3"><path d="
M 190.00 155.00 
C 189.25 157.11 188.68 159.60 189.00 162.00
C 192.40 173.73 210.41 174.60 212.00 161.00 C 213.59 147.40 196.14 143.25 190.00 155.00 Z"/>
</g>
<g fill="None" fill-opacity="0.0" stroke="#CF8A87" stroke-opacity="1.00" stroke-width="0.3"><path d="
M 189.00 162.00 
C 188.68 159.60 189.25 157.11 190.00 155.00
C 188.39 158.08 188.02 158.62 189.00 162.00 Z"/>
</g>
<g fill="None" fill-opacity="0.0" stroke="#43216C" stroke-opacity="0.19" stroke-width="0.3"><path d="
M 179.00 229.00 
C 162.14 225.98 141.80 228.00 124.00 228.00
C 141.46 229.69 160.82 227.76 179.00 229.00 Z"/>
</g>
<g fill="#000000" fill-opacity="0.00" stroke="None">
<path d="
M 0.00 316.00 
L 316.00 316.00
L 316.00 0.00
L 0.00 0.00
L 0.00 316.00
M 133.00 89.00 
C 151.95 87.54 174.13 87.17 193.00 89.00
C 203.87 89.00 214.94 91.76 224.08 96.92 C 233.21 102.09 238.14 107.48 244.30 115.70 C 250.47 123.91 254.23 132.51 256.33 142.67 C 258.43 152.83 258.91 168.15 256.01 178.01 C 253.10 187.86 248.67 196.03 242.75 203.75 C 236.84 211.47 229.96 217.56 221.77 221.77 C 213.58 225.98 217.46 246.64 204.78 242.22 C 192.09 237.80 191.99 229.88 179.00 229.00
C 160.82 227.76 141.46 229.69 124.00 228.00
C 85.69 228.00 59.60 190.14 62.00 153.00 C 64.40 115.86 95.47 88.25 133.00 89.00 Z"/>
</g>
<g fill="#9E35FB" fill-opacity="1.00" stroke="None">
<path d="
M 124.00 228.00 
C 141.80 228.00 162.14 225.98 179.00 229.00
C 191.99 229.88 192.09 237.80 204.78 242.22 C 217.46 246.64 213.58 225.98 221.77 221.77 C 229.96 217.56 236.84 211.47 242.75 203.75 C 248.67 196.03 253.10 187.86 256.01 178.01 C 258.91 168.15 258.43 152.83 256.33 142.67 C 254.23 132.51 250.47 123.91 244.30 115.70 C 238.14 107.48 233.21 102.09 224.08 96.92 C 214.94 91.76 203.87 89.00 193.00 89.00
C 173.01 89.00 152.98 89.40 133.00 89.00
C 95.47 88.25 64.40 115.86 62.00 153.00 C 59.60 190.14 85.69 228.00 124.00 228.00
M 122.00 146.00 
C 138.64 148.83 131.72 178.25 115.00 173.00 C 98.28 167.75 105.35 143.16 122.00 146.00
M 163.00 146.00 
C 179.82 149.91 173.11 176.93 156.33 172.67 C 139.55 168.41 146.14 142.08 163.00 146.00
M 204.00 146.00 
C 220.51 149.53 214.11 177.18 197.33 172.67 C 180.55 168.16 187.12 142.39 204.00 146.00 Z"/>
</g>
<g fill="#2B0250" fill-opacity="0.03" stroke="None">
<path d="
M 133.00 89.00 
C 152.98 89.40 173.01 89.00 193.00 89.00
C 174.13 87.17 151.95 87.54 133.00 89.00 Z"/>
</g>
<g fill="#9749A6" fill-opacity="1.00" stroke="None">
<path d="
M 122.00 146.00 
C 105.35 143.16 98.28 167.75 115.00 173.00 C 131.72 178.25 138.64 148.83 122.00 146.00
M 124.00 148.00 
C 137.43 152.96 127.59 177.47 113.78 170.22 C 99.97 162.98 109.47 142.64 124.00 148.00 Z"/>
</g>
<g fill="#9746AA" fill-opacity="1.00" stroke="None">
<path d="
M 163.00 146.00 
C 146.14 142.08 139.55 168.41 156.33 172.67 C 173.11 176.93 179.82 149.91 163.00 146.00
M 165.00 148.00 
C 178.36 152.22 169.62 177.16 155.33 170.67 C 141.04 164.18 149.43 143.08 165.00 148.00 Z"/>
</g>
<g fill="#9648A7" fill-opacity="1.00" stroke="None">
<path d="
M 204.00 146.00 
C 187.12 142.39 180.55 168.16 197.33 172.67 C 214.11 177.18 220.51 149.53 204.00 146.00
M 189.00 162.00 
C 188.02 158.62 188.39 158.08 190.00 155.00
C 196.14 143.25 213.59 147.40 212.00 161.00 C 210.41 174.60 192.40 173.73 189.00 162.00 Z"/>
</g>
<g fill="#FBCB4B" fill-opacity="1.00" stroke="None">
<path d="
M 124.00 148.00 
C 109.47 142.64 99.97 162.98 113.78 170.22 C 127.59 177.47 137.43 152.96 124.00 148.00 Z"/>
</g>
<g fill="#FACA4B" fill-opacity="1.00" stroke="None">
<path d="
M 165.00 148.00 
C 149.43 143.08 141.04 164.18 155.33 170.67 C 169.62 177.16 178.36 152.22 165.00 148.00 Z"/>
</g>
<g fill="#FBCB49" fill-opacity="1.00" stroke="None">
<path d="
M 190.00 155.00 
C 189.25 157.11 188.68 159.60 189.00 162.00
C 192.40 173.73 210.41 174.60 212.00 161.00 C 213.59 147.40 196.14 143.25 190.00 155.00 Z"/>
</g>
<g fill="#CF8A87" fill-opacity="1.00" stroke="None">
<path d="
M 189.00 162.00 
C 188.68 159.60 189.25 157.11 190.00 155.00
C 188.39 158.08 188.02 158.62 189.00 162.00 Z"/>
</g>
<g fill="#43216C" fill-opacity="0.19" stroke="None">
<path d="
M 179.00 229.00 
C 162.14 225.98 141.80 228.00 124.00 228.00
C 141.46 229.69 160.82 227.76 179.00 229.00 Z"/>
</g>
</svg>