<svg xmlns="http://www.w3.org/2000/svg" xmlns:v="https://svgstorm.com"
viewBox = "0 0 316 316"
width="316"
height="316">
<g fill="None" fill-opacity="0.0" stroke="#000000" stroke-opacity="0.00" stroke-width="0.3"><path d="
M 0.00 316.00 
L 316.00 316.00
L 316.00 0.00
L 0.00 0.00
L 0.00 316.00
M 51.00 208.00 
C 48.27 192.77 50.07 175.12 50.00 159.00 C 49.93 142.88 48.52 124.28 51.00 109.00
C 52.81 75.63 88.06 80.33 114.00 80.00 C 139.94 79.67 179.83 81.62 206.00 80.00 C 232.17 78.38 264.56 81.02 264.98 113.02 C 265.40 145.03 265.78 173.10 265.00 205.00 C 264.22 236.90 231.97 239.34 206.00 238.00 C 180.03 236.66 139.87 237.98 114.00 238.00 C 88.13 238.02 53.26 241.18 51.00 208.00 Z"/>
</g>
<g fill="None" fill-opacity="0.0" stroke="#FBFAFA" stroke-opacity="1.00" stroke-width="0.3"><path d="
M 51.00 109.00 
C 49.25 141.17 48.81 175.86 51.00 208.00
C 53.26 241.18 88.13 238.02 114.00 238.00 C 139.87 237.98 180.03 236.66 206.00 238.00 C 231.97 239.34 264.22 236.90 265.00 205.00 C 265.78 173.10 265.40 145.03 264.98 113.02 C 264.56 81.02 232.17 78.38 206.00 80.00 C 179.83 81.62 139.94 79.67 114.00 80.00 C 88.06 80.33 52.81 75.63 51.00 109.00
M 236.00 90.00 
C 238.66 90.62 239.60 90.76 242.00 92.00
C 243.01 92.52 244.06 92.55 245.00 93.00
C 246.69 93.80 252.60 98.92 252.00 101.00
C 250.63 105.80 237.75 102.18 232.00 103.00 C 226.25 103.82 215.67 102.60 209.00 103.00 C 202.33 103.40 194.11 102.80 187.00 103.00 C 179.89 103.20 171.25 102.85 164.00 103.00
C 164.00 106.67 164.00 110.33 164.00 114.00
C 168.35 110.78 177.62 115.52 184.00 114.00 C 190.38 112.48 200.00 115.07 207.00 114.00 C 214.00 112.93 221.65 115.31 229.00 114.00 C 236.35 112.69 242.93 116.38 250.08 113.93 C 257.23 111.49 258.48 128.74 254.00 129.00
C 224.88 131.63 194.26 129.00 165.00 129.00
C 165.31 132.47 165.31 136.53 165.00 140.00
C 172.25 140.00 179.78 139.77 187.00 140.00 C 194.22 140.23 202.99 139.44 210.00 140.00 C 217.01 140.56 226.65 138.72 233.00 140.00 C 239.35 141.28 250.85 136.69 255.00 141.00
C 255.34 144.78 255.34 149.22 255.00 153.00
C 250.85 157.32 239.34 152.77 233.00 154.00 C 226.66 155.23 217.04 153.57 210.00 154.00 C 202.96 154.43 194.31 154.09 187.00 154.00 C 179.69 153.91 171.35 154.66 164.00 154.00
C 164.00 157.67 164.00 161.33 164.00 165.00
C 194.09 162.29 224.85 167.04 255.00 165.00
C 254.36 169.17 256.29 174.66 254.00 178.00
C 249.65 182.35 238.44 177.65 232.00 179.00 C 225.56 180.35 216.09 178.28 209.00 179.00 C 201.91 179.72 193.36 178.43 186.00 179.00 C 178.64 179.57 169.65 178.64 163.00 178.00
C 128.67 177.99 94.33 178.01 60.00 178.00
C 65.50 149.65 45.30 102.76 79.00 90.00
C 91.92 86.80 107.09 89.65 121.00 89.00 C 134.91 88.35 149.99 89.00 164.00 89.00
C 186.59 89.00 214.65 85.03 236.00 90.00
M 61.00 188.00 
C 68.69 189.99 76.83 188.74 85.00 189.00 C 93.17 189.26 101.74 188.86 110.00 189.00 C 118.26 189.14 126.71 188.87 135.00 189.00 C 143.29 189.13 151.70 188.81 160.00 189.00 C 168.30 189.19 176.72 188.61 185.00 189.00 C 193.28 189.39 202.88 188.20 211.00 189.00 C 219.12 189.80 228.34 187.17 236.00 189.00 C 243.66 190.83 252.47 183.36 255.97 192.03 C 259.47 200.70 251.80 206.10 243.00 204.00 C 234.20 201.90 226.58 204.93 218.00 204.00 C 209.42 203.07 201.53 204.38 193.00 204.00 C 184.47 203.62 175.51 204.13 167.00 204.00 C 158.49 203.87 150.48 203.95 142.00 204.00 C 133.52 204.05 125.54 203.73 117.00 204.00 C 108.46 204.27 100.74 203.34 92.00 204.00 C 83.26 204.66 76.20 202.51 67.00 204.00 C 57.80 205.49 56.49 194.81 61.00 188.00
M 244.00 224.00 
C 230.74 234.26 205.22 226.78 188.00 228.00 C 170.78 229.22 145.43 229.15 128.00 228.00 C 110.57 226.85 85.96 233.70 71.00 225.00
C 69.21 223.96 63.31 219.36 64.00 217.00
C 65.44 212.09 78.98 215.86 85.00 215.00 C 91.02 214.14 101.91 215.39 109.00 215.00 C 116.09 214.61 125.44 215.18 133.00 215.00 C 140.56 214.82 149.27 215.08 157.00 215.00 C 164.73 214.92 172.17 215.04 180.00 215.00 C 187.83 214.96 196.08 215.02 204.00 215.00 C 211.92 214.98 220.04 215.01 228.00 215.00 C 235.96 214.99 244.03 215.01 252.00 215.00
C 250.48 218.67 247.15 221.69 244.00 224.00 Z"/>
</g>
<g fill="None" fill-opacity="0.0" stroke="#7882A0" stroke-opacity="1.00" stroke-width="0.3"><path d="
M 79.00 90.00 
C 106.90 86.54 135.98 92.52 164.00 90.00
C 163.75 89.75 164.00 89.00 164.00 89.00
C 149.99 89.00 134.91 88.35 121.00 89.00 C 107.09 89.65 91.92 86.80 79.00 90.00 Z"/>
</g>
<g fill="None" fill-opacity="0.0" stroke="#CC8288" stroke-opacity="1.00" stroke-width="0.3"><path d="
M 164.00 90.00 
C 164.25 90.25 165.00 90.00 165.00 90.00
C 188.17 90.00 212.99 87.43 236.00 90.00
C 214.65 85.03 186.59 89.00 164.00 89.00
C 164.00 89.00 163.75 89.75 164.00 90.00 Z"/>
</g>
<g fill="None" fill-opacity="0.0" stroke="#072767" stroke-opacity="1.00" stroke-width="0.3"><path d="
M 163.00 178.00 
C 163.50 178.00 164.00 178.00 164.00 178.00
C 164.35 174.07 164.00 169.94 164.00 166.00
C 164.00 165.50 164.00 165.00 164.00 165.00
C 164.00 161.33 164.00 157.67 164.00 154.00
C 164.00 153.50 164.00 153.00 164.00 153.00
C 164.00 149.00 164.00 145.00 164.00 141.00
C 164.00 140.50 164.00 140.00 164.00 140.00
C 164.00 136.33 164.00 132.67 164.00 129.00
C 164.00 128.50 164.00 128.00 164.00 128.00
C 164.00 123.67 164.00 119.33 164.00 115.00
C 164.00 114.50 164.00 114.00 164.00 114.00
C 164.00 110.33 164.00 106.67 164.00 103.00
C 164.00 98.73 163.62 94.25 164.00 90.00
C 135.98 92.52 106.90 86.54 79.00 90.00
C 45.30 102.76 65.50 149.65 60.00 178.00
C 94.33 178.01 128.67 177.99 163.00 178.00
M 77.00 98.00 
C 74.91 102.72 74.39 103.87 69.00 104.00
C 71.53 101.76 67.65 100.35 68.00 98.00
C 72.98 95.11 71.65 96.86 77.00 98.00
M 151.00 95.00 
C 151.89 98.71 154.86 98.97 153.00 104.00
C 148.85 103.57 146.99 102.72 146.00 98.00
C 148.94 99.16 148.77 95.57 151.00 95.00
M 93.00 96.00 
C 93.31 99.75 96.87 99.15 95.00 104.00
C 90.80 103.85 89.87 102.93 88.00 99.00
C 90.89 99.77 90.33 95.45 93.00 96.00
M 112.00 96.00 
C 114.95 99.63 115.18 99.39 115.00 104.00
C 110.02 103.56 110.24 103.79 108.00 100.00
C 109.62 99.04 110.71 97.27 112.00 96.00
M 135.00 98.00 
C 134.04 100.64 133.01 101.97 134.00 105.00
C 132.11 102.97 130.39 103.16 128.00 104.00
C 129.48 101.42 127.76 100.48 126.00 99.00
C 130.31 98.17 130.40 95.67 135.00 98.00
M 82.00 104.00 
C 84.95 107.63 85.18 107.39 85.00 112.00
C 82.67 110.93 80.92 111.22 79.00 113.00
C 79.79 110.05 79.65 108.52 77.00 107.00
C 79.76 107.96 80.51 105.18 82.00 104.00
M 145.00 107.00 
C 142.94 110.39 142.02 111.27 139.00 113.00
C 137.64 111.43 137.86 108.62 136.00 107.00
C 140.98 104.11 139.65 105.86 145.00 107.00
M 106.00 107.00 
C 103.97 108.89 104.16 110.61 105.00 113.00
C 103.51 111.57 100.83 109.99 100.00 113.00
C 98.64 111.43 98.86 108.62 97.00 107.00
C 101.20 106.37 101.75 105.34 106.00 107.00
M 125.00 107.00 
C 122.78 108.88 123.88 110.46 124.00 113.00
C 121.85 110.15 120.55 112.61 118.00 113.00
C 119.07 110.67 118.78 108.92 117.00 107.00
C 120.84 105.54 121.04 105.53 125.00 107.00
M 77.00 116.00 
C 75.23 118.68 74.69 121.17 72.00 121.00
C 69.42 121.17 69.85 117.36 68.00 116.00
C 72.48 113.58 72.15 114.14 77.00 116.00
M 97.00 116.00 
C 94.91 117.38 95.89 121.13 93.00 121.00
C 90.42 121.37 89.67 118.52 88.00 116.00
C 92.98 113.11 91.65 114.86 97.00 116.00
M 116.00 116.00 
C 113.80 120.97 115.04 121.73 109.00 122.00
C 107.15 116.96 110.05 116.90 111.00 113.00
C 113.14 113.82 113.02 116.94 116.00 116.00
M 132.00 121.00 
C 130.58 121.27 129.50 121.92 128.00 122.00
C 129.19 119.82 125.06 115.98 129.00 116.00
C 132.00 111.67 130.33 115.85 135.00 116.00
C 131.60 117.29 135.65 122.93 132.00 121.00
M 151.00 113.00 
C 154.25 117.12 154.04 116.74 154.00 122.00
C 148.14 122.18 149.02 120.48 146.00 116.00
C 149.22 117.05 149.64 114.75 151.00 113.00
M 86.00 125.00 
C 85.70 131.43 83.53 129.19 79.00 131.00
C 81.63 128.38 78.20 127.33 78.00 125.00
C 81.84 123.54 82.04 123.53 86.00 125.00
M 106.00 125.00 
C 103.80 130.04 105.21 130.42 99.00 131.00
C 96.83 124.96 100.86 122.37 106.00 125.00
M 124.00 131.00 
C 118.74 130.52 118.35 130.54 117.00 125.00
C 121.51 122.02 126.28 124.80 124.00 131.00
M 145.00 125.00 
C 142.80 130.04 144.21 130.42 138.00 131.00
C 135.67 125.06 139.87 122.11 145.00 125.00
M 77.00 134.00 
C 74.82 135.54 75.71 138.57 74.00 140.00
C 72.95 136.41 71.11 140.41 69.00 140.00
C 71.63 137.38 68.20 136.33 68.00 134.00
C 72.98 131.11 71.65 132.86 77.00 134.00
M 93.00 132.00 
C 94.26 135.24 96.40 135.76 95.00 140.00
C 90.80 139.85 89.87 138.93 88.00 135.00
C 90.89 135.77 90.33 131.45 93.00 132.00
M 112.00 132.00 
C 115.29 135.54 114.75 135.58 115.00 140.00
C 112.67 138.93 110.92 139.22 109.00 141.00
C 107.38 135.56 107.91 135.37 112.00 132.00
M 131.00 132.00 
C 134.29 135.54 133.75 135.58 134.00 140.00
C 129.67 139.63 127.75 139.67 126.00 135.00
C 128.76 135.96 129.51 133.18 131.00 132.00
M 155.00 135.00 
C 153.13 137.92 152.90 139.70 150.00 140.00
C 147.42 140.17 147.85 136.36 146.00 135.00
C 150.96 133.03 149.96 132.96 155.00 135.00
M 83.00 141.00 
C 85.32 144.45 84.86 144.95 85.00 149.00
C 80.80 148.85 79.87 147.93 78.00 144.00
C 80.89 144.77 80.33 140.45 83.00 141.00
M 141.00 141.00 
C 141.16 144.75 145.31 144.33 143.00 149.00
C 138.28 149.23 138.55 149.15 136.00 145.00
C 138.73 145.39 139.37 142.07 141.00 141.00
M 106.00 145.00 
C 105.65 150.74 102.57 148.43 99.00 151.00
C 99.36 146.48 98.35 145.68 101.00 142.00
C 103.14 142.82 103.02 145.94 106.00 145.00
M 124.00 150.00 
C 122.22 147.39 119.27 151.25 118.00 149.00
C 118.32 146.37 117.01 143.91 121.00 142.00
C 124.55 144.06 125.03 145.52 124.00 150.00
M 77.00 153.00 
C 74.91 154.38 75.89 158.13 73.00 158.00
C 70.42 158.37 69.67 155.52 68.00 153.00
C 72.48 150.58 72.15 151.14 77.00 153.00
M 116.00 153.00 
C 113.73 157.74 115.31 158.84 109.00 159.00
C 107.15 153.96 110.05 153.90 111.00 150.00
C 113.14 150.82 113.02 153.94 116.00 153.00
M 155.00 153.00 
C 153.26 156.47 152.04 158.38 148.00 159.00
C 146.03 153.56 147.15 154.25 150.00 150.00
C 150.99 151.95 152.00 153.82 155.00 153.00
M 97.00 153.00 
C 96.70 155.44 94.49 156.40 96.00 159.00
C 91.12 158.96 90.25 158.00 88.00 154.00
C 91.83 150.76 92.72 152.48 97.00 153.00
M 134.00 159.00 
C 132.22 156.39 129.27 160.25 128.00 158.00
C 128.00 154.53 126.87 153.07 131.00 151.00
C 136.01 153.52 132.93 154.48 134.00 159.00
M 82.00 160.00 
C 83.26 163.24 85.40 163.76 84.00 168.00
C 79.93 167.31 78.78 167.29 77.00 163.00
C 79.94 164.16 79.77 160.57 82.00 160.00
M 102.00 160.00 
C 103.81 163.11 104.37 164.23 105.00 168.00
C 101.14 166.88 98.81 168.42 98.00 164.00
C 99.62 163.04 100.71 161.27 102.00 160.00
M 121.00 160.00 
C 124.29 163.54 123.75 163.58 124.00 168.00
C 119.67 167.63 117.75 167.67 116.00 163.00
C 118.76 163.96 119.51 161.18 121.00 160.00
M 141.00 160.00 
C 142.46 163.85 143.34 163.44 143.00 168.00
C 138.95 168.20 137.83 166.79 136.00 163.00
C 138.94 164.16 138.77 160.57 141.00 160.00 Z"/>
</g>
<g fill="None" fill-opacity="0.0" stroke="#8E2334" stroke-opacity="1.00" stroke-width="0.3"><path d="
M 164.00 103.00 
C 171.25 102.85 179.89 103.20 187.00 103.00 C 194.11 102.80 202.33 103.40 209.00 103.00 C 215.67 102.60 226.25 103.82 232.00 103.00 C 237.75 102.18 250.63 105.80 252.00 101.00
C 252.08 100.62 245.82 93.51 245.00 93.00
C 244.06 92.55 243.01 92.52 242.00 92.00
C 245.21 94.41 246.94 98.79 250.00 101.00
C 222.17 103.33 193.25 101.34 165.00 102.00
C 165.00 98.00 165.00 94.00 165.00 90.00
C 165.00 90.00 164.25 90.25 164.00 90.00
C 163.62 94.25 164.00 98.73 164.00 103.00 Z"/>
</g>
<g fill="None" fill-opacity="0.0" stroke="#BF1E35" stroke-opacity="1.00" stroke-width="0.3"><path d="
M 242.00 92.00 
C 239.60 90.76 238.66 90.62 236.00 90.00
C 212.99 87.43 188.17 90.00 165.00 90.00
C 165.00 94.00 165.00 98.00 165.00 102.00
C 193.25 101.34 222.17 103.33 250.00 101.00
C 246.94 98.79 245.21 94.41 242.00 92.00 Z"/>
</g>
<g fill="None" fill-opacity="0.0" stroke="#F8BFC4" stroke-opacity="1.00" stroke-width="0.3"><path d="
M 252.00 101.00 
C 252.60 98.92 246.69 93.80 245.00 93.00
C 245.82 93.51 252.08 100.62 252.00 101.00 Z"/>
</g>
<g fill="None" fill-opacity="0.0" stroke="#CBD4E9" stroke-opacity="1.00" stroke-width="0.3"><path d="
M 77.00 98.00 
C 71.65 96.86 72.98 95.11 68.00 98.00
C 67.65 100.35 71.53 101.76 69.00 104.00
C 74.39 103.87 74.91 102.72 77.00 98.00 Z"/>
</g>
<g fill="None" fill-opacity="0.0" stroke="#CCD7EB" stroke-opacity="1.00" stroke-width="0.3"><path d="
M 151.00 95.00 
C 148.77 95.57 148.94 99.16 146.00 98.00
C 146.99 102.72 148.85 103.57 153.00 104.00
C 154.86 98.97 151.89 98.71 151.00 95.00 Z"/>
</g>
<g fill="None" fill-opacity="0.0" stroke="#DEE4F4" stroke-opacity="1.00" stroke-width="0.3"><path d="
M 93.00 96.00 
C 90.33 95.45 90.89 99.77 88.00 99.00
C 89.87 102.93 90.80 103.85 95.00 104.00
C 96.87 99.15 93.31 99.75 93.00 96.00 Z"/>
</g>
<g fill="None" fill-opacity="0.0" stroke="#E1E7F7" stroke-opacity="1.00" stroke-width="0.3"><path d="
M 112.00 96.00 
C 110.71 97.27 109.62 99.04 108.00 100.00
C 110.24 103.79 110.02 103.56 115.00 104.00
C 115.18 99.39 114.95 99.63 112.00 96.00 Z"/>
</g>
<g fill="None" fill-opacity="0.0" stroke="#D0DAEB" stroke-opacity="1.00" stroke-width="0.3"><path d="
M 135.00 98.00 
C 130.40 95.67 130.31 98.17 126.00 99.00
C 127.76 100.48 129.48 101.42 128.00 104.00
C 130.39 103.16 132.11 102.97 134.00 105.00
C 133.01 101.97 134.04 100.64 135.00 98.00 Z"/>
</g>
<g fill="None" fill-opacity="0.0" stroke="#D2DAEE" stroke-opacity="1.00" stroke-width="0.3"><path d="
M 82.00 104.00 
C 80.51 105.18 79.76 107.96 77.00 107.00
C 79.65 108.52 79.79 110.05 79.00 113.00
C 80.92 111.22 82.67 110.93 85.00 112.00
C 85.18 107.39 84.95 107.63 82.00 104.00 Z"/>
</g>
<g fill="None" fill-opacity="0.0" stroke="#DDE4F5" stroke-opacity="1.00" stroke-width="0.3"><path d="
M 145.00 107.00 
C 139.65 105.86 140.98 104.11 136.00 107.00
C 137.86 108.62 137.64 111.43 139.00 113.00
C 142.02 111.27 142.94 110.39 145.00 107.00 Z"/>
</g>
<g fill="None" fill-opacity="0.0" stroke="#DDE5F5" stroke-opacity="1.00" stroke-width="0.3"><path d="
M 106.00 107.00 
C 101.75 105.34 101.20 106.37 97.00 107.00
C 98.86 108.62 98.64 111.43 100.00 113.00
C 100.83 109.99 103.51 111.57 105.00 113.00
C 104.16 110.61 103.97 108.89 106.00 107.00 Z"/>
</g>
<g fill="None" fill-opacity="0.0" stroke="#D9E3F2" stroke-opacity="1.00" stroke-width="0.3"><path d="
M 125.00 107.00 
C 121.04 105.53 120.84 105.54 117.00 107.00
C 118.78 108.92 119.07 110.67 118.00 113.00
C 120.55 112.61 121.85 110.15 124.00 113.00
C 123.88 110.46 122.78 108.88 125.00 107.00 Z"/>
</g>
<g fill="None" fill-opacity="0.0" stroke="#7E7D83" stroke-opacity="0.46" stroke-width="0.3"><path d="
M 51.00 208.00 
C 48.81 175.86 49.25 141.17 51.00 109.00
C 48.52 124.28 49.93 142.88 50.00 159.00 C 50.07 175.12 48.27 192.77 51.00 208.00 Z"/>
</g>
<g fill="None" fill-opacity="0.0" stroke="#DCE6F5" stroke-opacity="1.00" stroke-width="0.3"><path d="
M 77.00 116.00 
C 72.15 114.14 72.48 113.58 68.00 116.00
C 69.85 117.36 69.42 121.17 72.00 121.00
C 74.69 121.17 75.23 118.68 77.00 116.00 Z"/>
</g>
<g fill="None" fill-opacity="0.0" stroke="#DDE4F6" stroke-opacity="1.00" stroke-width="0.3"><path d="
M 97.00 116.00 
C 91.65 114.86 92.98 113.11 88.00 116.00
C 89.67 118.52 90.42 121.37 93.00 121.00
C 95.89 121.13 94.91 117.38 97.00 116.00 Z"/>
</g>
<g fill="None" fill-opacity="0.0" stroke="#C4CEE4" stroke-opacity="1.00" stroke-width="0.3"><path d="
M 116.00 116.00 
C 113.02 116.94 113.14 113.82 111.00 113.00
C 110.05 116.90 107.15 116.96 109.00 122.00
C 115.04 121.73 113.80 120.97 116.00 116.00 Z"/>
</g>
<g fill="None" fill-opacity="0.0" stroke="#E1E8F5" stroke-opacity="1.00" stroke-width="0.3"><path d="
M 129.00 116.00 
C 128.32 117.85 128.86 118.79 129.00 121.00
C 129.84 120.42 131.61 119.29 132.00 121.00
C 135.65 122.93 131.60 117.29 135.00 116.00
C 130.33 115.85 132.00 111.67 129.00 116.00 Z"/>
</g>
<g fill="None" fill-opacity="0.0" stroke="#C6D1E4" stroke-opacity="1.00" stroke-width="0.3"><path d="
M 151.00 113.00 
C 149.64 114.75 149.22 117.05 146.00 116.00
C 149.02 120.48 148.14 122.18 154.00 122.00
C 154.04 116.74 154.25 117.12 151.00 113.00 Z"/>
</g>
<g fill="None" fill-opacity="0.0" stroke="#FEEDF0" stroke-opacity="1.00" stroke-width="0.3"><path d="
M 164.00 114.00 
C 164.00 114.00 164.00 114.50 164.00 115.00
C 194.09 117.72 224.85 112.96 255.00 115.00
C 254.36 119.17 256.29 124.66 254.00 128.00
C 253.76 128.32 254.00 129.00 254.00 129.00
C 258.48 128.74 257.23 111.49 250.08 113.93 C 242.93 116.38 236.35 112.69 229.00 114.00 C 221.65 115.31 214.00 112.93 207.00 114.00 C 200.00 115.07 190.38 112.48 184.00 114.00 C 177.62 115.52 168.35 110.78 164.00 114.00 Z"/>
</g>
<g fill="None" fill-opacity="0.0" stroke="#A34855" stroke-opacity="1.00" stroke-width="0.3"><path d="
M 164.00 128.00 
C 164.25 127.75 165.00 128.00 165.00 128.00
C 165.36 124.03 164.73 119.98 165.00 116.00
C 194.67 116.00 224.33 116.00 254.00 116.00
C 254.00 120.00 254.00 124.00 254.00 128.00
C 256.29 124.66 254.36 119.17 255.00 115.00
C 224.85 112.96 194.09 117.72 164.00 115.00
C 164.00 119.33 164.00 123.67 164.00 128.00 Z"/>
</g>
<g fill="None" fill-opacity="0.0" stroke="#8C9EC1" stroke-opacity="1.00" stroke-width="0.3"><path d="
M 132.00 121.00 
C 131.61 119.29 129.84 120.42 129.00 121.00
C 128.86 118.79 128.32 117.85 129.00 116.00
C 125.06 115.98 129.19 119.82 128.00 122.00
C 129.50 121.92 130.58 121.27 132.00 121.00 Z"/>
</g>
<g fill="None" fill-opacity="0.0" stroke="#BC1F34" stroke-opacity="1.00" stroke-width="0.3"><path d="
M 165.00 128.00 
C 194.26 127.99 224.88 125.37 254.00 128.00
C 254.00 124.00 254.00 120.00 254.00 116.00
C 224.33 116.00 194.67 116.00 165.00 116.00
C 164.73 119.98 165.36 124.03 165.00 128.00 Z"/>
</g>
<g fill="None" fill-opacity="0.0" stroke="#D1DCF1" stroke-opacity="1.00" stroke-width="0.3"><path d="
M 86.00 125.00 
C 82.04 123.53 81.84 123.54 78.00 125.00
C 78.20 127.33 81.63 128.38 79.00 131.00
C 83.53 129.19 85.70 131.43 86.00 125.00 Z"/>
</g>
<g fill="None" fill-opacity="0.0" stroke="#D1DBF0" stroke-opacity="1.00" stroke-width="0.3"><path d="
M 106.00 125.00 
C 100.86 122.37 96.83 124.96 99.00 131.00
C 105.21 130.42 103.80 130.04 106.00 125.00 Z"/>
</g>
<g fill="None" fill-opacity="0.0" stroke="#CFD8EC" stroke-opacity="1.00" stroke-width="0.3"><path d="
M 124.00 131.00 
C 126.28 124.80 121.51 122.02 117.00 125.00
C 118.35 130.54 118.74 130.52 124.00 131.00 Z"/>
</g>
<g fill="None" fill-opacity="0.0" stroke="#D4DBEE" stroke-opacity="1.00" stroke-width="0.3"><path d="
M 145.00 125.00 
C 139.87 122.11 135.67 125.06 138.00 131.00
C 144.21 130.42 142.80 130.04 145.00 125.00 Z"/>
</g>
<g fill="None" fill-opacity="0.0" stroke="#F2B7BF" stroke-opacity="1.00" stroke-width="0.3"><path d="
M 164.00 129.00 
C 164.25 129.25 165.00 129.00 165.00 129.00
C 194.26 129.00 224.88 131.63 254.00 129.00
C 254.00 129.00 253.76 128.32 254.00 128.00
C 224.88 125.37 194.26 127.99 165.00 128.00
C 165.00 128.00 164.25 127.75 164.00 128.00
C 164.00 128.00 164.00 128.50 164.00 129.00 Z"/>
</g>
<g fill="None" fill-opacity="0.0" stroke="#CFD5E9" stroke-opacity="1.00" stroke-width="0.3"><path d="
M 164.00 140.00 
C 164.25 139.75 165.00 140.00 165.00 140.00
C 165.31 136.53 165.31 132.47 165.00 129.00
C 165.00 129.00 164.25 129.25 164.00 129.00
C 164.00 132.67 164.00 136.33 164.00 140.00 Z"/>
</g>
<g fill="None" fill-opacity="0.0" stroke="#C4D0E7" stroke-opacity="1.00" stroke-width="0.3"><path d="
M 77.00 134.00 
C 71.65 132.86 72.98 131.11 68.00 134.00
C 68.20 136.33 71.63 137.38 69.00 140.00
C 71.11 140.41 72.95 136.41 74.00 140.00
C 75.71 138.57 74.82 135.54 77.00 134.00 Z"/>
</g>
<g fill="None" fill-opacity="0.0" stroke="#D8DFEF" stroke-opacity="1.00" stroke-width="0.3"><path d="
M 93.00 132.00 
C 90.33 131.45 90.89 135.77 88.00 135.00
C 89.87 138.93 90.80 139.85 95.00 140.00
C 96.40 135.76 94.26 135.24 93.00 132.00 Z"/>
</g>
<g fill="None" fill-opacity="0.0" stroke="#D2DAEE" stroke-opacity="1.00" stroke-width="0.3"><path d="
M 112.00 132.00 
C 107.91 135.37 107.38 135.56 109.00 141.00
C 110.92 139.22 112.67 138.93 115.00 140.00
C 114.75 135.58 115.29 135.54 112.00 132.00 Z"/>
</g>
<g fill="None" fill-opacity="0.0" stroke="#D5DDEE" stroke-opacity="1.00" stroke-width="0.3"><path d="
M 131.00 132.00 
C 129.51 133.18 128.76 135.96 126.00 135.00
C 127.75 139.67 129.67 139.63 134.00 140.00
C 133.75 135.58 134.29 135.54 131.00 132.00 Z"/>
</g>
<g fill="None" fill-opacity="0.0" stroke="#DCE3F2" stroke-opacity="1.00" stroke-width="0.3"><path d="
M 155.00 135.00 
C 149.96 132.96 150.96 133.03 146.00 135.00
C 147.85 136.36 147.42 140.17 150.00 140.00
C 152.90 139.70 153.13 137.92 155.00 135.00 Z"/>
</g>
<g fill="None" fill-opacity="0.0" stroke="#FEB7C2" stroke-opacity="1.00" stroke-width="0.3"><path d="
M 164.00 141.00 
C 193.45 143.66 224.41 141.00 254.00 141.00
C 254.50 141.00 255.00 141.00 255.00 141.00
C 250.85 136.69 239.35 141.28 233.00 140.00 C 226.65 138.72 217.01 140.56 210.00 140.00 C 202.99 139.44 194.22 140.23 187.00 140.00 C 179.78 139.77 172.25 140.00 165.00 140.00
C 165.00 140.00 164.25 139.75 164.00 140.00
C 164.00 140.00 164.00 140.50 164.00 141.00 Z"/>
</g>
<g fill="None" fill-opacity="0.0" stroke="#D5DFF1" stroke-opacity="1.00" stroke-width="0.3"><path d="
M 83.00 141.00 
C 80.33 140.45 80.89 144.77 78.00 144.00
C 79.87 147.93 80.80 148.85 85.00 149.00
C 84.86 144.95 85.32 144.45 83.00 141.00 Z"/>
</g>
<g fill="None" fill-opacity="0.0" stroke="#DAE2F3" stroke-opacity="1.00" stroke-width="0.3"><path d="
M 141.00 141.00 
C 139.37 142.07 138.73 145.39 136.00 145.00
C 138.55 149.15 138.28 149.23 143.00 149.00
C 145.31 144.33 141.16 144.75 141.00 141.00 Z"/>
</g>
<g fill="None" fill-opacity="0.0" stroke="#992033" stroke-opacity="1.00" stroke-width="0.3"><path d="
M 164.00 153.00 
C 193.45 150.33 224.41 153.00 254.00 153.00
C 253.66 149.22 253.66 144.78 254.00 141.00
C 224.41 141.00 193.45 143.66 164.00 141.00
C 164.00 145.00 164.00 149.00 164.00 153.00
M 253.00 152.00 
C 242.55 151.78 231.37 152.30 221.00 152.00 C 210.63 151.70 198.01 152.56 188.00 152.00 C 177.99 151.44 161.78 156.70 165.00 142.00
C 175.45 142.22 186.63 141.70 197.00 142.00 C 207.37 142.30 219.99 141.44 230.00 142.00 C 240.01 142.56 256.22 137.30 253.00 152.00 Z"/>
</g>
<g fill="None" fill-opacity="0.0" stroke="#A9535B" stroke-opacity="1.00" stroke-width="0.3"><path d="
M 254.00 153.00 
C 254.50 153.00 255.00 153.00 255.00 153.00
C 255.34 149.22 255.34 144.78 255.00 141.00
C 255.00 141.00 254.50 141.00 254.00 141.00
C 253.66 144.78 253.66 149.22 254.00 153.00 Z"/>
</g>
<g fill="None" fill-opacity="0.0" stroke="#CED8EC" stroke-opacity="1.00" stroke-width="0.3"><path d="
M 106.00 145.00 
C 103.02 145.94 103.14 142.82 101.00 142.00
C 98.35 145.68 99.36 146.48 99.00 151.00
C 102.57 148.43 105.65 150.74 106.00 145.00 Z"/>
</g>
<g fill="None" fill-opacity="0.0" stroke="#CCD6E9" stroke-opacity="1.00" stroke-width="0.3"><path d="
M 124.00 150.00 
C 125.03 145.52 124.55 144.06 121.00 142.00
C 117.01 143.91 118.32 146.37 118.00 149.00
C 119.27 151.25 122.22 147.39 124.00 150.00 Z"/>
</g>
<g fill="None" fill-opacity="0.0" stroke="#BE1F35" stroke-opacity="1.00" stroke-width="0.3"><path d="
M 253.00 152.00 
C 256.22 137.30 240.01 142.56 230.00 142.00 C 219.99 141.44 207.37 142.30 197.00 142.00 C 186.63 141.70 175.45 142.22 165.00 142.00
C 161.78 156.70 177.99 151.44 188.00 152.00 C 198.01 152.56 210.63 151.70 221.00 152.00 C 231.37 152.30 242.55 151.78 253.00 152.00 Z"/>
</g>
<g fill="None" fill-opacity="0.0" stroke="#D3DBED" stroke-opacity="1.00" stroke-width="0.3"><path d="
M 77.00 153.00 
C 72.15 151.14 72.48 150.58 68.00 153.00
C 69.67 155.52 70.42 158.37 73.00 158.00
C 75.89 158.13 74.91 154.38 77.00 153.00 Z"/>
</g>
<g fill="None" fill-opacity="0.0" stroke="#C7D0E7" stroke-opacity="1.00" stroke-width="0.3"><path d="
M 116.00 153.00 
C 113.02 153.94 113.14 150.82 111.00 150.00
C 110.05 153.90 107.15 153.96 109.00 159.00
C 115.31 158.84 113.73 157.74 116.00 153.00 Z"/>
</g>
<g fill="None" fill-opacity="0.0" stroke="#D4DDEE" stroke-opacity="1.00" stroke-width="0.3"><path d="
M 155.00 153.00 
C 152.00 153.82 150.99 151.95 150.00 150.00
C 147.15 154.25 146.03 153.56 148.00 159.00
C 152.04 158.38 153.26 156.47 155.00 153.00 Z"/>
</g>
<g fill="None" fill-opacity="0.0" stroke="#C5D0E5" stroke-opacity="1.00" stroke-width="0.3"><path d="
M 97.00 153.00 
C 92.72 152.48 91.83 150.76 88.00 154.00
C 90.25 158.00 91.12 158.96 96.00 159.00
C 94.49 156.40 96.70 155.44 97.00 153.00 Z"/>
</g>
<g fill="None" fill-opacity="0.0" stroke="#C9D5EB" stroke-opacity="1.00" stroke-width="0.3"><path d="
M 134.00 159.00 
C 132.93 154.48 136.01 153.52 131.00 151.00
C 126.87 153.07 128.00 154.53 128.00 158.00
C 129.27 160.25 132.22 156.39 134.00 159.00 Z"/>
</g>
<g fill="None" fill-opacity="0.0" stroke="#FEAEB9" stroke-opacity="1.00" stroke-width="0.3"><path d="
M 164.00 154.00 
C 171.35 154.66 179.69 153.91 187.00 154.00 C 194.31 154.09 202.96 154.43 210.00 154.00 C 217.04 153.57 226.66 155.23 233.00 154.00 C 239.34 152.77 250.85 157.32 255.00 153.00
C 255.00 153.00 254.50 153.00 254.00 153.00
C 224.41 153.00 193.45 150.33 164.00 153.00
C 164.00 153.00 164.00 153.50 164.00 154.00 Z"/>
</g>
<g fill="None" fill-opacity="0.0" stroke="#D7E3F3" stroke-opacity="1.00" stroke-width="0.3"><path d="
M 82.00 160.00 
C 79.77 160.57 79.94 164.16 77.00 163.00
C 78.78 167.29 79.93 167.31 84.00 168.00
C 85.40 163.76 83.26 163.24 82.00 160.00 Z"/>
</g>
<g fill="None" fill-opacity="0.0" stroke="#D9E3F2" stroke-opacity="1.00" stroke-width="0.3"><path d="
M 102.00 160.00 
C 100.71 161.27 99.62 163.04 98.00 164.00
C 98.81 168.42 101.14 166.88 105.00 168.00
C 104.37 164.23 103.81 163.11 102.00 160.00 Z"/>
</g>
<g fill="None" fill-opacity="0.0" stroke="#D0DBEC" stroke-opacity="1.00" stroke-width="0.3"><path d="
M 121.00 160.00 
C 119.51 161.18 118.76 163.96 116.00 163.00
C 117.75 167.67 119.67 167.63 124.00 168.00
C 123.75 163.58 124.29 163.54 121.00 160.00 Z"/>
</g>
<g fill="None" fill-opacity="0.0" stroke="#E2ECF8" stroke-opacity="1.00" stroke-width="0.3"><path d="
M 141.00 160.00 
C 138.77 160.57 138.94 164.16 136.00 163.00
C 137.83 166.79 138.95 168.20 143.00 168.00
C 143.34 163.44 142.46 163.85 141.00 160.00 Z"/>
</g>
<g fill="None" fill-opacity="0.0" stroke="#B7616D" stroke-opacity="1.00" stroke-width="0.3"><path d="
M 164.00 166.00 
C 164.25 166.25 165.00 166.00 165.00 166.00
C 194.67 166.00 224.33 166.00 254.00 166.00
C 254.00 170.00 254.00 174.00 254.00 178.00
C 256.29 174.66 254.36 169.17 255.00 165.00
C 224.85 167.04 194.09 162.29 164.00 165.00
C 164.00 165.00 164.00 165.50 164.00 166.00 Z"/>
</g>
<g fill="None" fill-opacity="0.0" stroke="#922A4D" stroke-opacity="1.00" stroke-width="0.3"><path d="
M 164.00 178.00 
C 164.50 178.00 165.50 178.00 166.00 178.00
C 166.32 175.27 165.29 169.19 165.00 166.00
C 165.00 166.00 164.25 166.25 164.00 166.00
C 164.00 169.94 164.35 174.07 164.00 178.00 Z"/>
</g>
<g fill="None" fill-opacity="0.0" stroke="#BC1D33" stroke-opacity="1.00" stroke-width="0.3"><path d="
M 166.00 178.00 
C 195.33 178.00 224.67 178.00 254.00 178.00
C 254.00 174.00 254.00 170.00 254.00 166.00
C 224.33 166.00 194.67 166.00 165.00 166.00
C 165.29 169.19 166.32 175.27 166.00 178.00 Z"/>
</g>
<g fill="None" fill-opacity="0.0" stroke="#F3BAC3" stroke-opacity="1.00" stroke-width="0.3"><path d="
M 254.00 178.00 
C 224.67 178.00 195.33 178.00 166.00 178.00
C 165.50 178.00 164.50 178.00 164.00 178.00
C 164.00 178.00 163.50 178.00 163.00 178.00
C 169.65 178.64 178.64 179.57 186.00 179.00 C 193.36 178.43 201.91 179.72 209.00 179.00 C 216.09 178.28 225.56 180.35 232.00 179.00 C 238.44 177.65 249.65 182.35 254.00 178.00 Z"/>
</g>
<g fill="None" fill-opacity="0.0" stroke="#FFECF2" stroke-opacity="1.00" stroke-width="0.3"><path d="
M 61.00 188.00 
C 56.49 194.81 57.80 205.49 67.00 204.00 C 76.20 202.51 83.26 204.66 92.00 204.00 C 100.74 203.34 108.46 204.27 117.00 204.00 C 125.54 203.73 133.52 204.05 142.00 204.00 C 150.48 203.95 158.49 203.87 167.00 204.00 C 175.51 204.13 184.47 203.62 193.00 204.00 C 201.53 204.38 209.42 203.07 218.00 204.00 C 226.58 204.93 234.20 201.90 243.00 204.00 C 251.80 206.10 259.47 200.70 255.97 192.03 C 252.47 183.36 243.66 190.83 236.00 189.00 C 228.34 187.17 219.12 189.80 211.00 189.00 C 202.88 188.20 193.28 189.39 185.00 189.00 C 176.72 188.61 168.30 189.19 160.00 189.00 C 151.70 188.81 143.29 189.13 135.00 189.00 C 126.71 188.87 118.26 189.14 110.00 189.00 C 101.74 188.86 93.17 189.26 85.00 189.00 C 76.83 188.74 68.69 189.99 61.00 188.00
M 254.00 203.00 
C 246.37 206.39 235.54 201.53 227.00 203.00 C 218.47 204.47 207.94 202.33 199.00 203.00 C 190.06 203.67 180.08 202.69 171.00 203.00 C 161.92 203.31 153.18 202.86 144.00 203.00 C 134.82 203.14 125.26 202.94 116.00 203.00 C 106.74 203.06 97.30 202.97 88.00 203.00 C 78.70 203.03 69.30 202.98 60.00 203.00
C 60.00 198.67 60.00 194.33 60.00 190.00
C 124.67 190.00 189.33 190.00 254.00 190.00
C 255.32 191.27 256.22 202.36 254.00 203.00 Z"/>
</g>
<g fill="None" fill-opacity="0.0" stroke="#921F2E" stroke-opacity="1.00" stroke-width="0.3"><path d="
M 254.00 203.00 
C 254.19 202.92 254.00 201.50 254.00 201.00
C 238.97 199.25 222.80 203.41 207.00 202.00 C 191.20 200.59 174.00 202.67 158.00 202.00 C 142.00 201.33 126.11 202.34 110.00 202.00 C 93.89 201.66 77.16 202.26 61.00 202.00
C 61.00 198.33 61.00 194.67 61.00 191.00
C 125.33 191.00 189.67 191.00 254.00 191.00
C 254.00 190.50 254.00 190.00 254.00 190.00
C 189.33 190.00 124.67 190.00 60.00 190.00
C 60.00 194.33 60.00 198.67 60.00 203.00
C 69.30 202.98 78.70 203.03 88.00 203.00 C 97.30 202.97 106.74 203.06 116.00 203.00 C 125.26 202.94 134.82 203.14 144.00 203.00 C 153.18 202.86 161.92 203.31 171.00 203.00 C 180.08 202.69 190.06 203.67 199.00 203.00 C 207.94 202.33 218.47 204.47 227.00 203.00 C 235.54 201.53 246.37 206.39 254.00 203.00 Z"/>
</g>
<g fill="None" fill-opacity="0.0" stroke="#A6565D" stroke-opacity="1.00" stroke-width="0.3"><path d="
M 254.00 191.00 
C 254.00 194.33 254.00 197.67 254.00 201.00
C 254.00 201.50 254.19 202.92 254.00 203.00
C 256.22 202.36 255.32 191.27 254.00 190.00
C 254.00 190.00 254.00 190.50 254.00 191.00 Z"/>
</g>
<g fill="None" fill-opacity="0.0" stroke="#BE1E34" stroke-opacity="1.00" stroke-width="0.3"><path d="
M 254.00 201.00 
C 254.00 197.67 254.00 194.33 254.00 191.00
C 189.67 191.00 125.33 191.00 61.00 191.00
C 61.00 194.67 61.00 198.33 61.00 202.00
C 77.16 202.26 93.89 201.66 110.00 202.00 C 126.11 202.34 142.00 201.33 158.00 202.00 C 174.00 202.67 191.20 200.59 207.00 202.00 C 222.80 203.41 238.97 199.25 254.00 201.00 Z"/>
</g>
<g fill="None" fill-opacity="0.0" stroke="#A03E49" stroke-opacity="1.00" stroke-width="0.3"><path d="
M 64.00 217.00 
C 63.77 218.07 67.37 220.30 68.00 221.00
C 67.52 220.21 67.08 219.09 66.00 219.00
C 72.24 213.10 84.29 216.70 94.00 216.00 C 103.71 215.30 114.94 216.32 125.00 216.00 C 135.06 215.68 145.77 216.14 156.00 216.00 C 166.23 215.86 176.66 216.07 187.00 216.00 C 197.34 215.93 207.56 216.03 218.00 216.00 C 228.44 215.97 239.50 216.03 250.00 216.00
C 249.10 219.37 245.62 221.11 244.00 224.00
C 247.15 221.69 250.48 218.67 252.00 215.00
C 244.03 215.01 235.96 214.99 228.00 215.00 C 220.04 215.01 211.92 214.98 204.00 215.00 C 196.08 215.02 187.83 214.96 180.00 215.00 C 172.17 215.04 164.73 214.92 157.00 215.00 C 149.27 215.08 140.56 214.82 133.00 215.00 C 125.44 215.18 116.09 214.61 109.00 215.00 C 101.91 215.39 91.02 214.14 85.00 215.00 C 78.98 215.86 65.44 212.09 64.00 217.00 Z"/>
</g>
<g fill="None" fill-opacity="0.0" stroke="#BC2237" stroke-opacity="1.00" stroke-width="0.3"><path d="
M 68.00 221.00 
C 68.94 222.04 69.94 224.23 71.00 225.00
C 85.96 233.70 110.57 226.85 128.00 228.00 C 145.43 229.15 170.78 229.22 188.00 228.00 C 205.22 226.78 230.74 234.26 244.00 224.00
C 245.62 221.11 249.10 219.37 250.00 216.00
C 239.50 216.03 228.44 215.97 218.00 216.00 C 207.56 216.03 197.34 215.93 187.00 216.00 C 176.66 216.07 166.23 215.86 156.00 216.00 C 145.77 216.14 135.06 215.68 125.00 216.00 C 114.94 216.32 103.71 215.30 94.00 216.00 C 84.29 216.70 72.24 213.10 66.00 219.00
C 67.08 219.09 67.52 220.21 68.00 221.00 Z"/>
</g>
<g fill="None" fill-opacity="0.0" stroke="#F2B7BC" stroke-opacity="1.00" stroke-width="0.3"><path d="
M 71.00 225.00 
C 69.94 224.23 68.94 222.04 68.00 221.00
C 67.37 220.30 63.77 218.07 64.00 217.00
C 63.31 219.36 69.21 223.96 71.00 225.00 Z"/>
</g>
<g fill="#000000" fill-opacity="0.00" stroke="None">
<path d="
M 0.00 316.00 
L 316.00 316.00
L 316.00 0.00
L 0.00 0.00
L 0.00 316.00
M 51.00 208.00 
C 48.27 192.77 50.07 175.12 50.00 159.00 C 49.93 142.88 48.52 124.28 51.00 109.00
C 52.81 75.63 88.06 80.33 114.00 80.00 C 139.94 79.67 179.83 81.62 206.00 80.00 C 232.17 78.38 264.56 81.02 264.98 113.02 C 265.40 145.03 265.78 173.10 265.00 205.00 C 264.22 236.90 231.97 239.34 206.00 238.00 C 180.03 236.66 139.87 237.98 114.00 238.00 C 88.13 238.02 53.26 241.18 51.00 208.00 Z"/>
</g>
<g fill="#FBFAFA" fill-opacity="1.00" stroke="None">
<path d="
M 51.00 109.00 
C 49.25 141.17 48.81 175.86 51.00 208.00
C 53.26 241.18 88.13 238.02 114.00 238.00 C 139.87 237.98 180.03 236.66 206.00 238.00 C 231.97 239.34 264.22 236.90 265.00 205.00 C 265.78 173.10 265.40 145.03 264.98 113.02 C 264.56 81.02 232.17 78.38 206.00 80.00 C 179.83 81.62 139.94 79.67 114.00 80.00 C 88.06 80.33 52.81 75.63 51.00 109.00
M 236.00 90.00 
C 238.66 90.62 239.60 90.76 242.00 92.00
C 243.01 92.52 244.06 92.55 245.00 93.00
C 246.69 93.80 252.60 98.92 252.00 101.00
C 250.63 105.80 237.75 102.18 232.00 103.00 C 226.25 103.82 215.67 102.60 209.00 103.00 C 202.33 103.40 194.11 102.80 187.00 103.00 C 179.89 103.20 171.25 102.85 164.00 103.00
C 164.00 106.67 164.00 110.33 164.00 114.00
C 168.35 110.78 177.62 115.52 184.00 114.00 C 190.38 112.48 200.00 115.07 207.00 114.00 C 214.00 112.93 221.65 115.31 229.00 114.00 C 236.35 112.69 242.93 116.38 250.08 113.93 C 257.23 111.49 258.48 128.74 254.00 129.00
C 224.88 131.63 194.26 129.00 165.00 129.00
C 165.31 132.47 165.31 136.53 165.00 140.00
C 172.25 140.00 179.78 139.77 187.00 140.00 C 194.22 140.23 202.99 139.44 210.00 140.00 C 217.01 140.56 226.65 138.72 233.00 140.00 C 239.35 141.28 250.85 136.69 255.00 141.00
C 255.34 144.78 255.34 149.22 255.00 153.00
C 250.85 157.32 239.34 152.77 233.00 154.00 C 226.66 155.23 217.04 153.57 210.00 154.00 C 202.96 154.43 194.31 154.09 187.00 154.00 C 179.69 153.91 171.35 154.66 164.00 154.00
C 164.00 157.67 164.00 161.33 164.00 165.00
C 194.09 162.29 224.85 167.04 255.00 165.00
C 254.36 169.17 256.29 174.66 254.00 178.00
C 249.65 182.35 238.44 177.65 232.00 179.00 C 225.56 180.35 216.09 178.28 209.00 179.00 C 201.91 179.72 193.36 178.43 186.00 179.00 C 178.64 179.57 169.65 178.64 163.00 178.00
C 128.67 177.99 94.33 178.01 60.00 178.00
C 65.50 149.65 45.30 102.76 79.00 90.00
C 91.92 86.80 107.09 89.65 121.00 89.00 C 134.91 88.35 149.99 89.00 164.00 89.00
C 186.59 89.00 214.65 85.03 236.00 90.00
M 61.00 188.00 
C 68.69 189.99 76.83 188.74 85.00 189.00 C 93.17 189.26 101.74 188.86 110.00 189.00 C 118.26 189.14 126.71 188.87 135.00 189.00 C 143.29 189.13 151.70 188.81 160.00 189.00 C 168.30 189.19 176.72 188.61 185.00 189.00 C 193.28 189.39 202.88 188.20 211.00 189.00 C 219.12 189.80 228.34 187.17 236.00 189.00 C 243.66 190.83 252.47 183.36 255.97 192.03 C 259.47 200.70 251.80 206.10 243.00 204.00 C 234.20 201.90 226.58 204.93 218.00 204.00 C 209.42 203.07 201.53 204.38 193.00 204.00 C 184.47 203.62 175.51 204.13 167.00 204.00 C 158.49 203.87 150.48 203.95 142.00 204.00 C 133.52 204.05 125.54 203.73 117.00 204.00 C 108.46 204.27 100.74 203.34 92.00 204.00 C 83.26 204.66 76.20 202.51 67.00 204.00 C 57.80 205.49 56.49 194.81 61.00 188.00
M 244.00 224.00 
C 230.74 234.26 205.22 226.78 188.00 228.00 C 170.78 229.22 145.43 229.15 128.00 228.00 C 110.57 226.85 85.96 233.70 71.00 225.00
C 69.21 223.96 63.31 219.36 64.00 217.00
C 65.44 212.09 78.98 215.86 85.00 215.00 C 91.02 214.14 101.91 215.39 109.00 215.00 C 116.09 214.61 125.44 215.18 133.00 215.00 C 140.56 214.82 149.27 215.08 157.00 215.00 C 164.73 214.92 172.17 215.04 180.00 215.00 C 187.83 214.96 196.08 215.02 204.00 215.00 C 211.92 214.98 220.04 215.01 228.00 215.00 C 235.96 214.99 244.03 215.01 252.00 215.00
C 250.48 218.67 247.15 221.69 244.00 224.00 Z"/>
</g>
<g fill="#7882A0" fill-opacity="1.00" stroke="None">
<path d="
M 79.00 90.00 
C 106.90 86.54 135.98 92.52 164.00 90.00
C 163.75 89.75 164.00 89.00 164.00 89.00
C 149.99 89.00 134.91 88.35 121.00 89.00 C 107.09 89.65 91.92 86.80 79.00 90.00 Z"/>
</g>
<g fill="#CC8288" fill-opacity="1.00" stroke="None">
<path d="
M 164.00 90.00 
C 164.25 90.25 165.00 90.00 165.00 90.00
C 188.17 90.00 212.99 87.43 236.00 90.00
C 214.65 85.03 186.59 89.00 164.00 89.00
C 164.00 89.00 163.75 89.75 164.00 90.00 Z"/>
</g>
<g fill="#072767" fill-opacity="1.00" stroke="None">
<path d="
M 163.00 178.00 
C 163.50 178.00 164.00 178.00 164.00 178.00
C 164.35 174.07 164.00 169.94 164.00 166.00
C 164.00 165.50 164.00 165.00 164.00 165.00
C 164.00 161.33 164.00 157.67 164.00 154.00
C 164.00 153.50 164.00 153.00 164.00 153.00
C 164.00 149.00 164.00 145.00 164.00 141.00
C 164.00 140.50 164.00 140.00 164.00 140.00
C 164.00 136.33 164.00 132.67 164.00 129.00
C 164.00 128.50 164.00 128.00 164.00 128.00
C 164.00 123.67 164.00 119.33 164.00 115.00
C 164.00 114.50 164.00 114.00 164.00 114.00
C 164.00 110.33 164.00 106.67 164.00 103.00
C 164.00 98.73 163.62 94.25 164.00 90.00
C 135.98 92.52 106.90 86.54 79.00 90.00
C 45.30 102.76 65.50 149.65 60.00 178.00
C 94.33 178.01 128.67 177.99 163.00 178.00
M 77.00 98.00 
C 74.91 102.72 74.39 103.87 69.00 104.00
C 71.53 101.76 67.65 100.35 68.00 98.00
C 72.98 95.11 71.65 96.86 77.00 98.00
M 151.00 95.00 
C 151.89 98.71 154.86 98.97 153.00 104.00
C 148.85 103.57 146.99 102.72 146.00 98.00
C 148.94 99.16 148.77 95.57 151.00 95.00
M 93.00 96.00 
C 93.31 99.75 96.87 99.15 95.00 104.00
C 90.80 103.85 89.87 102.93 88.00 99.00
C 90.89 99.77 90.33 95.45 93.00 96.00
M 112.00 96.00 
C 114.95 99.63 115.18 99.39 115.00 104.00
C 110.02 103.56 110.24 103.79 108.00 100.00
C 109.62 99.04 110.71 97.27 112.00 96.00
M 135.00 98.00 
C 134.04 100.64 133.01 101.97 134.00 105.00
C 132.11 102.97 130.39 103.16 128.00 104.00
C 129.48 101.42 127.76 100.48 126.00 99.00
C 130.31 98.17 130.40 95.67 135.00 98.00
M 82.00 104.00 
C 84.95 107.63 85.18 107.39 85.00 112.00
C 82.67 110.93 80.92 111.22 79.00 113.00
C 79.79 110.05 79.65 108.52 77.00 107.00
C 79.76 107.96 80.51 105.18 82.00 104.00
M 145.00 107.00 
C 142.94 110.39 142.02 111.27 139.00 113.00
C 137.64 111.43 137.86 108.62 136.00 107.00
C 140.98 104.11 139.65 105.86 145.00 107.00
M 106.00 107.00 
C 103.97 108.89 104.16 110.61 105.00 113.00
C 103.51 111.57 100.83 109.99 100.00 113.00
C 98.64 111.43 98.86 108.62 97.00 107.00
C 101.20 106.37 101.75 105.34 106.00 107.00
M 125.00 107.00 
C 122.78 108.88 123.88 110.46 124.00 113.00
C 121.85 110.15 120.55 112.61 118.00 113.00
C 119.07 110.67 118.78 108.92 117.00 107.00
C 120.84 105.54 121.04 105.53 125.00 107.00
M 77.00 116.00 
C 75.23 118.68 74.69 121.17 72.00 121.00
C 69.42 121.17 69.85 117.36 68.00 116.00
C 72.48 113.58 72.15 114.14 77.00 116.00
M 97.00 116.00 
C 94.91 117.38 95.89 121.13 93.00 121.00
C 90.42 121.37 89.67 118.52 88.00 116.00
C 92.98 113.11 91.65 114.86 97.00 116.00
M 116.00 116.00 
C 113.80 120.97 115.04 121.73 109.00 122.00
C 107.15 116.96 110.05 116.90 111.00 113.00
C 113.14 113.82 113.02 116.94 116.00 116.00
M 132.00 121.00 
C 130.58 121.27 129.50 121.92 128.00 122.00
C 129.19 119.82 125.06 115.98 129.00 116.00
C 132.00 111.67 130.33 115.85 135.00 116.00
C 131.60 117.29 135.65 122.93 132.00 121.00
M 151.00 113.00 
C 154.25 117.12 154.04 116.74 154.00 122.00
C 148.14 122.18 149.02 120.48 146.00 116.00
C 149.22 117.05 149.64 114.75 151.00 113.00
M 86.00 125.00 
C 85.70 131.43 83.53 129.19 79.00 131.00
C 81.63 128.38 78.20 127.33 78.00 125.00
C 81.84 123.54 82.04 123.53 86.00 125.00
M 106.00 125.00 
C 103.80 130.04 105.21 130.42 99.00 131.00
C 96.83 124.96 100.86 122.37 106.00 125.00
M 124.00 131.00 
C 118.74 130.52 118.35 130.54 117.00 125.00
C 121.51 122.02 126.28 124.80 124.00 131.00
M 145.00 125.00 
C 142.80 130.04 144.21 130.42 138.00 131.00
C 135.67 125.06 139.87 122.11 145.00 125.00
M 77.00 134.00 
C 74.82 135.54 75.71 138.57 74.00 140.00
C 72.95 136.41 71.11 140.41 69.00 140.00
C 71.63 137.38 68.20 136.33 68.00 134.00
C 72.98 131.11 71.65 132.86 77.00 134.00
M 93.00 132.00 
C 94.26 135.24 96.40 135.76 95.00 140.00
C 90.80 139.85 89.87 138.93 88.00 135.00
C 90.89 135.77 90.33 131.45 93.00 132.00
M 112.00 132.00 
C 115.29 135.54 114.75 135.58 115.00 140.00
C 112.67 138.93 110.92 139.22 109.00 141.00
C 107.38 135.56 107.91 135.37 112.00 132.00
M 131.00 132.00 
C 134.29 135.54 133.75 135.58 134.00 140.00
C 129.67 139.63 127.75 139.67 126.00 135.00
C 128.76 135.96 129.51 133.18 131.00 132.00
M 155.00 135.00 
C 153.13 137.92 152.90 139.70 150.00 140.00
C 147.42 140.17 147.85 136.36 146.00 135.00
C 150.96 133.03 149.96 132.96 155.00 135.00
M 83.00 141.00 
C 85.32 144.45 84.86 144.95 85.00 149.00
C 80.80 148.85 79.87 147.93 78.00 144.00
C 80.89 144.77 80.33 140.45 83.00 141.00
M 141.00 141.00 
C 141.16 144.75 145.31 144.33 143.00 149.00
C 138.28 149.23 138.55 149.15 136.00 145.00
C 138.73 145.39 139.37 142.07 141.00 141.00
M 106.00 145.00 
C 105.65 150.74 102.57 148.43 99.00 151.00
C 99.36 146.48 98.35 145.68 101.00 142.00
C 103.14 142.82 103.02 145.94 106.00 145.00
M 124.00 150.00 
C 122.22 147.39 119.27 151.25 118.00 149.00
C 118.32 146.37 117.01 143.91 121.00 142.00
C 124.55 144.06 125.03 145.52 124.00 150.00
M 77.00 153.00 
C 74.91 154.38 75.89 158.13 73.00 158.00
C 70.42 158.37 69.67 155.52 68.00 153.00
C 72.48 150.58 72.15 151.14 77.00 153.00
M 116.00 153.00 
C 113.73 157.74 115.31 158.84 109.00 159.00
C 107.15 153.96 110.05 153.90 111.00 150.00
C 113.14 150.82 113.02 153.94 116.00 153.00
M 155.00 153.00 
C 153.26 156.47 152.04 158.38 148.00 159.00
C 146.03 153.56 147.15 154.25 150.00 150.00
C 150.99 151.95 152.00 153.82 155.00 153.00
M 97.00 153.00 
C 96.70 155.44 94.49 156.40 96.00 159.00
C 91.12 158.96 90.25 158.00 88.00 154.00
C 91.83 150.76 92.72 152.48 97.00 153.00
M 134.00 159.00 
C 132.22 156.39 129.27 160.25 128.00 158.00
C 128.00 154.53 126.87 153.07 131.00 151.00
C 136.01 153.52 132.93 154.48 134.00 159.00
M 82.00 160.00 
C 83.26 163.24 85.40 163.76 84.00 168.00
C 79.93 167.31 78.78 167.29 77.00 163.00
C 79.94 164.16 79.77 160.57 82.00 160.00
M 102.00 160.00 
C 103.81 163.11 104.37 164.23 105.00 168.00
C 101.14 166.88 98.81 168.42 98.00 164.00
C 99.62 163.04 100.71 161.27 102.00 160.00
M 121.00 160.00 
C 124.29 163.54 123.75 163.58 124.00 168.00
C 119.67 167.63 117.75 167.67 116.00 163.00
C 118.76 163.96 119.51 161.18 121.00 160.00
M 141.00 160.00 
C 142.46 163.85 143.34 163.44 143.00 168.00
C 138.95 168.20 137.83 166.79 136.00 163.00
C 138.94 164.16 138.77 160.57 141.00 160.00 Z"/>
</g>
<g fill="#8E2334" fill-opacity="1.00" stroke="None">
<path d="
M 164.00 103.00 
C 171.25 102.85 179.89 103.20 187.00 103.00 C 194.11 102.80 202.33 103.40 209.00 103.00 C 215.67 102.60 226.25 103.82 232.00 103.00 C 237.75 102.18 250.63 105.80 252.00 101.00
C 252.08 100.62 245.82 93.51 245.00 93.00
C 244.06 92.55 243.01 92.52 242.00 92.00
C 245.21 94.41 246.94 98.79 250.00 101.00
C 222.17 103.33 193.25 101.34 165.00 102.00
C 165.00 98.00 165.00 94.00 165.00 90.00
C 165.00 90.00 164.25 90.25 164.00 90.00
C 163.62 94.25 164.00 98.73 164.00 103.00 Z"/>
</g>
<g fill="#BF1E35" fill-opacity="1.00" stroke="None">
<path d="
M 242.00 92.00 
C 239.60 90.76 238.66 90.62 236.00 90.00
C 212.99 87.43 188.17 90.00 165.00 90.00
C 165.00 94.00 165.00 98.00 165.00 102.00
C 193.25 101.34 222.17 103.33 250.00 101.00
C 246.94 98.79 245.21 94.41 242.00 92.00 Z"/>
</g>
<g fill="#F8BFC4" fill-opacity="1.00" stroke="None">
<path d="
M 252.00 101.00 
C 252.60 98.92 246.69 93.80 245.00 93.00
C 245.82 93.51 252.08 100.62 252.00 101.00 Z"/>
</g>
<g fill="#CBD4E9" fill-opacity="1.00" stroke="None">
<path d="
M 77.00 98.00 
C 71.65 96.86 72.98 95.11 68.00 98.00
C 67.65 100.35 71.53 101.76 69.00 104.00
C 74.39 103.87 74.91 102.72 77.00 98.00 Z"/>
</g>
<g fill="#CCD7EB" fill-opacity="1.00" stroke="None">
<path d="
M 151.00 95.00 
C 148.77 95.57 148.94 99.16 146.00 98.00
C 146.99 102.72 148.85 103.57 153.00 104.00
C 154.86 98.97 151.89 98.71 151.00 95.00 Z"/>
</g>
<g fill="#DEE4F4" fill-opacity="1.00" stroke="None">
<path d="
M 93.00 96.00 
C 90.33 95.45 90.89 99.77 88.00 99.00
C 89.87 102.93 90.80 103.85 95.00 104.00
C 96.87 99.15 93.31 99.75 93.00 96.00 Z"/>
</g>
<g fill="#E1E7F7" fill-opacity="1.00" stroke="None">
<path d="
M 112.00 96.00 
C 110.71 97.27 109.62 99.04 108.00 100.00
C 110.24 103.79 110.02 103.56 115.00 104.00
C 115.18 99.39 114.95 99.63 112.00 96.00 Z"/>
</g>
<g fill="#D0DAEB" fill-opacity="1.00" stroke="None">
<path d="
M 135.00 98.00 
C 130.40 95.67 130.31 98.17 126.00 99.00
C 127.76 100.48 129.48 101.42 128.00 104.00
C 130.39 103.16 132.11 102.97 134.00 105.00
C 133.01 101.97 134.04 100.64 135.00 98.00 Z"/>
</g>
<g fill="#D2DAEE" fill-opacity="1.00" stroke="None">
<path d="
M 82.00 104.00 
C 80.51 105.18 79.76 107.96 77.00 107.00
C 79.65 108.52 79.79 110.05 79.00 113.00
C 80.92 111.22 82.67 110.93 85.00 112.00
C 85.18 107.39 84.95 107.63 82.00 104.00 Z"/>
</g>
<g fill="#DDE4F5" fill-opacity="1.00" stroke="None">
<path d="
M 145.00 107.00 
C 139.65 105.86 140.98 104.11 136.00 107.00
C 137.86 108.62 137.64 111.43 139.00 113.00
C 142.02 111.27 142.94 110.39 145.00 107.00 Z"/>
</g>
<g fill="#DDE5F5" fill-opacity="1.00" stroke="None">
<path d="
M 106.00 107.00 
C 101.75 105.34 101.20 106.37 97.00 107.00
C 98.86 108.62 98.64 111.43 100.00 113.00
C 100.83 109.99 103.51 111.57 105.00 113.00
C 104.16 110.61 103.97 108.89 106.00 107.00 Z"/>
</g>
<g fill="#D9E3F2" fill-opacity="1.00" stroke="None">
<path d="
M 125.00 107.00 
C 121.04 105.53 120.84 105.54 117.00 107.00
C 118.78 108.92 119.07 110.67 118.00 113.00
C 120.55 112.61 121.85 110.15 124.00 113.00
C 123.88 110.46 122.78 108.88 125.00 107.00 Z"/>
</g>
<g fill="#7E7D83" fill-opacity="0.46" stroke="None">
<path d="
M 51.00 208.00 
C 48.81 175.86 49.25 141.17 51.00 109.00
C 48.52 124.28 49.93 142.88 50.00 159.00 C 50.07 175.12 48.27 192.77 51.00 208.00 Z"/>
</g>
<g fill="#DCE6F5" fill-opacity="1.00" stroke="None">
<path d="
M 77.00 116.00 
C 72.15 114.14 72.48 113.58 68.00 116.00
C 69.85 117.36 69.42 121.17 72.00 121.00
C 74.69 121.17 75.23 118.68 77.00 116.00 Z"/>
</g>
<g fill="#DDE4F6" fill-opacity="1.00" stroke="None">
<path d="
M 97.00 116.00 
C 91.65 114.86 92.98 113.11 88.00 116.00
C 89.67 118.52 90.42 121.37 93.00 121.00
C 95.89 121.13 94.91 117.38 97.00 116.00 Z"/>
</g>
<g fill="#C4CEE4" fill-opacity="1.00" stroke="None">
<path d="
M 116.00 116.00 
C 113.02 116.94 113.14 113.82 111.00 113.00
C 110.05 116.90 107.15 116.96 109.00 122.00
C 115.04 121.73 113.80 120.97 116.00 116.00 Z"/>
</g>
<g fill="#E1E8F5" fill-opacity="1.00" stroke="None">
<path d="
M 129.00 116.00 
C 128.32 117.85 128.86 118.79 129.00 121.00
C 129.84 120.42 131.61 119.29 132.00 121.00
C 135.65 122.93 131.60 117.29 135.00 116.00
C 130.33 115.85 132.00 111.67 129.00 116.00 Z"/>
</g>
<g fill="#C6D1E4" fill-opacity="1.00" stroke="None">
<path d="
M 151.00 113.00 
C 149.64 114.75 149.22 117.05 146.00 116.00
C 149.02 120.48 148.14 122.18 154.00 122.00
C 154.04 116.74 154.25 117.12 151.00 113.00 Z"/>
</g>
<g fill="#FEEDF0" fill-opacity="1.00" stroke="None">
<path d="
M 164.00 114.00 
C 164.00 114.00 164.00 114.50 164.00 115.00
C 194.09 117.72 224.85 112.96 255.00 115.00
C 254.36 119.17 256.29 124.66 254.00 128.00
C 253.76 128.32 254.00 129.00 254.00 129.00
C 258.48 128.74 257.23 111.49 250.08 113.93 C 242.93 116.38 236.35 112.69 229.00 114.00 C 221.65 115.31 214.00 112.93 207.00 114.00 C 200.00 115.07 190.38 112.48 184.00 114.00 C 177.62 115.52 168.35 110.78 164.00 114.00 Z"/>
</g>
<g fill="#A34855" fill-opacity="1.00" stroke="None">
<path d="
M 164.00 128.00 
C 164.25 127.75 165.00 128.00 165.00 128.00
C 165.36 124.03 164.73 119.98 165.00 116.00
C 194.67 116.00 224.33 116.00 254.00 116.00
C 254.00 120.00 254.00 124.00 254.00 128.00
C 256.29 124.66 254.36 119.17 255.00 115.00
C 224.85 112.96 194.09 117.72 164.00 115.00
C 164.00 119.33 164.00 123.67 164.00 128.00 Z"/>
</g>
<g fill="#8C9EC1" fill-opacity="1.00" stroke="None">
<path d="
M 132.00 121.00 
C 131.61 119.29 129.84 120.42 129.00 121.00
C 128.86 118.79 128.32 117.85 129.00 116.00
C 125.06 115.98 129.19 119.82 128.00 122.00
C 129.50 121.92 130.58 121.27 132.00 121.00 Z"/>
</g>
<g fill="#BC1F34" fill-opacity="1.00" stroke="None">
<path d="
M 165.00 128.00 
C 194.26 127.99 224.88 125.37 254.00 128.00
C 254.00 124.00 254.00 120.00 254.00 116.00
C 224.33 116.00 194.67 116.00 165.00 116.00
C 164.73 119.98 165.36 124.03 165.00 128.00 Z"/>
</g>
<g fill="#D1DCF1" fill-opacity="1.00" stroke="None">
<path d="
M 86.00 125.00 
C 82.04 123.53 81.84 123.54 78.00 125.00
C 78.20 127.33 81.63 128.38 79.00 131.00
C 83.53 129.19 85.70 131.43 86.00 125.00 Z"/>
</g>
<g fill="#D1DBF0" fill-opacity="1.00" stroke="None">
<path d="
M 106.00 125.00 
C 100.86 122.37 96.83 124.96 99.00 131.00
C 105.21 130.42 103.80 130.04 106.00 125.00 Z"/>
</g>
<g fill="#CFD8EC" fill-opacity="1.00" stroke="None">
<path d="
M 124.00 131.00 
C 126.28 124.80 121.51 122.02 117.00 125.00
C 118.35 130.54 118.74 130.52 124.00 131.00 Z"/>
</g>
<g fill="#D4DBEE" fill-opacity="1.00" stroke="None">
<path d="
M 145.00 125.00 
C 139.87 122.11 135.67 125.06 138.00 131.00
C 144.21 130.42 142.80 130.04 145.00 125.00 Z"/>
</g>
<g fill="#F2B7BF" fill-opacity="1.00" stroke="None">
<path d="
M 164.00 129.00 
C 164.25 129.25 165.00 129.00 165.00 129.00
C 194.26 129.00 224.88 131.63 254.00 129.00
C 254.00 129.00 253.76 128.32 254.00 128.00
C 224.88 125.37 194.26 127.99 165.00 128.00
C 165.00 128.00 164.25 127.75 164.00 128.00
C 164.00 128.00 164.00 128.50 164.00 129.00 Z"/>
</g>
<g fill="#CFD5E9" fill-opacity="1.00" stroke="None">
<path d="
M 164.00 140.00 
C 164.25 139.75 165.00 140.00 165.00 140.00
C 165.31 136.53 165.31 132.47 165.00 129.00
C 165.00 129.00 164.25 129.25 164.00 129.00
C 164.00 132.67 164.00 136.33 164.00 140.00 Z"/>
</g>
<g fill="#C4D0E7" fill-opacity="1.00" stroke="None">
<path d="
M 77.00 134.00 
C 71.65 132.86 72.98 131.11 68.00 134.00
C 68.20 136.33 71.63 137.38 69.00 140.00
C 71.11 140.41 72.95 136.41 74.00 140.00
C 75.71 138.57 74.82 135.54 77.00 134.00 Z"/>
</g>
<g fill="#D8DFEF" fill-opacity="1.00" stroke="None">
<path d="
M 93.00 132.00 
C 90.33 131.45 90.89 135.77 88.00 135.00
C 89.87 138.93 90.80 139.85 95.00 140.00
C 96.40 135.76 94.26 135.24 93.00 132.00 Z"/>
</g>
<g fill="#D2DAEE" fill-opacity="1.00" stroke="None">
<path d="
M 112.00 132.00 
C 107.91 135.37 107.38 135.56 109.00 141.00
C 110.92 139.22 112.67 138.93 115.00 140.00
C 114.75 135.58 115.29 135.54 112.00 132.00 Z"/>
</g>
<g fill="#D5DDEE" fill-opacity="1.00" stroke="None">
<path d="
M 131.00 132.00 
C 129.51 133.18 128.76 135.96 126.00 135.00
C 127.75 139.67 129.67 139.63 134.00 140.00
C 133.75 135.58 134.29 135.54 131.00 132.00 Z"/>
</g>
<g fill="#DCE3F2" fill-opacity="1.00" stroke="None">
<path d="
M 155.00 135.00 
C 149.96 132.96 150.96 133.03 146.00 135.00
C 147.85 136.36 147.42 140.17 150.00 140.00
C 152.90 139.70 153.13 137.92 155.00 135.00 Z"/>
</g>
<g fill="#FEB7C2" fill-opacity="1.00" stroke="None">
<path d="
M 164.00 141.00 
C 193.45 143.66 224.41 141.00 254.00 141.00
C 254.50 141.00 255.00 141.00 255.00 141.00
C 250.85 136.69 239.35 141.28 233.00 140.00 C 226.65 138.72 217.01 140.56 210.00 140.00 C 202.99 139.44 194.22 140.23 187.00 140.00 C 179.78 139.77 172.25 140.00 165.00 140.00
C 165.00 140.00 164.25 139.75 164.00 140.00
C 164.00 140.00 164.00 140.50 164.00 141.00 Z"/>
</g>
<g fill="#D5DFF1" fill-opacity="1.00" stroke="None">
<path d="
M 83.00 141.00 
C 80.33 140.45 80.89 144.77 78.00 144.00
C 79.87 147.93 80.80 148.85 85.00 149.00
C 84.86 144.95 85.32 144.45 83.00 141.00 Z"/>
</g>
<g fill="#DAE2F3" fill-opacity="1.00" stroke="None">
<path d="
M 141.00 141.00 
C 139.37 142.07 138.73 145.39 136.00 145.00
C 138.55 149.15 138.28 149.23 143.00 149.00
C 145.31 144.33 141.16 144.75 141.00 141.00 Z"/>
</g>
<g fill="#992033" fill-opacity="1.00" stroke="None">
<path d="
M 164.00 153.00 
C 193.45 150.33 224.41 153.00 254.00 153.00
C 253.66 149.22 253.66 144.78 254.00 141.00
C 224.41 141.00 193.45 143.66 164.00 141.00
C 164.00 145.00 164.00 149.00 164.00 153.00
M 253.00 152.00 
C 242.55 151.78 231.37 152.30 221.00 152.00 C 210.63 151.70 198.01 152.56 188.00 152.00 C 177.99 151.44 161.78 156.70 165.00 142.00
C 175.45 142.22 186.63 141.70 197.00 142.00 C 207.37 142.30 219.99 141.44 230.00 142.00 C 240.01 142.56 256.22 137.30 253.00 152.00 Z"/>
</g>
<g fill="#A9535B" fill-opacity="1.00" stroke="None">
<path d="
M 254.00 153.00 
C 254.50 153.00 255.00 153.00 255.00 153.00
C 255.34 149.22 255.34 144.78 255.00 141.00
C 255.00 141.00 254.50 141.00 254.00 141.00
C 253.66 144.78 253.66 149.22 254.00 153.00 Z"/>
</g>
<g fill="#CED8EC" fill-opacity="1.00" stroke="None">
<path d="
M 106.00 145.00 
C 103.02 145.94 103.14 142.82 101.00 142.00
C 98.35 145.68 99.36 146.48 99.00 151.00
C 102.57 148.43 105.65 150.74 106.00 145.00 Z"/>
</g>
<g fill="#CCD6E9" fill-opacity="1.00" stroke="None">
<path d="
M 124.00 150.00 
C 125.03 145.52 124.55 144.06 121.00 142.00
C 117.01 143.91 118.32 146.37 118.00 149.00
C 119.27 151.25 122.22 147.39 124.00 150.00 Z"/>
</g>
<g fill="#BE1F35" fill-opacity="1.00" stroke="None">
<path d="
M 253.00 152.00 
C 256.22 137.30 240.01 142.56 230.00 142.00 C 219.99 141.44 207.37 142.30 197.00 142.00 C 186.63 141.70 175.45 142.22 165.00 142.00
C 161.78 156.70 177.99 151.44 188.00 152.00 C 198.01 152.56 210.63 151.70 221.00 152.00 C 231.37 152.30 242.55 151.78 253.00 152.00 Z"/>
</g>
<g fill="#D3DBED" fill-opacity="1.00" stroke="None">
<path d="
M 77.00 153.00 
C 72.15 151.14 72.48 150.58 68.00 153.00
C 69.67 155.52 70.42 158.37 73.00 158.00
C 75.89 158.13 74.91 154.38 77.00 153.00 Z"/>
</g>
<g fill="#C7D0E7" fill-opacity="1.00" stroke="None">
<path d="
M 116.00 153.00 
C 113.02 153.94 113.14 150.82 111.00 150.00
C 110.05 153.90 107.15 153.96 109.00 159.00
C 115.31 158.84 113.73 157.74 116.00 153.00 Z"/>
</g>
<g fill="#D4DDEE" fill-opacity="1.00" stroke="None">
<path d="
M 155.00 153.00 
C 152.00 153.82 150.99 151.95 150.00 150.00
C 147.15 154.25 146.03 153.56 148.00 159.00
C 152.04 158.38 153.26 156.47 155.00 153.00 Z"/>
</g>
<g fill="#C5D0E5" fill-opacity="1.00" stroke="None">
<path d="
M 97.00 153.00 
C 92.72 152.48 91.83 150.76 88.00 154.00
C 90.25 158.00 91.12 158.96 96.00 159.00
C 94.49 156.40 96.70 155.44 97.00 153.00 Z"/>
</g>
<g fill="#C9D5EB" fill-opacity="1.00" stroke="None">
<path d="
M 134.00 159.00 
C 132.93 154.48 136.01 153.52 131.00 151.00
C 126.87 153.07 128.00 154.53 128.00 158.00
C 129.27 160.25 132.22 156.39 134.00 159.00 Z"/>
</g>
<g fill="#FEAEB9" fill-opacity="1.00" stroke="None">
<path d="
M 164.00 154.00 
C 171.35 154.66 179.69 153.91 187.00 154.00 C 194.31 154.09 202.96 154.43 210.00 154.00 C 217.04 153.57 226.66 155.23 233.00 154.00 C 239.34 152.77 250.85 157.32 255.00 153.00
C 255.00 153.00 254.50 153.00 254.00 153.00
C 224.41 153.00 193.45 150.33 164.00 153.00
C 164.00 153.00 164.00 153.50 164.00 154.00 Z"/>
</g>
<g fill="#D7E3F3" fill-opacity="1.00" stroke="None">
<path d="
M 82.00 160.00 
C 79.77 160.57 79.94 164.16 77.00 163.00
C 78.78 167.29 79.93 167.31 84.00 168.00
C 85.40 163.76 83.26 163.24 82.00 160.00 Z"/>
</g>
<g fill="#D9E3F2" fill-opacity="1.00" stroke="None">
<path d="
M 102.00 160.00 
C 100.71 161.27 99.62 163.04 98.00 164.00
C 98.81 168.42 101.14 166.88 105.00 168.00
C 104.37 164.23 103.81 163.11 102.00 160.00 Z"/>
</g>
<g fill="#D0DBEC" fill-opacity="1.00" stroke="None">
<path d="
M 121.00 160.00 
C 119.51 161.18 118.76 163.96 116.00 163.00
C 117.75 167.67 119.67 167.63 124.00 168.00
C 123.75 163.58 124.29 163.54 121.00 160.00 Z"/>
</g>
<g fill="#E2ECF8" fill-opacity="1.00" stroke="None">
<path d="
M 141.00 160.00 
C 138.77 160.57 138.94 164.16 136.00 163.00
C 137.83 166.79 138.95 168.20 143.00 168.00
C 143.34 163.44 142.46 163.85 141.00 160.00 Z"/>
</g>
<g fill="#B7616D" fill-opacity="1.00" stroke="None">
<path d="
M 164.00 166.00 
C 164.25 166.25 165.00 166.00 165.00 166.00
C 194.67 166.00 224.33 166.00 254.00 166.00
C 254.00 170.00 254.00 174.00 254.00 178.00
C 256.29 174.66 254.36 169.17 255.00 165.00
C 224.85 167.04 194.09 162.29 164.00 165.00
C 164.00 165.00 164.00 165.50 164.00 166.00 Z"/>
</g>
<g fill="#922A4D" fill-opacity="1.00" stroke="None">
<path d="
M 164.00 178.00 
C 164.50 178.00 165.50 178.00 166.00 178.00
C 166.32 175.27 165.29 169.19 165.00 166.00
C 165.00 166.00 164.25 166.25 164.00 166.00
C 164.00 169.94 164.35 174.07 164.00 178.00 Z"/>
</g>
<g fill="#BC1D33" fill-opacity="1.00" stroke="None">
<path d="
M 166.00 178.00 
C 195.33 178.00 224.67 178.00 254.00 178.00
C 254.00 174.00 254.00 170.00 254.00 166.00
C 224.33 166.00 194.67 166.00 165.00 166.00
C 165.29 169.19 166.32 175.27 166.00 178.00 Z"/>
</g>
<g fill="#F3BAC3" fill-opacity="1.00" stroke="None">
<path d="
M 254.00 178.00 
C 224.67 178.00 195.33 178.00 166.00 178.00
C 165.50 178.00 164.50 178.00 164.00 178.00
C 164.00 178.00 163.50 178.00 163.00 178.00
C 169.65 178.64 178.64 179.57 186.00 179.00 C 193.36 178.43 201.91 179.72 209.00 179.00 C 216.09 178.28 225.56 180.35 232.00 179.00 C 238.44 177.65 249.65 182.35 254.00 178.00 Z"/>
</g>
<g fill="#FFECF2" fill-opacity="1.00" stroke="None">
<path d="
M 61.00 188.00 
C 56.49 194.81 57.80 205.49 67.00 204.00 C 76.20 202.51 83.26 204.66 92.00 204.00 C 100.74 203.34 108.46 204.27 117.00 204.00 C 125.54 203.73 133.52 204.05 142.00 204.00 C 150.48 203.95 158.49 203.87 167.00 204.00 C 175.51 204.13 184.47 203.62 193.00 204.00 C 201.53 204.38 209.42 203.07 218.00 204.00 C 226.58 204.93 234.20 201.90 243.00 204.00 C 251.80 206.10 259.47 200.70 255.97 192.03 C 252.47 183.36 243.66 190.83 236.00 189.00 C 228.34 187.17 219.12 189.80 211.00 189.00 C 202.88 188.20 193.28 189.39 185.00 189.00 C 176.72 188.61 168.30 189.19 160.00 189.00 C 151.70 188.81 143.29 189.13 135.00 189.00 C 126.71 188.87 118.26 189.14 110.00 189.00 C 101.74 188.86 93.17 189.26 85.00 189.00 C 76.83 188.74 68.69 189.99 61.00 188.00
M 254.00 203.00 
C 246.37 206.39 235.54 201.53 227.00 203.00 C 218.47 204.47 207.94 202.33 199.00 203.00 C 190.06 203.67 180.08 202.69 171.00 203.00 C 161.92 203.31 153.18 202.86 144.00 203.00 C 134.82 203.14 125.26 202.94 116.00 203.00 C 106.74 203.06 97.30 202.97 88.00 203.00 C 78.70 203.03 69.30 202.98 60.00 203.00
C 60.00 198.67 60.00 194.33 60.00 190.00
C 124.67 190.00 189.33 190.00 254.00 190.00
C 255.32 191.27 256.22 202.36 254.00 203.00 Z"/>
</g>
<g fill="#921F2E" fill-opacity="1.00" stroke="None">
<path d="
M 254.00 203.00 
C 254.19 202.92 254.00 201.50 254.00 201.00
C 238.97 199.25 222.80 203.41 207.00 202.00 C 191.20 200.59 174.00 202.67 158.00 202.00 C 142.00 201.33 126.11 202.34 110.00 202.00 C 93.89 201.66 77.16 202.26 61.00 202.00
C 61.00 198.33 61.00 194.67 61.00 191.00
C 125.33 191.00 189.67 191.00 254.00 191.00
C 254.00 190.50 254.00 190.00 254.00 190.00
C 189.33 190.00 124.67 190.00 60.00 190.00
C 60.00 194.33 60.00 198.67 60.00 203.00
C 69.30 202.98 78.70 203.03 88.00 203.00 C 97.30 202.97 106.74 203.06 116.00 203.00 C 125.26 202.94 134.82 203.14 144.00 203.00 C 153.18 202.86 161.92 203.31 171.00 203.00 C 180.08 202.69 190.06 203.67 199.00 203.00 C 207.94 202.33 218.47 204.47 227.00 203.00 C 235.54 201.53 246.37 206.39 254.00 203.00 Z"/>
</g>
<g fill="#A6565D" fill-opacity="1.00" stroke="None">
<path d="
M 254.00 191.00 
C 254.00 194.33 254.00 197.67 254.00 201.00
C 254.00 201.50 254.19 202.92 254.00 203.00
C 256.22 202.36 255.32 191.27 254.00 190.00
C 254.00 190.00 254.00 190.50 254.00 191.00 Z"/>
</g>
<g fill="#BE1E34" fill-opacity="1.00" stroke="None">
<path d="
M 254.00 201.00 
C 254.00 197.67 254.00 194.33 254.00 191.00
C 189.67 191.00 125.33 191.00 61.00 191.00
C 61.00 194.67 61.00 198.33 61.00 202.00
C 77.16 202.26 93.89 201.66 110.00 202.00 C 126.11 202.34 142.00 201.33 158.00 202.00 C 174.00 202.67 191.20 200.59 207.00 202.00 C 222.80 203.41 238.97 199.25 254.00 201.00 Z"/>
</g>
<g fill="#A03E49" fill-opacity="1.00" stroke="None">
<path d="
M 64.00 217.00 
C 63.77 218.07 67.37 220.30 68.00 221.00
C 67.52 220.21 67.08 219.09 66.00 219.00
C 72.24 213.10 84.29 216.70 94.00 216.00 C 103.71 215.30 114.94 216.32 125.00 216.00 C 135.06 215.68 145.77 216.14 156.00 216.00 C 166.23 215.86 176.66 216.07 187.00 216.00 C 197.34 215.93 207.56 216.03 218.00 216.00 C 228.44 215.97 239.50 216.03 250.00 216.00
C 249.10 219.37 245.62 221.11 244.00 224.00
C 247.15 221.69 250.48 218.67 252.00 215.00
C 244.03 215.01 235.96 214.99 228.00 215.00 C 220.04 215.01 211.92 214.98 204.00 215.00 C 196.08 215.02 187.83 214.96 180.00 215.00 C 172.17 215.04 164.73 214.92 157.00 215.00 C 149.27 215.08 140.56 214.82 133.00 215.00 C 125.44 215.18 116.09 214.61 109.00 215.00 C 101.91 215.39 91.02 214.14 85.00 215.00 C 78.98 215.86 65.44 212.09 64.00 217.00 Z"/>
</g>
<g fill="#BC2237" fill-opacity="1.00" stroke="None">
<path d="
M 68.00 221.00 
C 68.94 222.04 69.94 224.23 71.00 225.00
C 85.96 233.70 110.57 226.85 128.00 228.00 C 145.43 229.15 170.78 229.22 188.00 228.00 C 205.22 226.78 230.74 234.26 244.00 224.00
C 245.62 221.11 249.10 219.37 250.00 216.00
C 239.50 216.03 228.44 215.97 218.00 216.00 C 207.56 216.03 197.34 215.93 187.00 216.00 C 176.66 216.07 166.23 215.86 156.00 216.00 C 145.77 216.14 135.06 215.68 125.00 216.00 C 114.94 216.32 103.71 215.30 94.00 216.00 C 84.29 216.70 72.24 213.10 66.00 219.00
C 67.08 219.09 67.52 220.21 68.00 221.00 Z"/>
</g>
<g fill="#F2B7BC" fill-opacity="1.00" stroke="None">
<path d="
M 71.00 225.00 
C 69.94 224.23 68.94 222.04 68.00 221.00
C 67.37 220.30 63.77 218.07 64.00 217.00
C 63.31 219.36 69.21 223.96 71.00 225.00 Z"/>
</g>
</svg>