<svg xmlns="http://www.w3.org/2000/svg" xmlns:v="https://svgstorm.com"
viewBox = "0 0 260 260"
width="260"
height="260">
<g fill="None" fill-opacity="0.0" stroke="#000000" stroke-opacity="0.00" stroke-width="0.3"><path d="
M 0.00 260.00 
L 260.00 260.00
L 260.00 0.00
L 0.00 0.00
L 0.00 260.00
M 102.00 71.00 
C 106.47 62.02 115.39 53.47 115.92 42.92 C 116.46 32.38 121.30 14.82 132.69 22.31 C 144.09 29.79 147.27 34.34 156.25 41.75 C 165.22 49.16 169.50 55.21 176.30 63.70 C 183.10 72.19 188.83 79.28 194.25 88.75 C 199.68 98.21 204.21 106.72 207.92 117.08 C 211.64 127.43 214.62 141.59 214.00 153.00 C 213.38 164.41 209.88 177.25 205.07 187.07 C 200.27 196.90 195.37 203.97 187.75 211.75 C 180.13 219.53 171.64 224.27 161.78 228.78 C 151.91 233.28 137.39 235.60 126.00 235.00 C 114.61 234.40 101.95 230.97 92.31 225.69 C 82.66 220.42 76.07 214.96 69.08 206.92 C 62.10 198.88 57.33 191.14 53.08 180.92 C 48.82 170.71 47.06 154.44 48.00 143.00 C 48.94 131.56 53.01 119.47 56.32 109.32 C 59.64 99.17 63.89 85.16 65.93 75.93 C 67.97 66.70 67.66 48.25 78.22 51.78 C 88.79 55.30 92.20 66.56 102.00 71.00 Z"/>
</g>
<g fill="None" fill-opacity="0.0" stroke="#283845" stroke-opacity="0.98" stroke-width="0.3"><path d="
M 102.00 71.00 
C 92.20 66.56 88.79 55.30 78.22 51.78 C 67.66 48.25 67.97 66.70 65.93 75.93 C 63.89 85.16 59.64 99.17 56.32 109.32 C 53.01 119.47 48.94 131.56 48.00 143.00 C 47.06 154.44 48.82 170.71 53.08 180.92 C 57.33 191.14 62.10 198.88 69.08 206.92 C 76.07 214.96 82.66 220.42 92.31 225.69 C 101.95 230.97 114.61 234.40 126.00 235.00 C 137.39 235.60 151.91 233.28 161.78 228.78 C 171.64 224.27 180.13 219.53 187.75 211.75 C 195.37 203.97 200.27 196.90 205.07 187.07 C 209.88 177.25 213.38 164.41 214.00 153.00 C 214.62 141.59 211.64 127.43 207.92 117.08 C 204.21 106.72 199.68 98.21 194.25 88.75 C 188.83 79.28 183.10 72.19 176.30 63.70 C 169.50 55.21 165.22 49.16 156.25 41.75 C 147.27 34.34 144.09 29.79 132.69 22.31 C 121.30 14.82 116.46 32.38 115.92 42.92 C 115.39 53.47 106.47 62.02 102.00 71.00
M 132.00 118.00 
C 140.41 117.29 146.47 126.14 151.30 132.70 C 156.14 139.26 160.32 148.97 161.33 157.67 C 162.34 166.37 159.98 176.94 154.23 184.23 C 148.48 191.52 138.77 195.12 130.00 195.00 C 121.23 194.88 114.91 189.96 109.08 183.92 C 103.26 177.88 100.52 166.05 102.00 158.00 C 103.48 149.95 107.81 139.07 113.30 134.30 C 118.80 129.54 125.10 118.58 132.00 118.00 Z"/>
</g>
<g fill="None" fill-opacity="0.0" stroke="#000000" stroke-opacity="0.00" stroke-width="0.3"><path d="
M 132.00 118.00 
C 125.10 118.58 118.80 129.54 113.30 134.30 C 107.81 139.07 103.48 149.95 102.00 158.00 C 100.52 166.05 103.26 177.88 109.08 183.92 C 114.91 189.96 121.23 194.88 130.00 195.00 C 138.77 195.12 148.48 191.52 154.23 184.23 C 159.98 176.94 162.34 166.37 161.33 157.67 C 160.32 148.97 156.14 139.26 151.30 132.70 C 146.47 126.14 140.41 117.29 132.00 118.00 Z"/>
</g>
<g fill="#000000" fill-opacity="0.00" stroke="None">
<path d="
M 0.00 260.00 
L 260.00 260.00
L 260.00 0.00
L 0.00 0.00
L 0.00 260.00
M 102.00 71.00 
C 106.47 62.02 115.39 53.47 115.92 42.92 C 116.46 32.38 121.30 14.82 132.69 22.31 C 144.09 29.79 147.27 34.34 156.25 41.75 C 165.22 49.16 169.50 55.21 176.30 63.70 C 183.10 72.19 188.83 79.28 194.25 88.75 C 199.68 98.21 204.21 106.72 207.92 117.08 C 211.64 127.43 214.62 141.59 214.00 153.00 C 213.38 164.41 209.88 177.25 205.07 187.07 C 200.27 196.90 195.37 203.97 187.75 211.75 C 180.13 219.53 171.64 224.27 161.78 228.78 C 151.91 233.28 137.39 235.60 126.00 235.00 C 114.61 234.40 101.95 230.97 92.31 225.69 C 82.66 220.42 76.07 214.96 69.08 206.92 C 62.10 198.88 57.33 191.14 53.08 180.92 C 48.82 170.71 47.06 154.44 48.00 143.00 C 48.94 131.56 53.01 119.47 56.32 109.32 C 59.64 99.17 63.89 85.16 65.93 75.93 C 67.97 66.70 67.66 48.25 78.22 51.78 C 88.79 55.30 92.20 66.56 102.00 71.00 Z"/>
</g>
<g fill="#283845" fill-opacity="0.98" stroke="None">
<path d="
M 102.00 71.00 
C 92.20 66.56 88.79 55.30 78.22 51.78 C 67.66 48.25 67.97 66.70 65.93 75.93 C 63.89 85.16 59.64 99.17 56.32 109.32 C 53.01 119.47 48.94 131.56 48.00 143.00 C 47.06 154.44 48.82 170.71 53.08 180.92 C 57.33 191.14 62.10 198.88 69.08 206.92 C 76.07 214.96 82.66 220.42 92.31 225.69 C 101.95 230.97 114.61 234.40 126.00 235.00 C 137.39 235.60 151.91 233.28 161.78 228.78 C 171.64 224.27 180.13 219.53 187.75 211.75 C 195.37 203.97 200.27 196.90 205.07 187.07 C 209.88 177.25 213.38 164.41 214.00 153.00 C 214.62 141.59 211.64 127.43 207.92 117.08 C 204.21 106.72 199.68 98.21 194.25 88.75 C 188.83 79.28 183.10 72.19 176.30 63.70 C 169.50 55.21 165.22 49.16 156.25 41.75 C 147.27 34.34 144.09 29.79 132.69 22.31 C 121.30 14.82 116.46 32.38 115.92 42.92 C 115.39 53.47 106.47 62.02 102.00 71.00
M 132.00 118.00 
C 140.41 117.29 146.47 126.14 151.30 132.70 C 156.14 139.26 160.32 148.97 161.33 157.67 C 162.34 166.37 159.98 176.94 154.23 184.23 C 148.48 191.52 138.77 195.12 130.00 195.00 C 121.23 194.88 114.91 189.96 109.08 183.92 C 103.26 177.88 100.52 166.05 102.00 158.00 C 103.48 149.95 107.81 139.07 113.30 134.30 C 118.80 129.54 125.10 118.58 132.00 118.00 Z"/>
</g>
<g fill="#000000" fill-opacity="0.00" stroke="None">
<path d="
M 132.00 118.00 
C 125.10 118.58 118.80 129.54 113.30 134.30 C 107.81 139.07 103.48 149.95 102.00 158.00 C 100.52 166.05 103.26 177.88 109.08 183.92 C 114.91 189.96 121.23 194.88 130.00 195.00 C 138.77 195.12 148.48 191.52 154.23 184.23 C 159.98 176.94 162.34 166.37 161.33 157.67 C 160.32 148.97 156.14 139.26 151.30 132.70 C 146.47 126.14 140.41 117.29 132.00 118.00 Z"/>
</g>
</svg>