<svg xmlns="http://www.w3.org/2000/svg" xmlns:v="https://svgstorm.com"
viewBox = "0 0 228 228"
width="228"
height="228">
<g fill="None" fill-opacity="0.0" stroke="#000000" stroke-opacity="0.00" stroke-width="0.3"><path d="
M 0.00 228.00 
L 228.00 228.00
L 228.00 0.00
L 0.00 0.00
L 0.00 228.00
M 121.00 213.00 
C 117.66 213.48 114.26 213.39 111.00 213.00
C 98.29 212.75 84.68 208.55 74.30 201.70 C 63.93 194.84 56.76 186.99 50.75 176.25 C 44.74 165.52 41.17 148.91 42.33 136.33 C 43.49 123.75 47.89 109.72 52.93 98.93 C 57.96 88.13 65.38 77.50 71.30 68.30 C 77.23 59.11 86.22 47.88 92.75 40.75 C 99.28 33.62 110.94 15.80 119.25 23.75 C 127.56 31.71 122.71 54.81 126.98 64.02 C 131.24 73.24 136.38 95.75 149.70 83.70 C 163.02 71.65 169.69 81.28 174.92 94.08 C 180.16 106.87 183.78 118.11 185.33 131.67 C 186.88 145.23 184.71 161.43 179.07 173.07 C 173.44 184.72 167.41 192.44 157.25 200.25 C 147.09 208.05 133.90 212.51 121.00 213.00 Z"/>
</g>
<g fill="None" fill-opacity="0.0" stroke="#F53C25" stroke-opacity="0.99" stroke-width="0.3"><path d="
M 111.00 213.00 
C 114.31 213.07 117.69 213.13 121.00 213.00
C 133.90 212.51 147.09 208.05 157.25 200.25 C 167.41 192.44 173.44 184.72 179.07 173.07 C 184.71 161.43 186.88 145.23 185.33 131.67 C 183.78 118.11 180.16 106.87 174.92 94.08 C 169.69 81.28 163.02 71.65 149.70 83.70 C 136.38 95.75 131.24 73.24 126.98 64.02 C 122.71 54.81 127.56 31.71 119.25 23.75 C 110.94 15.80 99.28 33.62 92.75 40.75 C 86.22 47.88 77.23 59.11 71.30 68.30 C 65.38 77.50 57.96 88.13 52.93 98.93 C 47.89 109.72 43.49 123.75 42.33 136.33 C 41.17 148.91 44.74 165.52 50.75 176.25 C 56.76 186.99 63.93 194.84 74.30 201.70 C 84.68 208.55 98.29 212.75 111.00 213.00
M 114.00 114.00 
C 121.42 116.09 124.46 127.38 130.25 132.75 C 136.03 138.13 138.90 147.30 143.31 154.69 C 147.71 162.09 146.65 176.20 143.23 184.23 C 139.81 192.26 134.58 198.70 125.92 201.92 C 117.27 205.15 104.56 205.05 96.31 200.69 C 88.05 196.34 83.56 190.12 80.08 181.92 C 76.59 173.73 77.20 159.56 80.93 151.93 C 84.66 144.29 88.93 136.00 93.92 129.92 C 98.91 123.84 104.59 111.35 114.00 114.00 Z"/>
</g>
<g fill="None" fill-opacity="0.0" stroke="#FEAF04" stroke-opacity="1.00" stroke-width="0.3"><path d="
M 114.00 114.00 
C 104.59 111.35 98.91 123.84 93.92 129.92 C 88.93 136.00 84.66 144.29 80.93 151.93 C 77.20 159.56 76.59 173.73 80.08 181.92 C 83.56 190.12 88.05 196.34 96.31 200.69 C 104.56 205.05 117.27 205.15 125.92 201.92 C 134.58 198.70 139.81 192.26 143.23 184.23 C 146.65 176.20 147.71 162.09 143.31 154.69 C 138.90 147.30 136.03 138.13 130.25 132.75 C 124.46 127.38 121.42 116.09 114.00 114.00 Z"/>
</g>
<g fill="None" fill-opacity="0.0" stroke="#731810" stroke-opacity="0.18" stroke-width="0.3"><path d="
M 121.00 213.00 
C 117.69 213.13 114.31 213.07 111.00 213.00
C 114.26 213.39 117.66 213.48 121.00 213.00 Z"/>
</g>
<g fill="#000000" fill-opacity="0.00" stroke="None">
<path d="
M 0.00 228.00 
L 228.00 228.00
L 228.00 0.00
L 0.00 0.00
L 0.00 228.00
M 121.00 213.00 
C 117.66 213.48 114.26 213.39 111.00 213.00
C 98.29 212.75 84.68 208.55 74.30 201.70 C 63.93 194.84 56.76 186.99 50.75 176.25 C 44.74 165.52 41.17 148.91 42.33 136.33 C 43.49 123.75 47.89 109.72 52.93 98.93 C 57.96 88.13 65.38 77.50 71.30 68.30 C 77.23 59.11 86.22 47.88 92.75 40.75 C 99.28 33.62 110.94 15.80 119.25 23.75 C 127.56 31.71 122.71 54.81 126.98 64.02 C 131.24 73.24 136.38 95.75 149.70 83.70 C 163.02 71.65 169.69 81.28 174.92 94.08 C 180.16 106.87 183.78 118.11 185.33 131.67 C 186.88 145.23 184.71 161.43 179.07 173.07 C 173.44 184.72 167.41 192.44 157.25 200.25 C 147.09 208.05 133.90 212.51 121.00 213.00 Z"/>
</g>
<g fill="#F53C25" fill-opacity="0.99" stroke="None">
<path d="
M 111.00 213.00 
C 114.31 213.07 117.69 213.13 121.00 213.00
C 133.90 212.51 147.09 208.05 157.25 200.25 C 167.41 192.44 173.44 184.72 179.07 173.07 C 184.71 161.43 186.88 145.23 185.33 131.67 C 183.78 118.11 180.16 106.87 174.92 94.08 C 169.69 81.28 163.02 71.65 149.70 83.70 C 136.38 95.75 131.24 73.24 126.98 64.02 C 122.71 54.81 127.56 31.71 119.25 23.75 C 110.94 15.80 99.28 33.62 92.75 40.75 C 86.22 47.88 77.23 59.11 71.30 68.30 C 65.38 77.50 57.96 88.13 52.93 98.93 C 47.89 109.72 43.49 123.75 42.33 136.33 C 41.17 148.91 44.74 165.52 50.75 176.25 C 56.76 186.99 63.93 194.84 74.30 201.70 C 84.68 208.55 98.29 212.75 111.00 213.00
M 114.00 114.00 
C 121.42 116.09 124.46 127.38 130.25 132.75 C 136.03 138.13 138.90 147.30 143.31 154.69 C 147.71 162.09 146.65 176.20 143.23 184.23 C 139.81 192.26 134.58 198.70 125.92 201.92 C 117.27 205.15 104.56 205.05 96.31 200.69 C 88.05 196.34 83.56 190.12 80.08 181.92 C 76.59 173.73 77.20 159.56 80.93 151.93 C 84.66 144.29 88.93 136.00 93.92 129.92 C 98.91 123.84 104.59 111.35 114.00 114.00 Z"/>
</g>
<g fill="#FEAF04" fill-opacity="1.00" stroke="None">
<path d="
M 114.00 114.00 
C 104.59 111.35 98.91 123.84 93.92 129.92 C 88.93 136.00 84.66 144.29 80.93 151.93 C 77.20 159.56 76.59 173.73 80.08 181.92 C 83.56 190.12 88.05 196.34 96.31 200.69 C 104.56 205.05 117.27 205.15 125.92 201.92 C 134.58 198.70 139.81 192.26 143.23 184.23 C 146.65 176.20 147.71 162.09 143.31 154.69 C 138.90 147.30 136.03 138.13 130.25 132.75 C 124.46 127.38 121.42 116.09 114.00 114.00 Z"/>
</g>
<g fill="#731810" fill-opacity="0.18" stroke="None">
<path d="
M 121.00 213.00 
C 117.69 213.13 114.31 213.07 111.00 213.00
C 114.26 213.39 117.66 213.48 121.00 213.00 Z"/>
</g>
</svg>