<svg xmlns="http://www.w3.org/2000/svg" xmlns:v="https://svgstorm.com"
viewBox = "0 0 316 316"
width="316"
height="316">
<g fill="None" fill-opacity="0.0" stroke="#000000" stroke-opacity="0.00" stroke-width="0.3"><path d="
M 0.00 316.00 
L 316.00 316.00
L 316.00 0.00
L 0.00 0.00
L 0.00 316.00
M 159.00 96.00 
C 169.26 86.18 179.13 79.04 193.07 76.07 C 207.01 73.11 224.30 76.68 235.75 85.25 C 247.19 93.83 253.68 103.51 257.93 117.07 C 262.18 130.64 259.61 149.89 253.23 162.23 C 246.85 174.56 239.65 182.99 230.25 193.25 C 220.84 203.50 212.37 209.59 202.75 219.75 C 193.14 229.91 184.77 234.33 175.25 246.25 C 165.72 258.17 152.57 257.33 143.25 245.75 C 133.93 234.17 124.54 230.15 115.25 219.75 C 105.96 209.35 96.98 203.66 87.75 193.25 C 78.53 182.83 71.22 174.66 64.70 162.30 C 58.17 149.95 55.96 130.56 59.93 116.93 C 63.90 103.30 70.85 93.76 82.23 85.23 C 93.61 76.70 111.12 72.87 125.00 76.00 C 138.88 79.13 149.32 85.90 159.00 96.00 Z"/>
</g>
<g fill="None" fill-opacity="0.0" stroke="#F5F5F5" stroke-opacity="0.96" stroke-width="0.3"><path d="
M 159.00 96.00 
C 149.32 85.90 138.88 79.13 125.00 76.00 C 111.12 72.87 93.61 76.70 82.23 85.23 C 70.85 93.76 63.90 103.30 59.93 116.93 C 55.96 130.56 58.17 149.95 64.70 162.30 C 71.22 174.66 78.53 182.83 87.75 193.25 C 96.98 203.66 105.96 209.35 115.25 219.75 C 124.54 230.15 133.93 234.17 143.25 245.75 C 152.57 257.33 165.72 258.17 175.25 246.25 C 184.77 234.33 193.14 229.91 202.75 219.75 C 212.37 209.59 220.84 203.50 230.25 193.25 C 239.65 182.99 246.85 174.56 253.23 162.23 C 259.61 149.89 262.18 130.64 257.93 117.07 C 253.68 103.51 247.19 93.83 235.75 85.25 C 224.30 76.68 207.01 73.11 193.07 76.07 C 179.13 79.04 169.26 86.18 159.00 96.00
M 120.00 84.00 
C 133.93 85.99 143.28 93.59 153.30 103.70 C 163.33 113.81 171.30 93.53 183.08 89.08 C 194.85 84.62 213.41 81.54 225.69 89.31 C 237.98 97.07 244.94 105.17 248.98 119.02 C 253.01 132.88 250.29 150.50 243.25 162.25 C 236.20 173.99 229.33 182.28 219.75 191.75 C 210.18 201.22 201.78 209.36 192.25 218.25 C 182.71 227.14 174.50 235.34 164.75 243.75 C 155.00 252.17 144.95 235.36 135.77 228.23 C 126.59 221.10 117.95 210.66 108.75 202.25 C 99.55 193.84 91.13 185.00 83.08 174.92 C 75.03 164.83 67.64 151.89 67.00 138.00 C 66.36 124.11 69.49 108.10 80.25 98.25 C 91.01 88.39 104.83 81.83 120.00 84.00 Z"/>
</g>
<g fill="None" fill-opacity="0.0" stroke="#ED4140" stroke-opacity="1.00" stroke-width="0.3"><path d="
M 120.00 84.00 
C 104.83 81.83 91.01 88.39 80.25 98.25 C 69.49 108.10 66.36 124.11 67.00 138.00 C 67.64 151.89 75.03 164.83 83.08 174.92 C 91.13 185.00 99.55 193.84 108.75 202.25 C 117.95 210.66 126.59 221.10 135.77 228.23 C 144.95 235.36 155.00 252.17 164.75 243.75 C 174.50 235.34 182.71 227.14 192.25 218.25 C 201.78 209.36 210.18 201.22 219.75 191.75 C 229.33 182.28 236.20 173.99 243.25 162.25 C 250.29 150.50 253.01 132.88 248.98 119.02 C 244.94 105.17 237.98 97.07 225.69 89.31 C 213.41 81.54 194.85 84.62 183.08 89.08 C 171.30 93.53 163.33 113.81 153.30 103.70 C 143.28 93.59 133.93 85.99 120.00 84.00
M 113.00 103.00 
C 124.49 106.49 113.07 121.20 108.70 125.70 C 104.32 130.19 97.77 146.88 88.33 141.67 C 78.89 136.46 84.50 122.50 87.99 114.99 C 91.48 107.49 104.62 100.46 113.00 103.00 Z"/>
</g>
<g fill="None" fill-opacity="0.0" stroke="#F9645C" stroke-opacity="1.00" stroke-width="0.3"><path d="
M 113.00 103.00 
C 104.62 100.46 91.48 107.49 87.99 114.99 C 84.50 122.50 78.89 136.46 88.33 141.67 C 97.77 146.88 104.32 130.19 108.70 125.70 C 113.07 121.20 124.49 106.49 113.00 103.00 Z"/>
</g>
<g fill="#000000" fill-opacity="0.00" stroke="None">
<path d="
M 0.00 316.00 
L 316.00 316.00
L 316.00 0.00
L 0.00 0.00
L 0.00 316.00
M 159.00 96.00 
C 169.26 86.18 179.13 79.04 193.07 76.07 C 207.01 73.11 224.30 76.68 235.75 85.25 C 247.19 93.83 253.68 103.51 257.93 117.07 C 262.18 130.64 259.61 149.89 253.23 162.23 C 246.85 174.56 239.65 182.99 230.25 193.25 C 220.84 203.50 212.37 209.59 202.75 219.75 C 193.14 229.91 184.77 234.33 175.25 246.25 C 165.72 258.17 152.57 257.33 143.25 245.75 C 133.93 234.17 124.54 230.15 115.25 219.75 C 105.96 209.35 96.98 203.66 87.75 193.25 C 78.53 182.83 71.22 174.66 64.70 162.30 C 58.17 149.95 55.96 130.56 59.93 116.93 C 63.90 103.30 70.85 93.76 82.23 85.23 C 93.61 76.70 111.12 72.87 125.00 76.00 C 138.88 79.13 149.32 85.90 159.00 96.00 Z"/>
</g>
<g fill="#F5F5F5" fill-opacity="0.96" stroke="None">
<path d="
M 159.00 96.00 
C 149.32 85.90 138.88 79.13 125.00 76.00 C 111.12 72.87 93.61 76.70 82.23 85.23 C 70.85 93.76 63.90 103.30 59.93 116.93 C 55.96 130.56 58.17 149.95 64.70 162.30 C 71.22 174.66 78.53 182.83 87.75 193.25 C 96.98 203.66 105.96 209.35 115.25 219.75 C 124.54 230.15 133.93 234.17 143.25 245.75 C 152.57 257.33 165.72 258.17 175.25 246.25 C 184.77 234.33 193.14 229.91 202.75 219.75 C 212.37 209.59 220.84 203.50 230.25 193.25 C 239.65 182.99 246.85 174.56 253.23 162.23 C 259.61 149.89 262.18 130.64 257.93 117.07 C 253.68 103.51 247.19 93.83 235.75 85.25 C 224.30 76.68 207.01 73.11 193.07 76.07 C 179.13 79.04 169.26 86.18 159.00 96.00
M 120.00 84.00 
C 133.93 85.99 143.28 93.59 153.30 103.70 C 163.33 113.81 171.30 93.53 183.08 89.08 C 194.85 84.62 213.41 81.54 225.69 89.31 C 237.98 97.07 244.94 105.17 248.98 119.02 C 253.01 132.88 250.29 150.50 243.25 162.25 C 236.20 173.99 229.33 182.28 219.75 191.75 C 210.18 201.22 201.78 209.36 192.25 218.25 C 182.71 227.14 174.50 235.34 164.75 243.75 C 155.00 252.17 144.95 235.36 135.77 228.23 C 126.59 221.10 117.95 210.66 108.75 202.25 C 99.55 193.84 91.13 185.00 83.08 174.92 C 75.03 164.83 67.64 151.89 67.00 138.00 C 66.36 124.11 69.49 108.10 80.25 98.25 C 91.01 88.39 104.83 81.83 120.00 84.00 Z"/>
</g>
<g fill="#ED4140" fill-opacity="1.00" stroke="None">
<path d="
M 120.00 84.00 
C 104.83 81.83 91.01 88.39 80.25 98.25 C 69.49 108.10 66.36 124.11 67.00 138.00 C 67.64 151.89 75.03 164.83 83.08 174.92 C 91.13 185.00 99.55 193.84 108.75 202.25 C 117.95 210.66 126.59 221.10 135.77 228.23 C 144.95 235.36 155.00 252.17 164.75 243.75 C 174.50 235.34 182.71 227.14 192.25 218.25 C 201.78 209.36 210.18 201.22 219.75 191.75 C 229.33 182.28 236.20 173.99 243.25 162.25 C 250.29 150.50 253.01 132.88 248.98 119.02 C 244.94 105.17 237.98 97.07 225.69 89.31 C 213.41 81.54 194.85 84.62 183.08 89.08 C 171.30 93.53 163.33 113.81 153.30 103.70 C 143.28 93.59 133.93 85.99 120.00 84.00
M 113.00 103.00 
C 124.49 106.49 113.07 121.20 108.70 125.70 C 104.32 130.19 97.77 146.88 88.33 141.67 C 78.89 136.46 84.50 122.50 87.99 114.99 C 91.48 107.49 104.62 100.46 113.00 103.00 Z"/>
</g>
<g fill="#F9645C" fill-opacity="1.00" stroke="None">
<path d="
M 113.00 103.00 
C 104.62 100.46 91.48 107.49 87.99 114.99 C 84.50 122.50 78.89 136.46 88.33 141.67 C 97.77 146.88 104.32 130.19 108.70 125.70 C 113.07 121.20 124.49 106.49 113.00 103.00 Z"/>
</g>
</svg>