<svg xmlns="http://www.w3.org/2000/svg" xmlns:v="https://svgstorm.com"
viewBox = "0 0 316 316"
width="316"
height="316">
<g fill="None" fill-opacity="0.0" stroke="#000000" stroke-opacity="0.00" stroke-width="0.3"><path d="
M 0.00 316.00 
L 316.00 316.00
L 316.00 0.00
L 0.00 0.00
L 0.00 316.00
M 239.00 154.00 
C 238.51 153.92 238.00 154.00 238.00 154.00
C 237.75 154.25 238.00 155.00 238.00 155.00
C 238.00 169.01 238.20 181.87 238.00 196.00 C 237.80 210.13 238.51 223.58 238.00 238.00 C 237.49 252.42 220.96 251.20 211.00 251.00
C 177.36 250.33 143.64 250.99 110.00 251.00
C 109.50 251.00 109.00 251.00 109.00 251.00
C 97.40 251.00 82.12 251.87 82.00 237.00 C 81.89 222.13 82.54 210.34 82.00 196.00 C 81.46 181.66 83.28 168.18 82.00 154.00
C 81.70 154.24 81.00 154.00 81.00 154.00
C 68.25 156.10 52.59 147.04 56.33 133.33 C 60.07 119.62 72.02 117.39 79.75 107.75 C 87.48 98.12 96.87 92.49 105.25 84.25 C 113.62 76.01 121.64 67.93 130.25 60.25 C 138.86 52.57 147.06 40.61 159.02 40.02 C 170.98 39.44 178.98 52.17 187.70 59.30 C 196.42 66.44 204.35 75.10 212.75 83.25 C 221.15 91.40 230.38 97.06 238.25 106.75 C 246.12 116.44 257.31 118.14 262.32 131.68 C 267.33 145.22 252.63 156.24 239.00 154.00 Z"/>
</g>
<g fill="None" fill-opacity="0.0" stroke="#F23E34" stroke-opacity="0.99" stroke-width="0.3"><path d="
M 81.00 154.00 
C 85.49 146.91 94.69 142.45 100.25 136.25 C 105.81 130.05 113.58 124.37 119.75 118.75 C 125.92 113.13 132.40 104.83 138.77 100.77 C 145.14 96.71 152.46 83.98 160.01 84.01 C 167.56 84.03 173.99 96.59 180.25 100.75 C 186.51 104.91 194.14 112.67 199.75 118.25 C 205.36 123.83 214.43 129.63 219.25 135.75 C 224.06 141.87 236.25 146.72 239.00 154.00
C 252.63 156.24 267.33 145.22 262.32 131.68 C 257.31 118.14 246.12 116.44 238.25 106.75 C 230.38 97.06 221.15 91.40 212.75 83.25 C 204.35 75.10 196.42 66.44 187.70 59.30 C 178.98 52.17 170.98 39.44 159.02 40.02 C 147.06 40.61 138.86 52.57 130.25 60.25 C 121.64 67.93 113.62 76.01 105.25 84.25 C 96.87 92.49 87.48 98.12 79.75 107.75 C 72.02 117.39 60.07 119.62 56.33 133.33 C 52.59 147.04 68.25 156.10 81.00 154.00 Z"/>
</g>
<g fill="None" fill-opacity="0.0" stroke="#DC4311" stroke-opacity="0.99" stroke-width="0.3"><path d="
M 81.00 154.00 
C 81.00 154.00 81.70 154.24 82.00 154.00
C 101.22 138.58 119.12 120.14 138.00 104.00
C 140.99 101.01 143.81 97.73 147.00 95.00
C 154.58 88.53 160.72 82.21 168.23 90.77 C 175.74 99.33 179.92 101.94 187.25 108.75 C 194.58 115.57 199.63 119.70 207.00 126.00
C 209.89 128.47 212.39 131.39 215.00 134.00
C 222.68 140.56 229.54 148.74 238.00 154.00
C 238.00 154.00 238.51 153.92 239.00 154.00
C 236.25 146.72 224.06 141.87 219.25 135.75 C 214.43 129.63 205.36 123.83 199.75 118.25 C 194.14 112.67 186.51 104.91 180.25 100.75 C 173.99 96.59 167.56 84.03 160.01 84.01 C 152.46 83.98 145.14 96.71 138.77 100.77 C 132.40 104.83 125.92 113.13 119.75 118.75 C 113.58 124.37 105.81 130.05 100.25 136.25 C 94.69 142.45 85.49 146.91 81.00 154.00 Z"/>
</g>
<g fill="None" fill-opacity="0.0" stroke="#FDB104" stroke-opacity="1.00" stroke-width="0.3"><path d="
M 147.00 95.00 
C 144.01 97.99 141.19 101.27 138.00 104.00
C 119.12 120.14 101.22 138.58 82.00 154.00
C 85.69 161.94 83.47 170.97 84.00 181.00 C 84.53 191.03 83.46 202.65 84.00 213.00 C 84.54 223.35 82.51 232.66 85.26 242.74 C 88.00 252.82 103.52 246.94 109.00 251.00
C 109.00 251.00 109.50 251.00 110.00 251.00
C 109.94 251.06 109.00 249.00 109.00 249.00
C 103.93 244.35 102.43 241.44 103.00 234.00 C 103.57 226.56 103.46 218.84 103.00 212.00 C 102.54 205.16 104.79 195.92 103.00 190.00 C 101.21 184.08 111.73 177.59 114.00 181.00
C 114.77 170.89 127.84 165.99 136.00 167.00 C 144.16 168.01 158.40 170.42 161.00 179.00
C 163.66 170.12 176.59 168.18 185.00 167.00 C 193.42 165.83 206.43 170.43 207.00 181.00
C 222.47 179.39 218.85 201.56 218.00 212.00 C 217.15 222.44 223.22 244.84 212.00 249.00
C 211.84 249.06 212.00 250.00 212.00 250.00
C 219.04 248.99 226.65 251.57 232.25 246.25 C 237.84 240.93 235.59 233.16 236.00 226.00 C 236.41 218.84 235.45 208.87 236.00 202.00 C 236.55 195.13 234.95 183.83 236.00 178.00 C 237.05 172.17 232.95 156.35 238.00 155.00
C 238.00 155.00 237.75 154.25 238.00 154.00
C 229.54 148.74 222.68 140.56 215.00 134.00
C 212.11 131.53 209.61 128.61 207.00 126.00
C 199.63 119.70 194.58 115.57 187.25 108.75 C 179.92 101.94 175.74 99.33 168.23 90.77 C 160.72 82.21 154.58 88.53 147.00 95.00 Z"/>
</g>
<g fill="None" fill-opacity="0.0" stroke="#FA8A24" stroke-opacity="1.00" stroke-width="0.3"><path d="
M 138.00 104.00 
C 141.19 101.27 144.01 97.99 147.00 95.00
C 143.81 97.73 140.99 101.01 138.00 104.00 Z"/>
</g>
<g fill="None" fill-opacity="0.0" stroke="#F07218" stroke-opacity="1.00" stroke-width="0.3"><path d="
M 215.00 134.00 
C 212.39 131.39 209.89 128.47 207.00 126.00
C 209.61 128.61 212.11 131.53 215.00 134.00 Z"/>
</g>
<g fill="None" fill-opacity="0.0" stroke="#F5C933" stroke-opacity="0.98" stroke-width="0.3"><path d="
M 109.00 251.00 
C 103.52 246.94 88.00 252.82 85.26 242.74 C 82.51 232.66 84.54 223.35 84.00 213.00 C 83.46 202.65 84.53 191.03 84.00 181.00 C 83.47 170.97 85.69 161.94 82.00 154.00
C 83.28 168.18 81.46 181.66 82.00 196.00 C 82.54 210.34 81.89 222.13 82.00 237.00 C 82.12 251.87 97.40 251.00 109.00 251.00 Z"/>
</g>
<g fill="None" fill-opacity="0.0" stroke="#F0C12B" stroke-opacity="0.96" stroke-width="0.3"><path d="
M 212.00 250.00 
C 211.88 250.26 211.23 250.95 211.00 251.00
C 220.96 251.20 237.49 252.42 238.00 238.00 C 238.51 223.58 237.80 210.13 238.00 196.00 C 238.20 181.87 238.00 169.01 238.00 155.00
C 232.95 156.35 237.05 172.17 236.00 178.00 C 234.95 183.83 236.55 195.13 236.00 202.00 C 235.45 208.87 236.41 218.84 236.00 226.00 C 235.59 233.16 237.84 240.93 232.25 246.25 C 226.65 251.57 219.04 248.99 212.00 250.00 Z"/>
</g>
<g fill="None" fill-opacity="0.0" stroke="#FEED9F" stroke-opacity="1.00" stroke-width="0.3"><path d="
M 114.00 181.00 
C 113.45 188.23 113.79 203.51 114.00 210.00 C 114.21 216.49 111.08 236.42 118.22 234.22 C 125.37 232.01 135.52 229.38 143.00 231.00 C 150.48 232.61 157.37 239.90 162.00 238.00
C 163.30 233.59 160.10 224.78 161.00 219.00 C 161.90 213.22 161.31 204.97 161.00 199.00 C 160.69 193.03 162.73 184.69 161.00 179.00
C 158.40 170.42 144.16 168.01 136.00 167.00 C 127.84 165.99 114.77 170.89 114.00 181.00 Z"/>
</g>
<g fill="None" fill-opacity="0.0" stroke="#FDD754" stroke-opacity="1.00" stroke-width="0.3"><path d="
M 161.00 179.00 
C 162.73 184.69 160.69 193.03 161.00 199.00 C 161.31 204.97 161.90 213.22 161.00 219.00 C 160.10 224.78 163.30 233.59 162.00 238.00
C 167.46 235.75 171.50 232.68 177.67 231.67 C 183.85 230.66 189.71 227.63 196.22 231.78 C 202.73 235.92 208.46 234.78 207.00 226.00 C 205.54 217.22 207.69 212.17 207.00 204.00 C 206.31 195.83 207.44 189.05 207.00 181.00
C 206.43 170.43 193.42 165.83 185.00 167.00 C 176.59 168.18 163.66 170.12 161.00 179.00 Z"/>
</g>
<g fill="None" fill-opacity="0.0" stroke="#F46B15" stroke-opacity="1.00" stroke-width="0.3"><path d="
M 109.00 249.00 
C 118.83 252.58 132.37 249.60 143.00 250.00 C 153.63 250.40 167.54 251.04 178.00 250.00 C 188.46 248.96 202.83 253.65 212.00 249.00
C 223.22 244.84 217.15 222.44 218.00 212.00 C 218.85 201.56 222.47 179.39 207.00 181.00
C 207.44 189.05 206.31 195.83 207.00 204.00 C 207.69 212.17 205.54 217.22 207.00 226.00 C 208.46 234.78 202.73 235.92 196.22 231.78 C 189.71 227.63 183.85 230.66 177.67 231.67 C 171.50 232.68 167.46 235.75 162.00 238.00
C 157.37 239.90 150.48 232.61 143.00 231.00 C 135.52 229.38 125.37 232.01 118.22 234.22 C 111.08 236.42 114.21 216.49 114.00 210.00 C 113.79 203.51 113.45 188.23 114.00 181.00
C 111.73 177.59 101.21 184.08 103.00 190.00 C 104.79 195.92 102.54 205.16 103.00 212.00 C 103.46 218.84 103.57 226.56 103.00 234.00 C 102.43 241.44 103.93 244.35 109.00 249.00 Z"/>
</g>
<g fill="None" fill-opacity="0.0" stroke="#DC8B4F" stroke-opacity="1.00" stroke-width="0.3"><path d="
M 110.00 251.00 
C 143.64 250.99 177.36 250.33 211.00 251.00
C 211.23 250.95 211.88 250.26 212.00 250.00
C 212.00 250.00 211.84 249.06 212.00 249.00
C 202.83 253.65 188.46 248.96 178.00 250.00 C 167.54 251.04 153.63 250.40 143.00 250.00 C 132.37 249.60 118.83 252.58 109.00 249.00
C 109.00 249.00 109.94 251.06 110.00 251.00 Z"/>
</g>
<g fill="#000000" fill-opacity="0.00" stroke="None">
<path d="
M 0.00 316.00 
L 316.00 316.00
L 316.00 0.00
L 0.00 0.00
L 0.00 316.00
M 239.00 154.00 
C 238.51 153.92 238.00 154.00 238.00 154.00
C 237.75 154.25 238.00 155.00 238.00 155.00
C 238.00 169.01 238.20 181.87 238.00 196.00 C 237.80 210.13 238.51 223.58 238.00 238.00 C 237.49 252.42 220.96 251.20 211.00 251.00
C 177.36 250.33 143.64 250.99 110.00 251.00
C 109.50 251.00 109.00 251.00 109.00 251.00
C 97.40 251.00 82.12 251.87 82.00 237.00 C 81.89 222.13 82.54 210.34 82.00 196.00 C 81.46 181.66 83.28 168.18 82.00 154.00
C 81.70 154.24 81.00 154.00 81.00 154.00
C 68.25 156.10 52.59 147.04 56.33 133.33 C 60.07 119.62 72.02 117.39 79.75 107.75 C 87.48 98.12 96.87 92.49 105.25 84.25 C 113.62 76.01 121.64 67.93 130.25 60.25 C 138.86 52.57 147.06 40.61 159.02 40.02 C 170.98 39.44 178.98 52.17 187.70 59.30 C 196.42 66.44 204.35 75.10 212.75 83.25 C 221.15 91.40 230.38 97.06 238.25 106.75 C 246.12 116.44 257.31 118.14 262.32 131.68 C 267.33 145.22 252.63 156.24 239.00 154.00 Z"/>
</g>
<g fill="#F23E34" fill-opacity="0.99" stroke="None">
<path d="
M 81.00 154.00 
C 85.49 146.91 94.69 142.45 100.25 136.25 C 105.81 130.05 113.58 124.37 119.75 118.75 C 125.92 113.13 132.40 104.83 138.77 100.77 C 145.14 96.71 152.46 83.98 160.01 84.01 C 167.56 84.03 173.99 96.59 180.25 100.75 C 186.51 104.91 194.14 112.67 199.75 118.25 C 205.36 123.83 214.43 129.63 219.25 135.75 C 224.06 141.87 236.25 146.72 239.00 154.00
C 252.63 156.24 267.33 145.22 262.32 131.68 C 257.31 118.14 246.12 116.44 238.25 106.75 C 230.38 97.06 221.15 91.40 212.75 83.25 C 204.35 75.10 196.42 66.44 187.70 59.30 C 178.98 52.17 170.98 39.44 159.02 40.02 C 147.06 40.61 138.86 52.57 130.25 60.25 C 121.64 67.93 113.62 76.01 105.25 84.25 C 96.87 92.49 87.48 98.12 79.75 107.75 C 72.02 117.39 60.07 119.62 56.33 133.33 C 52.59 147.04 68.25 156.10 81.00 154.00 Z"/>
</g>
<g fill="#DC4311" fill-opacity="0.99" stroke="None">
<path d="
M 81.00 154.00 
C 81.00 154.00 81.70 154.24 82.00 154.00
C 101.22 138.58 119.12 120.14 138.00 104.00
C 140.99 101.01 143.81 97.73 147.00 95.00
C 154.58 88.53 160.72 82.21 168.23 90.77 C 175.74 99.33 179.92 101.94 187.25 108.75 C 194.58 115.57 199.63 119.70 207.00 126.00
C 209.89 128.47 212.39 131.39 215.00 134.00
C 222.68 140.56 229.54 148.74 238.00 154.00
C 238.00 154.00 238.51 153.92 239.00 154.00
C 236.25 146.72 224.06 141.87 219.25 135.75 C 214.43 129.63 205.36 123.83 199.75 118.25 C 194.14 112.67 186.51 104.91 180.25 100.75 C 173.99 96.59 167.56 84.03 160.01 84.01 C 152.46 83.98 145.14 96.71 138.77 100.77 C 132.40 104.83 125.92 113.13 119.75 118.75 C 113.58 124.37 105.81 130.05 100.25 136.25 C 94.69 142.45 85.49 146.91 81.00 154.00 Z"/>
</g>
<g fill="#FDB104" fill-opacity="1.00" stroke="None">
<path d="
M 147.00 95.00 
C 144.01 97.99 141.19 101.27 138.00 104.00
C 119.12 120.14 101.22 138.58 82.00 154.00
C 85.69 161.94 83.47 170.97 84.00 181.00 C 84.53 191.03 83.46 202.65 84.00 213.00 C 84.54 223.35 82.51 232.66 85.26 242.74 C 88.00 252.82 103.52 246.94 109.00 251.00
C 109.00 251.00 109.50 251.00 110.00 251.00
C 109.94 251.06 109.00 249.00 109.00 249.00
C 103.93 244.35 102.43 241.44 103.00 234.00 C 103.57 226.56 103.46 218.84 103.00 212.00 C 102.54 205.16 104.79 195.92 103.00 190.00 C 101.21 184.08 111.73 177.59 114.00 181.00
C 114.77 170.89 127.84 165.99 136.00 167.00 C 144.16 168.01 158.40 170.42 161.00 179.00
C 163.66 170.12 176.59 168.18 185.00 167.00 C 193.42 165.83 206.43 170.43 207.00 181.00
C 222.47 179.39 218.85 201.56 218.00 212.00 C 217.15 222.44 223.22 244.84 212.00 249.00
C 211.84 249.06 212.00 250.00 212.00 250.00
C 219.04 248.99 226.65 251.57 232.25 246.25 C 237.84 240.93 235.59 233.16 236.00 226.00 C 236.41 218.84 235.45 208.87 236.00 202.00 C 236.55 195.13 234.95 183.83 236.00 178.00 C 237.05 172.17 232.95 156.35 238.00 155.00
C 238.00 155.00 237.75 154.25 238.00 154.00
C 229.54 148.74 222.68 140.56 215.00 134.00
C 212.11 131.53 209.61 128.61 207.00 126.00
C 199.63 119.70 194.58 115.57 187.25 108.75 C 179.92 101.94 175.74 99.33 168.23 90.77 C 160.72 82.21 154.58 88.53 147.00 95.00 Z"/>
</g>
<g fill="#FA8A24" fill-opacity="1.00" stroke="None">
<path d="
M 138.00 104.00 
C 141.19 101.27 144.01 97.99 147.00 95.00
C 143.81 97.73 140.99 101.01 138.00 104.00 Z"/>
</g>
<g fill="#F07218" fill-opacity="1.00" stroke="None">
<path d="
M 215.00 134.00 
C 212.39 131.39 209.89 128.47 207.00 126.00
C 209.61 128.61 212.11 131.53 215.00 134.00 Z"/>
</g>
<g fill="#F5C933" fill-opacity="0.98" stroke="None">
<path d="
M 109.00 251.00 
C 103.52 246.94 88.00 252.82 85.26 242.74 C 82.51 232.66 84.54 223.35 84.00 213.00 C 83.46 202.65 84.53 191.03 84.00 181.00 C 83.47 170.97 85.69 161.94 82.00 154.00
C 83.28 168.18 81.46 181.66 82.00 196.00 C 82.54 210.34 81.89 222.13 82.00 237.00 C 82.12 251.87 97.40 251.00 109.00 251.00 Z"/>
</g>
<g fill="#F0C12B" fill-opacity="0.96" stroke="None">
<path d="
M 212.00 250.00 
C 211.88 250.26 211.23 250.95 211.00 251.00
C 220.96 251.20 237.49 252.42 238.00 238.00 C 238.51 223.58 237.80 210.13 238.00 196.00 C 238.20 181.87 238.00 169.01 238.00 155.00
C 232.95 156.35 237.05 172.17 236.00 178.00 C 234.95 183.83 236.55 195.13 236.00 202.00 C 235.45 208.87 236.41 218.84 236.00 226.00 C 235.59 233.16 237.84 240.93 232.25 246.25 C 226.65 251.57 219.04 248.99 212.00 250.00 Z"/>
</g>
<g fill="#FEED9F" fill-opacity="1.00" stroke="None">
<path d="
M 114.00 181.00 
C 113.45 188.23 113.79 203.51 114.00 210.00 C 114.21 216.49 111.08 236.42 118.22 234.22 C 125.37 232.01 135.52 229.38 143.00 231.00 C 150.48 232.61 157.37 239.90 162.00 238.00
C 163.30 233.59 160.10 224.78 161.00 219.00 C 161.90 213.22 161.31 204.97 161.00 199.00 C 160.69 193.03 162.73 184.69 161.00 179.00
C 158.40 170.42 144.16 168.01 136.00 167.00 C 127.84 165.99 114.77 170.89 114.00 181.00 Z"/>
</g>
<g fill="#FDD754" fill-opacity="1.00" stroke="None">
<path d="
M 161.00 179.00 
C 162.73 184.69 160.69 193.03 161.00 199.00 C 161.31 204.97 161.90 213.22 161.00 219.00 C 160.10 224.78 163.30 233.59 162.00 238.00
C 167.46 235.75 171.50 232.68 177.67 231.67 C 183.85 230.66 189.71 227.63 196.22 231.78 C 202.73 235.92 208.46 234.78 207.00 226.00 C 205.54 217.22 207.69 212.17 207.00 204.00 C 206.31 195.83 207.44 189.05 207.00 181.00
C 206.43 170.43 193.42 165.83 185.00 167.00 C 176.59 168.18 163.66 170.12 161.00 179.00 Z"/>
</g>
<g fill="#F46B15" fill-opacity="1.00" stroke="None">
<path d="
M 109.00 249.00 
C 118.83 252.58 132.37 249.60 143.00 250.00 C 153.63 250.40 167.54 251.04 178.00 250.00 C 188.46 248.96 202.83 253.65 212.00 249.00
C 223.22 244.84 217.15 222.44 218.00 212.00 C 218.85 201.56 222.47 179.39 207.00 181.00
C 207.44 189.05 206.31 195.83 207.00 204.00 C 207.69 212.17 205.54 217.22 207.00 226.00 C 208.46 234.78 202.73 235.92 196.22 231.78 C 189.71 227.63 183.85 230.66 177.67 231.67 C 171.50 232.68 167.46 235.75 162.00 238.00
C 157.37 239.90 150.48 232.61 143.00 231.00 C 135.52 229.38 125.37 232.01 118.22 234.22 C 111.08 236.42 114.21 216.49 114.00 210.00 C 113.79 203.51 113.45 188.23 114.00 181.00
C 111.73 177.59 101.21 184.08 103.00 190.00 C 104.79 195.92 102.54 205.16 103.00 212.00 C 103.46 218.84 103.57 226.56 103.00 234.00 C 102.43 241.44 103.93 244.35 109.00 249.00 Z"/>
</g>
<g fill="#DC8B4F" fill-opacity="1.00" stroke="None">
<path d="
M 110.00 251.00 
C 143.64 250.99 177.36 250.33 211.00 251.00
C 211.23 250.95 211.88 250.26 212.00 250.00
C 212.00 250.00 211.84 249.06 212.00 249.00
C 202.83 253.65 188.46 248.96 178.00 250.00 C 167.54 251.04 153.63 250.40 143.00 250.00 C 132.37 249.60 118.83 252.58 109.00 249.00
C 109.00 249.00 109.94 251.06 110.00 251.00 Z"/>
</g>
</svg>