<svg xmlns="http://www.w3.org/2000/svg" xmlns:v="https://svgstorm.com"
viewBox = "0 0 316 316"
width="316"
height="316">
<g fill="None" fill-opacity="0.0" stroke="#000000" stroke-opacity="0.00" stroke-width="0.3"><path d="
M 0.00 316.00 
L 316.00 316.00
L 316.00 0.00
L 0.00 0.00
L 0.00 316.00
M 272.00 111.00 
C 274.33 125.37 272.65 141.84 273.00 157.00 C 273.35 172.16 273.39 188.65 272.00 203.00
C 272.00 228.78 249.80 241.46 225.00 239.00 C 200.20 236.54 165.99 241.46 141.00 239.00 C 116.01 236.54 85.08 246.27 64.75 231.25 C 44.43 216.22 50.49 184.02 51.00 161.00 C 51.51 137.98 43.58 106.37 61.75 88.75 C 79.93 71.14 111.62 81.44 136.00 79.00 C 160.38 76.56 195.78 81.57 220.00 79.00 C 244.22 76.43 270.53 83.93 272.00 111.00 Z"/>
</g>
<g fill="None" fill-opacity="0.0" stroke="#FCFBFB" stroke-opacity="0.99" stroke-width="0.3"><path d="
M 272.00 203.00 
C 272.00 172.49 273.65 141.46 272.00 111.00
C 270.53 83.93 244.22 76.43 220.00 79.00 C 195.78 81.57 160.38 76.56 136.00 79.00 C 111.62 81.44 79.93 71.14 61.75 88.75 C 43.58 106.37 51.51 137.98 51.00 161.00 C 50.49 184.02 44.43 216.22 64.75 231.25 C 85.08 246.27 116.01 236.54 141.00 239.00 C 165.99 241.46 200.20 236.54 225.00 239.00 C 249.80 241.46 272.00 228.78 272.00 203.00
M 244.00 89.00 
C 253.48 91.60 261.67 101.45 263.00 111.00
C 265.04 125.59 264.33 144.32 263.00 159.00
C 258.47 163.72 245.95 158.55 239.00 160.00 C 232.05 161.45 221.82 159.37 214.00 160.00 C 206.18 160.63 196.16 159.72 188.00 160.00 C 179.84 160.28 171.30 159.90 163.00 160.00 C 154.70 160.10 146.42 160.02 138.00 160.00 C 129.58 159.98 120.46 160.13 112.00 160.00 C 103.54 159.87 95.48 160.35 87.00 160.00 C 78.52 159.65 69.48 160.77 61.00 160.00
C 57.44 156.58 60.09 142.38 60.00 137.00 C 59.91 131.62 57.90 117.19 61.00 113.00
C 61.00 112.50 61.00 112.00 61.00 112.00
C 64.44 102.30 68.18 91.73 80.00 89.00
C 84.25 84.58 95.41 89.26 102.00 88.00 C 108.59 86.74 118.68 88.56 126.00 88.00 C 133.32 87.44 142.40 88.23 150.00 88.00 C 157.60 87.77 165.27 88.03 173.00 88.00 C 180.73 87.97 189.21 87.87 197.00 88.00 C 204.79 88.13 213.30 87.62 221.00 88.00 C 228.70 88.38 237.25 86.66 244.00 89.00 Z"/>
</g>
<g fill="None" fill-opacity="0.0" stroke="#FFE5E2" stroke-opacity="1.00" stroke-width="0.3"><path d="
M 80.00 89.00 
C 80.47 88.89 81.00 89.00 81.00 89.00
C 134.67 89.00 188.33 89.00 242.00 89.00
C 242.50 89.00 243.54 88.87 244.00 89.00
C 237.25 86.66 228.70 88.38 221.00 88.00 C 213.30 87.62 204.79 88.13 197.00 88.00 C 189.21 87.87 180.73 87.97 173.00 88.00 C 165.27 88.03 157.60 87.77 150.00 88.00 C 142.40 88.23 133.32 87.44 126.00 88.00 C 118.68 88.56 108.59 86.74 102.00 88.00 C 95.41 89.26 84.25 84.58 80.00 89.00 Z"/>
</g>
<g fill="None" fill-opacity="0.0" stroke="#E72E21" stroke-opacity="1.00" stroke-width="0.3"><path d="
M 61.00 112.00 
C 65.11 115.95 61.23 128.85 62.00 135.00 C 62.77 141.15 62.59 152.49 62.00 159.00
C 128.67 159.00 195.33 159.00 262.00 159.00
C 260.57 143.24 263.65 125.89 263.00 111.00
C 261.67 101.45 253.48 91.60 244.00 89.00
C 243.54 88.87 242.50 89.00 242.00 89.00
C 233.15 92.76 221.13 89.13 211.00 90.00 C 200.87 90.87 188.31 89.88 178.00 90.00 C 167.69 90.12 156.14 90.62 146.00 90.00 C 135.86 89.38 122.53 91.70 113.00 90.00 C 103.47 88.30 88.27 94.38 81.00 89.00
C 81.00 89.00 80.47 88.89 80.00 89.00
C 68.18 91.73 64.44 102.30 61.00 112.00 Z"/>
</g>
<g fill="None" fill-opacity="0.0" stroke="#AA2B25" stroke-opacity="1.00" stroke-width="0.3"><path d="
M 242.00 89.00 
C 188.33 89.00 134.67 89.00 81.00 89.00
C 88.27 94.38 103.47 88.30 113.00 90.00 C 122.53 91.70 135.86 89.38 146.00 90.00 C 156.14 90.62 167.69 90.12 178.00 90.00 C 188.31 89.88 200.87 90.87 211.00 90.00 C 221.13 89.13 233.15 92.76 242.00 89.00 Z"/>
</g>
<g fill="None" fill-opacity="0.0" stroke="#B44441" stroke-opacity="1.00" stroke-width="0.3"><path d="
M 262.00 159.00 
C 262.50 159.00 263.00 159.00 263.00 159.00
C 264.33 144.32 265.04 125.59 263.00 111.00
C 263.65 125.89 260.57 143.24 262.00 159.00 Z"/>
</g>
<g fill="None" fill-opacity="0.0" stroke="#737B7F" stroke-opacity="0.20" stroke-width="0.3"><path d="
M 272.00 203.00 
C 273.39 188.65 273.35 172.16 273.00 157.00 C 272.65 141.84 274.33 125.37 272.00 111.00
C 273.65 141.46 272.00 172.49 272.00 203.00 Z"/>
</g>
<g fill="None" fill-opacity="0.0" stroke="#A92925" stroke-opacity="1.00" stroke-width="0.3"><path d="
M 61.00 113.00 
C 61.00 128.33 61.00 143.67 61.00 159.00
C 61.25 158.75 62.00 159.00 62.00 159.00
C 62.59 152.49 62.77 141.15 62.00 135.00 C 61.23 128.85 65.11 115.95 61.00 112.00
C 61.00 112.00 61.00 112.50 61.00 113.00 Z"/>
</g>
<g fill="None" fill-opacity="0.0" stroke="#FFCCCB" stroke-opacity="1.00" stroke-width="0.3"><path d="
M 61.00 160.00 
C 60.96 160.00 61.00 159.00 61.00 159.00
C 61.00 143.67 61.00 128.33 61.00 113.00
C 57.90 117.19 59.91 131.62 60.00 137.00 C 60.09 142.38 57.44 156.58 61.00 160.00 Z"/>
</g>
<g fill="None" fill-opacity="0.0" stroke="#D36964" stroke-opacity="1.00" stroke-width="0.3"><path d="
M 61.00 160.00 
C 69.48 160.77 78.52 159.65 87.00 160.00 C 95.48 160.35 103.54 159.87 112.00 160.00 C 120.46 160.13 129.58 159.98 138.00 160.00 C 146.42 160.02 154.70 160.10 163.00 160.00 C 171.30 159.90 179.84 160.28 188.00 160.00 C 196.16 159.72 206.18 160.63 214.00 160.00 C 221.82 159.37 232.05 161.45 239.00 160.00 C 245.95 158.55 258.47 163.72 263.00 159.00
C 263.00 159.00 262.50 159.00 262.00 159.00
C 195.33 159.00 128.67 159.00 62.00 159.00
C 62.00 159.00 61.25 158.75 61.00 159.00
C 61.00 159.00 60.96 160.00 61.00 160.00 Z"/>
</g>
<g fill="#000000" fill-opacity="0.00" stroke="None">
<path d="
M 0.00 316.00 
L 316.00 316.00
L 316.00 0.00
L 0.00 0.00
L 0.00 316.00
M 272.00 111.00 
C 274.33 125.37 272.65 141.84 273.00 157.00 C 273.35 172.16 273.39 188.65 272.00 203.00
C 272.00 228.78 249.80 241.46 225.00 239.00 C 200.20 236.54 165.99 241.46 141.00 239.00 C 116.01 236.54 85.08 246.27 64.75 231.25 C 44.43 216.22 50.49 184.02 51.00 161.00 C 51.51 137.98 43.58 106.37 61.75 88.75 C 79.93 71.14 111.62 81.44 136.00 79.00 C 160.38 76.56 195.78 81.57 220.00 79.00 C 244.22 76.43 270.53 83.93 272.00 111.00 Z"/>
</g>
<g fill="#FCFBFB" fill-opacity="0.99" stroke="None">
<path d="
M 272.00 203.00 
C 272.00 172.49 273.65 141.46 272.00 111.00
C 270.53 83.93 244.22 76.43 220.00 79.00 C 195.78 81.57 160.38 76.56 136.00 79.00 C 111.62 81.44 79.93 71.14 61.75 88.75 C 43.58 106.37 51.51 137.98 51.00 161.00 C 50.49 184.02 44.43 216.22 64.75 231.25 C 85.08 246.27 116.01 236.54 141.00 239.00 C 165.99 241.46 200.20 236.54 225.00 239.00 C 249.80 241.46 272.00 228.78 272.00 203.00
M 244.00 89.00 
C 253.48 91.60 261.67 101.45 263.00 111.00
C 265.04 125.59 264.33 144.32 263.00 159.00
C 258.47 163.72 245.95 158.55 239.00 160.00 C 232.05 161.45 221.82 159.37 214.00 160.00 C 206.18 160.63 196.16 159.72 188.00 160.00 C 179.84 160.28 171.30 159.90 163.00 160.00 C 154.70 160.10 146.42 160.02 138.00 160.00 C 129.58 159.98 120.46 160.13 112.00 160.00 C 103.54 159.87 95.48 160.35 87.00 160.00 C 78.52 159.65 69.48 160.77 61.00 160.00
C 57.44 156.58 60.09 142.38 60.00 137.00 C 59.91 131.62 57.90 117.19 61.00 113.00
C 61.00 112.50 61.00 112.00 61.00 112.00
C 64.44 102.30 68.18 91.73 80.00 89.00
C 84.25 84.58 95.41 89.26 102.00 88.00 C 108.59 86.74 118.68 88.56 126.00 88.00 C 133.32 87.44 142.40 88.23 150.00 88.00 C 157.60 87.77 165.27 88.03 173.00 88.00 C 180.73 87.97 189.21 87.87 197.00 88.00 C 204.79 88.13 213.30 87.62 221.00 88.00 C 228.70 88.38 237.25 86.66 244.00 89.00 Z"/>
</g>
<g fill="#FFE5E2" fill-opacity="1.00" stroke="None">
<path d="
M 80.00 89.00 
C 80.47 88.89 81.00 89.00 81.00 89.00
C 134.67 89.00 188.33 89.00 242.00 89.00
C 242.50 89.00 243.54 88.87 244.00 89.00
C 237.25 86.66 228.70 88.38 221.00 88.00 C 213.30 87.62 204.79 88.13 197.00 88.00 C 189.21 87.87 180.73 87.97 173.00 88.00 C 165.27 88.03 157.60 87.77 150.00 88.00 C 142.40 88.23 133.32 87.44 126.00 88.00 C 118.68 88.56 108.59 86.74 102.00 88.00 C 95.41 89.26 84.25 84.58 80.00 89.00 Z"/>
</g>
<g fill="#E72E21" fill-opacity="1.00" stroke="None">
<path d="
M 61.00 112.00 
C 65.11 115.95 61.23 128.85 62.00 135.00 C 62.77 141.15 62.59 152.49 62.00 159.00
C 128.67 159.00 195.33 159.00 262.00 159.00
C 260.57 143.24 263.65 125.89 263.00 111.00
C 261.67 101.45 253.48 91.60 244.00 89.00
C 243.54 88.87 242.50 89.00 242.00 89.00
C 233.15 92.76 221.13 89.13 211.00 90.00 C 200.87 90.87 188.31 89.88 178.00 90.00 C 167.69 90.12 156.14 90.62 146.00 90.00 C 135.86 89.38 122.53 91.70 113.00 90.00 C 103.47 88.30 88.27 94.38 81.00 89.00
C 81.00 89.00 80.47 88.89 80.00 89.00
C 68.18 91.73 64.44 102.30 61.00 112.00 Z"/>
</g>
<g fill="#AA2B25" fill-opacity="1.00" stroke="None">
<path d="
M 242.00 89.00 
C 188.33 89.00 134.67 89.00 81.00 89.00
C 88.27 94.38 103.47 88.30 113.00 90.00 C 122.53 91.70 135.86 89.38 146.00 90.00 C 156.14 90.62 167.69 90.12 178.00 90.00 C 188.31 89.88 200.87 90.87 211.00 90.00 C 221.13 89.13 233.15 92.76 242.00 89.00 Z"/>
</g>
<g fill="#B44441" fill-opacity="1.00" stroke="None">
<path d="
M 262.00 159.00 
C 262.50 159.00 263.00 159.00 263.00 159.00
C 264.33 144.32 265.04 125.59 263.00 111.00
C 263.65 125.89 260.57 143.24 262.00 159.00 Z"/>
</g>
<g fill="#737B7F" fill-opacity="0.20" stroke="None">
<path d="
M 272.00 203.00 
C 273.39 188.65 273.35 172.16 273.00 157.00 C 272.65 141.84 274.33 125.37 272.00 111.00
C 273.65 141.46 272.00 172.49 272.00 203.00 Z"/>
</g>
<g fill="#A92925" fill-opacity="1.00" stroke="None">
<path d="
M 61.00 113.00 
C 61.00 128.33 61.00 143.67 61.00 159.00
C 61.25 158.75 62.00 159.00 62.00 159.00
C 62.59 152.49 62.77 141.15 62.00 135.00 C 61.23 128.85 65.11 115.95 61.00 112.00
C 61.00 112.00 61.00 112.50 61.00 113.00 Z"/>
</g>
<g fill="#FFCCCB" fill-opacity="1.00" stroke="None">
<path d="
M 61.00 160.00 
C 60.96 160.00 61.00 159.00 61.00 159.00
C 61.00 143.67 61.00 128.33 61.00 113.00
C 57.90 117.19 59.91 131.62 60.00 137.00 C 60.09 142.38 57.44 156.58 61.00 160.00 Z"/>
</g>
<g fill="#D36964" fill-opacity="1.00" stroke="None">
<path d="
M 61.00 160.00 
C 69.48 160.77 78.52 159.65 87.00 160.00 C 95.48 160.35 103.54 159.87 112.00 160.00 C 120.46 160.13 129.58 159.98 138.00 160.00 C 146.42 160.02 154.70 160.10 163.00 160.00 C 171.30 159.90 179.84 160.28 188.00 160.00 C 196.16 159.72 206.18 160.63 214.00 160.00 C 221.82 159.37 232.05 161.45 239.00 160.00 C 245.95 158.55 258.47 163.72 263.00 159.00
C 263.00 159.00 262.50 159.00 262.00 159.00
C 195.33 159.00 128.67 159.00 62.00 159.00
C 62.00 159.00 61.25 158.75 61.00 159.00
C 61.00 159.00 60.96 160.00 61.00 160.00 Z"/>
</g>
</svg>