<svg xmlns="http://www.w3.org/2000/svg" xmlns:v="https://svgstorm.com"
viewBox = "0 0 316 316"
width="316"
height="316">
<g fill="None" fill-opacity="0.0" stroke="#000000" stroke-opacity="0.00" stroke-width="0.3"><path d="
M 0.00 316.00 
L 316.00 316.00
L 316.00 0.00
L 0.00 0.00
L 0.00 316.00
M 125.00 83.00 
C 125.98 82.63 126.58 82.19 128.00 82.00
C 138.41 78.20 151.10 65.72 163.22 69.78 C 175.34 73.84 186.41 78.99 198.22 84.78 C 210.04 90.56 224.75 88.93 236.68 95.32 C 248.60 101.71 241.98 126.73 242.67 138.67 C 243.36 150.61 239.71 169.58 236.01 181.01 C 232.31 192.44 225.27 203.59 217.75 212.75 C 210.23 221.91 201.90 230.99 191.92 236.92 C 181.94 242.84 169.33 252.32 157.00 251.00 C 144.67 249.68 133.82 240.95 123.75 234.25 C 113.68 227.54 106.97 219.32 99.23 209.77 C 91.49 200.22 86.33 188.57 82.22 176.78 C 78.12 164.98 76.97 145.47 77.00 133.00 C 77.03 120.53 70.75 97.94 86.08 94.08 C 101.40 90.21 110.69 88.36 125.00 83.00 Z"/>
</g>
<g fill="None" fill-opacity="0.0" stroke="#E4BD3A" stroke-opacity="0.93" stroke-width="0.3"><path d="
M 128.00 82.00 
C 139.66 80.48 151.07 67.02 163.01 70.99 C 174.94 74.96 185.01 80.60 197.08 85.92 C 209.14 91.25 223.06 90.99 235.68 96.32 C 248.29 101.65 239.83 126.23 241.00 138.00 C 242.17 149.77 237.66 168.79 234.08 180.08 C 230.49 191.36 224.27 203.17 216.75 211.75 C 209.23 220.34 201.44 230.52 191.25 235.25 C 181.07 239.99 170.00 251.54 158.00 250.00 C 146.00 248.46 135.03 240.60 125.25 233.75 C 115.46 226.90 108.31 218.25 101.08 208.92 C 93.85 199.59 87.56 189.25 84.02 176.98 C 80.49 164.70 78.36 147.08 78.01 133.99 C 77.66 120.91 73.73 98.77 88.22 95.22 C 102.71 91.67 113.29 91.10 125.00 83.00
C 110.69 88.36 101.40 90.21 86.08 94.08 C 70.75 97.94 77.03 120.53 77.00 133.00 C 76.97 145.47 78.12 164.98 82.22 176.78 C 86.33 188.57 91.49 200.22 99.23 209.77 C 106.97 219.32 113.68 227.54 123.75 234.25 C 133.82 240.95 144.67 249.68 157.00 251.00 C 169.33 252.32 181.94 242.84 191.92 236.92 C 201.90 230.99 210.23 221.91 217.75 212.75 C 225.27 203.59 232.31 192.44 236.01 181.01 C 239.71 169.58 243.36 150.61 242.67 138.67 C 241.98 126.73 248.60 101.71 236.68 95.32 C 224.75 88.93 210.04 90.56 198.22 84.78 C 186.41 78.99 175.34 73.84 163.22 69.78 C 151.10 65.72 138.41 78.20 128.00 82.00 Z"/>
</g>
<g fill="None" fill-opacity="0.0" stroke="#FDB101" stroke-opacity="1.00" stroke-width="0.3"><path d="
M 128.00 82.00 
C 126.58 82.19 125.98 82.63 125.00 83.00
C 113.29 91.10 102.71 91.67 88.22 95.22 C 73.73 98.77 77.66 120.91 78.01 133.99 C 78.36 147.08 80.49 164.70 84.02 176.98 C 87.56 189.25 93.85 199.59 101.08 208.92 C 108.31 218.25 115.46 226.90 125.25 233.75 C 135.03 240.60 146.00 248.46 158.00 250.00 C 170.00 251.54 181.07 239.99 191.25 235.25 C 201.44 230.52 209.23 220.34 216.75 211.75 C 224.27 203.17 230.49 191.36 234.08 180.08 C 237.66 168.79 242.17 149.77 241.00 138.00 C 239.83 126.23 248.29 101.65 235.68 96.32 C 223.06 90.99 209.14 91.25 197.08 85.92 C 185.01 80.60 174.94 74.96 163.01 70.99 C 151.07 67.02 139.66 80.48 128.00 82.00
M 134.00 168.00 
C 126.35 163.02 127.31 159.46 119.25 153.75 C 111.18 148.05 110.90 140.41 121.00 140.00 C 131.10 139.59 139.05 140.32 144.92 133.92 C 150.79 127.52 150.29 122.69 154.92 114.92 C 159.56 107.16 168.11 114.62 169.77 122.23 C 171.43 129.84 177.15 137.44 184.00 138.00 C 190.85 138.56 207.50 138.16 207.99 144.01 C 208.49 149.85 201.19 156.53 195.25 160.25 C 189.30 163.96 185.35 173.31 188.99 180.01 C 192.64 186.70 193.83 201.30 185.99 200.99 C 178.16 200.68 173.72 193.88 166.77 191.23 C 159.83 188.58 151.26 190.20 145.32 195.32 C 139.38 200.45 127.81 203.59 129.00 193.00 C 130.19 182.41 133.03 178.16 134.00 168.00 Z"/>
</g>
<g fill="None" fill-opacity="0.0" stroke="#FECF2D" stroke-opacity="1.00" stroke-width="0.3"><path d="
M 134.00 168.00 
C 133.03 178.16 130.19 182.41 129.00 193.00 C 127.81 203.59 139.38 200.45 145.32 195.32 C 151.26 190.20 159.83 188.58 166.77 191.23 C 173.72 193.88 178.16 200.68 185.99 200.99 C 193.83 201.30 192.64 186.70 188.99 180.01 C 185.35 173.31 189.30 163.96 195.25 160.25 C 201.19 156.53 208.49 149.85 207.99 144.01 C 207.50 138.16 190.85 138.56 184.00 138.00 C 177.15 137.44 171.43 129.84 169.77 122.23 C 168.11 114.62 159.56 107.16 154.92 114.92 C 150.29 122.69 150.79 127.52 144.92 133.92 C 139.05 140.32 131.10 139.59 121.00 140.00 C 110.90 140.41 111.18 148.05 119.25 153.75 C 127.31 159.46 126.35 163.02 134.00 168.00 Z"/>
</g>
<g fill="#000000" fill-opacity="0.00" stroke="None">
<path d="
M 0.00 316.00 
L 316.00 316.00
L 316.00 0.00
L 0.00 0.00
L 0.00 316.00
M 125.00 83.00 
C 125.98 82.63 126.58 82.19 128.00 82.00
C 138.41 78.20 151.10 65.72 163.22 69.78 C 175.34 73.84 186.41 78.99 198.22 84.78 C 210.04 90.56 224.75 88.93 236.68 95.32 C 248.60 101.71 241.98 126.73 242.67 138.67 C 243.36 150.61 239.71 169.58 236.01 181.01 C 232.31 192.44 225.27 203.59 217.75 212.75 C 210.23 221.91 201.90 230.99 191.92 236.92 C 181.94 242.84 169.33 252.32 157.00 251.00 C 144.67 249.68 133.82 240.95 123.75 234.25 C 113.68 227.54 106.97 219.32 99.23 209.77 C 91.49 200.22 86.33 188.57 82.22 176.78 C 78.12 164.98 76.97 145.47 77.00 133.00 C 77.03 120.53 70.75 97.94 86.08 94.08 C 101.40 90.21 110.69 88.36 125.00 83.00 Z"/>
</g>
<g fill="#E4BD3A" fill-opacity="0.93" stroke="None">
<path d="
M 128.00 82.00 
C 139.66 80.48 151.07 67.02 163.01 70.99 C 174.94 74.96 185.01 80.60 197.08 85.92 C 209.14 91.25 223.06 90.99 235.68 96.32 C 248.29 101.65 239.83 126.23 241.00 138.00 C 242.17 149.77 237.66 168.79 234.08 180.08 C 230.49 191.36 224.27 203.17 216.75 211.75 C 209.23 220.34 201.44 230.52 191.25 235.25 C 181.07 239.99 170.00 251.54 158.00 250.00 C 146.00 248.46 135.03 240.60 125.25 233.75 C 115.46 226.90 108.31 218.25 101.08 208.92 C 93.85 199.59 87.56 189.25 84.02 176.98 C 80.49 164.70 78.36 147.08 78.01 133.99 C 77.66 120.91 73.73 98.77 88.22 95.22 C 102.71 91.67 113.29 91.10 125.00 83.00
C 110.69 88.36 101.40 90.21 86.08 94.08 C 70.75 97.94 77.03 120.53 77.00 133.00 C 76.97 145.47 78.12 164.98 82.22 176.78 C 86.33 188.57 91.49 200.22 99.23 209.77 C 106.97 219.32 113.68 227.54 123.75 234.25 C 133.82 240.95 144.67 249.68 157.00 251.00 C 169.33 252.32 181.94 242.84 191.92 236.92 C 201.90 230.99 210.23 221.91 217.75 212.75 C 225.27 203.59 232.31 192.44 236.01 181.01 C 239.71 169.58 243.36 150.61 242.67 138.67 C 241.98 126.73 248.60 101.71 236.68 95.32 C 224.75 88.93 210.04 90.56 198.22 84.78 C 186.41 78.99 175.34 73.84 163.22 69.78 C 151.10 65.72 138.41 78.20 128.00 82.00 Z"/>
</g>
<g fill="#FDB101" fill-opacity="1.00" stroke="None">
<path d="
M 128.00 82.00 
C 126.58 82.19 125.98 82.63 125.00 83.00
C 113.29 91.10 102.71 91.67 88.22 95.22 C 73.73 98.77 77.66 120.91 78.01 133.99 C 78.36 147.08 80.49 164.70 84.02 176.98 C 87.56 189.25 93.85 199.59 101.08 208.92 C 108.31 218.25 115.46 226.90 125.25 233.75 C 135.03 240.60 146.00 248.46 158.00 250.00 C 170.00 251.54 181.07 239.99 191.25 235.25 C 201.44 230.52 209.23 220.34 216.75 211.75 C 224.27 203.17 230.49 191.36 234.08 180.08 C 237.66 168.79 242.17 149.77 241.00 138.00 C 239.83 126.23 248.29 101.65 235.68 96.32 C 223.06 90.99 209.14 91.25 197.08 85.92 C 185.01 80.60 174.94 74.96 163.01 70.99 C 151.07 67.02 139.66 80.48 128.00 82.00
M 134.00 168.00 
C 126.35 163.02 127.31 159.46 119.25 153.75 C 111.18 148.05 110.90 140.41 121.00 140.00 C 131.10 139.59 139.05 140.32 144.92 133.92 C 150.79 127.52 150.29 122.69 154.92 114.92 C 159.56 107.16 168.11 114.62 169.77 122.23 C 171.43 129.84 177.15 137.44 184.00 138.00 C 190.85 138.56 207.50 138.16 207.99 144.01 C 208.49 149.85 201.19 156.53 195.25 160.25 C 189.30 163.96 185.35 173.31 188.99 180.01 C 192.64 186.70 193.83 201.30 185.99 200.99 C 178.16 200.68 173.72 193.88 166.77 191.23 C 159.83 188.58 151.26 190.20 145.32 195.32 C 139.38 200.45 127.81 203.59 129.00 193.00 C 130.19 182.41 133.03 178.16 134.00 168.00 Z"/>
</g>
<g fill="#FECF2D" fill-opacity="1.00" stroke="None">
<path d="
M 134.00 168.00 
C 133.03 178.16 130.19 182.41 129.00 193.00 C 127.81 203.59 139.38 200.45 145.32 195.32 C 151.26 190.20 159.83 188.58 166.77 191.23 C 173.72 193.88 178.16 200.68 185.99 200.99 C 193.83 201.30 192.64 186.70 188.99 180.01 C 185.35 173.31 189.30 163.96 195.25 160.25 C 201.19 156.53 208.49 149.85 207.99 144.01 C 207.50 138.16 190.85 138.56 184.00 138.00 C 177.15 137.44 171.43 129.84 169.77 122.23 C 168.11 114.62 159.56 107.16 154.92 114.92 C 150.29 122.69 150.79 127.52 144.92 133.92 C 139.05 140.32 131.10 139.59 121.00 140.00 C 110.90 140.41 111.18 148.05 119.25 153.75 C 127.31 159.46 126.35 163.02 134.00 168.00 Z"/>
</g>
</svg>