<svg xmlns="http://www.w3.org/2000/svg" xmlns:v="https://svgstorm.com"
viewBox = "0 0 316 316"
width="316"
height="316">
<g fill="None" fill-opacity="0.0" stroke="#000000" stroke-opacity="0.00" stroke-width="0.3"><path d="
M 0.00 316.00 
L 316.00 316.00
L 316.00 0.00
L 0.00 0.00
L 0.00 316.00
M 252.00 155.00 
C 252.40 159.09 252.39 163.98 252.00 168.00
C 252.00 192.85 242.27 211.71 229.08 232.08 C 215.90 252.45 191.37 258.06 174.25 241.75 C 157.14 225.43 138.92 222.22 123.00 205.00
C 111.04 201.42 93.16 209.00 82.92 200.08 C 72.69 191.15 67.27 184.36 67.00 171.00
C 66.13 163.79 65.84 155.16 67.00 148.00
C 67.83 132.62 79.24 118.76 95.00 117.00
C 102.45 116.17 110.49 117.00 118.00 117.00
C 118.50 117.00 119.00 117.00 119.00 117.00
C 127.23 117.28 133.40 103.76 141.25 100.25 C 149.09 96.74 156.11 88.90 164.23 84.23 C 172.35 79.56 178.50 73.58 187.23 68.23 C 195.96 62.88 208.27 67.84 215.25 74.75 C 222.22 81.67 228.96 86.38 233.92 95.08 C 238.87 103.79 243.77 111.24 246.78 121.22 C 249.78 131.21 252.00 144.01 252.00 155.00 Z"/>
</g>
<g fill="None" fill-opacity="0.0" stroke="#F23D33" stroke-opacity="1.00" stroke-width="0.3"><path d="
M 119.00 117.00 
C 121.70 120.46 113.50 125.11 113.07 131.07 C 112.65 137.04 109.27 141.27 110.00 150.00 C 110.73 158.73 110.21 161.59 110.00 173.00 C 109.79 184.41 115.16 196.52 123.00 205.00
C 138.92 222.22 157.14 225.43 174.25 241.75 C 191.37 258.06 215.90 252.45 229.08 232.08 C 242.27 211.71 252.00 192.85 252.00 168.00
C 252.00 163.67 252.00 159.33 252.00 155.00
C 252.00 144.01 249.78 131.21 246.78 121.22 C 243.77 111.24 238.87 103.79 233.92 95.08 C 228.96 86.38 222.22 81.67 215.25 74.75 C 208.27 67.84 195.96 62.88 187.23 68.23 C 178.50 73.58 172.35 79.56 164.23 84.23 C 156.11 88.90 149.09 96.74 141.25 100.25 C 133.40 103.76 127.23 117.28 119.00 117.00
M 207.00 106.00 
C 215.49 108.15 218.09 121.82 221.92 129.08 C 225.75 136.34 227.58 152.88 227.00 162.00 C 226.42 171.12 224.99 186.20 221.02 194.02 C 217.06 201.84 214.83 216.92 203.00 214.00 C 191.17 211.08 199.10 197.33 202.78 189.78 C 206.45 182.23 210.04 167.04 209.00 158.00 C 207.96 148.96 206.89 134.67 201.23 127.77 C 195.57 120.87 193.53 102.59 207.00 106.00 Z"/>
</g>
<g fill="None" fill-opacity="0.0" stroke="#BE211C" stroke-opacity="1.00" stroke-width="0.3"><path d="
M 207.00 106.00 
C 193.53 102.59 195.57 120.87 201.23 127.77 C 206.89 134.67 207.96 148.96 209.00 158.00 C 210.04 167.04 206.45 182.23 202.78 189.78 C 199.10 197.33 191.17 211.08 203.00 214.00 C 214.83 216.92 217.06 201.84 221.02 194.02 C 224.99 186.20 226.42 171.12 227.00 162.00 C 227.58 152.88 225.75 136.34 221.92 129.08 C 218.09 121.82 215.49 108.15 207.00 106.00 Z"/>
</g>
<g fill="None" fill-opacity="0.0" stroke="#B8241E" stroke-opacity="0.99" stroke-width="0.3"><path d="
M 67.00 148.00 
C 66.59 155.59 66.85 163.40 67.00 171.00
C 67.27 184.36 72.69 191.15 82.92 200.08 C 93.16 209.00 111.04 201.42 123.00 205.00
C 115.16 196.52 109.79 184.41 110.00 173.00 C 110.21 161.59 110.73 158.73 110.00 150.00 C 109.27 141.27 112.65 137.04 113.07 131.07 C 113.50 125.11 121.70 120.46 119.00 117.00
C 119.00 117.00 118.50 117.00 118.00 117.00
C 112.85 120.81 100.44 116.92 95.00 117.00
C 79.24 118.76 67.83 132.62 67.00 148.00 Z"/>
</g>
<g fill="None" fill-opacity="0.0" stroke="#883434" stroke-opacity="0.87" stroke-width="0.3"><path d="
M 118.00 117.00 
C 110.49 117.00 102.45 116.17 95.00 117.00
C 100.44 116.92 112.85 120.81 118.00 117.00 Z"/>
</g>
<g fill="None" fill-opacity="0.0" stroke="#580A0D" stroke-opacity="0.07" stroke-width="0.3"><path d="
M 67.00 171.00 
C 66.85 163.40 66.59 155.59 67.00 148.00
C 65.84 155.16 66.13 163.79 67.00 171.00 Z"/>
</g>
<g fill="None" fill-opacity="0.0" stroke="#521C26" stroke-opacity="0.12" stroke-width="0.3"><path d="
M 252.00 168.00 
C 252.39 163.98 252.40 159.09 252.00 155.00
C 252.00 159.33 252.00 163.67 252.00 168.00 Z"/>
</g>
<g fill="#000000" fill-opacity="0.00" stroke="None">
<path d="
M 0.00 316.00 
L 316.00 316.00
L 316.00 0.00
L 0.00 0.00
L 0.00 316.00
M 252.00 155.00 
C 252.40 159.09 252.39 163.98 252.00 168.00
C 252.00 192.85 242.27 211.71 229.08 232.08 C 215.90 252.45 191.37 258.06 174.25 241.75 C 157.14 225.43 138.92 222.22 123.00 205.00
C 111.04 201.42 93.16 209.00 82.92 200.08 C 72.69 191.15 67.27 184.36 67.00 171.00
C 66.13 163.79 65.84 155.16 67.00 148.00
C 67.83 132.62 79.24 118.76 95.00 117.00
C 102.45 116.17 110.49 117.00 118.00 117.00
C 118.50 117.00 119.00 117.00 119.00 117.00
C 127.23 117.28 133.40 103.76 141.25 100.25 C 149.09 96.74 156.11 88.90 164.23 84.23 C 172.35 79.56 178.50 73.58 187.23 68.23 C 195.96 62.88 208.27 67.84 215.25 74.75 C 222.22 81.67 228.96 86.38 233.92 95.08 C 238.87 103.79 243.77 111.24 246.78 121.22 C 249.78 131.21 252.00 144.01 252.00 155.00 Z"/>
</g>
<g fill="#F23D33" fill-opacity="1.00" stroke="None">
<path d="
M 119.00 117.00 
C 121.70 120.46 113.50 125.11 113.07 131.07 C 112.65 137.04 109.27 141.27 110.00 150.00 C 110.73 158.73 110.21 161.59 110.00 173.00 C 109.79 184.41 115.16 196.52 123.00 205.00
C 138.92 222.22 157.14 225.43 174.25 241.75 C 191.37 258.06 215.90 252.45 229.08 232.08 C 242.27 211.71 252.00 192.85 252.00 168.00
C 252.00 163.67 252.00 159.33 252.00 155.00
C 252.00 144.01 249.78 131.21 246.78 121.22 C 243.77 111.24 238.87 103.79 233.92 95.08 C 228.96 86.38 222.22 81.67 215.25 74.75 C 208.27 67.84 195.96 62.88 187.23 68.23 C 178.50 73.58 172.35 79.56 164.23 84.23 C 156.11 88.90 149.09 96.74 141.25 100.25 C 133.40 103.76 127.23 117.28 119.00 117.00
M 207.00 106.00 
C 215.49 108.15 218.09 121.82 221.92 129.08 C 225.75 136.34 227.58 152.88 227.00 162.00 C 226.42 171.12 224.99 186.20 221.02 194.02 C 217.06 201.84 214.83 216.92 203.00 214.00 C 191.17 211.08 199.10 197.33 202.78 189.78 C 206.45 182.23 210.04 167.04 209.00 158.00 C 207.96 148.96 206.89 134.67 201.23 127.77 C 195.57 120.87 193.53 102.59 207.00 106.00 Z"/>
</g>
<g fill="#BE211C" fill-opacity="1.00" stroke="None">
<path d="
M 207.00 106.00 
C 193.53 102.59 195.57 120.87 201.23 127.77 C 206.89 134.67 207.96 148.96 209.00 158.00 C 210.04 167.04 206.45 182.23 202.78 189.78 C 199.10 197.33 191.17 211.08 203.00 214.00 C 214.83 216.92 217.06 201.84 221.02 194.02 C 224.99 186.20 226.42 171.12 227.00 162.00 C 227.58 152.88 225.75 136.34 221.92 129.08 C 218.09 121.82 215.49 108.15 207.00 106.00 Z"/>
</g>
<g fill="#B8241E" fill-opacity="0.99" stroke="None">
<path d="
M 67.00 148.00 
C 66.59 155.59 66.85 163.40 67.00 171.00
C 67.27 184.36 72.69 191.15 82.92 200.08 C 93.16 209.00 111.04 201.42 123.00 205.00
C 115.16 196.52 109.79 184.41 110.00 173.00 C 110.21 161.59 110.73 158.73 110.00 150.00 C 109.27 141.27 112.65 137.04 113.07 131.07 C 113.50 125.11 121.70 120.46 119.00 117.00
C 119.00 117.00 118.50 117.00 118.00 117.00
C 112.85 120.81 100.44 116.92 95.00 117.00
C 79.24 118.76 67.83 132.62 67.00 148.00 Z"/>
</g>
<g fill="#883434" fill-opacity="0.87" stroke="None">
<path d="
M 118.00 117.00 
C 110.49 117.00 102.45 116.17 95.00 117.00
C 100.44 116.92 112.85 120.81 118.00 117.00 Z"/>
</g>
<g fill="#580A0D" fill-opacity="0.07" stroke="None">
<path d="
M 67.00 171.00 
C 66.85 163.40 66.59 155.59 67.00 148.00
C 65.84 155.16 66.13 163.79 67.00 171.00 Z"/>
</g>
<g fill="#521C26" fill-opacity="0.12" stroke="None">
<path d="
M 252.00 168.00 
C 252.39 163.98 252.40 159.09 252.00 155.00
C 252.00 159.33 252.00 163.67 252.00 168.00 Z"/>
</g>
</svg>