<svg xmlns="http://www.w3.org/2000/svg" xmlns:v="https://svgstorm.com"
viewBox = "0 0 316 316"
width="316"
height="316">
<g fill="None" fill-opacity="0.0" stroke="#000000" stroke-opacity="0.00" stroke-width="0.3"><path d="
M 0.00 316.00 
L 316.00 316.00
L 316.00 0.00
L 0.00 0.00
L 0.00 316.00
M 125.00 72.00 
C 125.32 72.24 126.00 72.00 126.00 72.00
C 126.50 72.00 127.00 72.00 127.00 72.00
C 132.28 68.10 149.10 71.01 156.00 71.00 C 162.90 70.99 179.78 68.14 185.00 72.00
C 185.32 72.24 186.00 72.00 186.00 72.00
C 198.81 72.00 211.14 73.22 224.00 72.00 C 236.86 70.78 239.31 82.37 241.33 92.67 C 243.34 102.97 249.75 111.46 250.00 122.00
C 250.67 125.73 251.52 130.59 251.00 135.00
C 250.21 141.75 246.46 150.43 241.00 155.00
C 237.38 167.09 243.09 181.40 241.00 194.00 C 238.91 206.60 243.02 221.29 241.00 234.00
C 238.26 251.22 212.90 244.18 199.00 245.00 C 185.10 245.82 160.84 244.99 146.00 245.00
C 145.50 245.00 145.00 245.00 145.00 245.00
C 128.67 245.00 112.33 245.00 96.00 245.00
C 88.11 245.00 73.81 246.76 71.70 236.30 C 69.58 225.85 71.41 214.83 71.00 204.00 C 70.59 193.17 71.00 181.87 71.00 171.00
C 71.00 165.67 71.00 160.33 71.00 155.00
C 71.00 154.50 71.00 154.00 71.00 154.00
C 64.83 149.69 61.57 141.18 61.00 134.00
C 60.72 130.51 60.68 126.49 61.00 123.00
C 63.08 114.20 66.86 104.14 69.78 95.78 C 72.69 87.41 72.50 75.00 82.00 72.00
C 87.42 70.29 96.86 70.27 103.00 71.00 C 109.14 71.73 120.26 68.49 125.00 72.00 Z"/>
</g>
<g fill="None" fill-opacity="0.0" stroke="#5B2629" stroke-opacity="0.10" stroke-width="0.3"><path d="
M 82.00 72.00 
C 95.89 69.51 111.00 73.87 125.00 72.00
C 120.26 68.49 109.14 71.73 103.00 71.00 C 96.86 70.27 87.42 70.29 82.00 72.00 Z"/>
</g>
<g fill="None" fill-opacity="0.0" stroke="#52585D" stroke-opacity="0.11" stroke-width="0.3"><path d="
M 127.00 72.00 
C 146.00 72.00 165.00 72.00 184.00 72.00
C 184.50 72.00 185.00 72.00 185.00 72.00
C 179.78 68.14 162.90 70.99 156.00 71.00 C 149.10 71.01 132.28 68.10 127.00 72.00 Z"/>
</g>
<g fill="None" fill-opacity="0.0" stroke="#E9473A" stroke-opacity="1.00" stroke-width="0.3"><path d="
M 61.00 123.00 
C 61.00 122.96 62.00 123.00 62.00 123.00
C 81.33 123.00 100.67 123.00 120.00 123.00
C 121.58 105.99 123.00 88.93 125.00 72.00
C 111.00 73.87 95.89 69.51 82.00 72.00
C 72.50 75.00 72.69 87.41 69.78 95.78 C 66.86 104.14 63.08 114.20 61.00 123.00 Z"/>
</g>
<g fill="None" fill-opacity="0.0" stroke="#BD2E25" stroke-opacity="1.00" stroke-width="0.3"><path d="
M 62.00 123.00 
C 62.33 126.69 61.05 131.15 61.00 134.00
C 61.57 141.18 64.83 149.69 71.00 154.00
C 81.15 159.42 93.32 162.49 105.74 155.74 C 118.17 148.99 118.55 135.05 121.00 123.00
C 122.44 106.64 127.50 88.59 126.00 72.00
C 126.00 72.00 125.32 72.24 125.00 72.00
C 123.00 88.93 121.58 105.99 120.00 123.00
C 100.67 123.00 81.33 123.00 62.00 123.00 Z"/>
</g>
<g fill="None" fill-opacity="0.0" stroke="#E4E8ED" stroke-opacity="1.00" stroke-width="0.3"><path d="
M 121.00 123.00 
C 120.68 126.63 121.40 130.38 121.00 134.00
C 123.65 150.33 136.50 158.28 153.01 161.99 C 169.51 165.71 183.90 153.63 190.00 139.00
C 190.67 133.99 190.96 126.33 191.00 122.00
C 190.03 119.29 189.23 114.40 189.00 112.00
C 187.97 109.61 185.81 103.16 188.00 98.00
C 188.03 97.50 188.11 96.47 188.00 96.00
C 187.11 95.69 185.91 96.25 185.00 96.00
C 185.82 87.84 184.07 79.11 184.00 72.00
C 165.00 72.00 146.00 72.00 127.00 72.00
C 127.00 72.00 126.50 72.00 126.00 72.00
C 127.50 88.59 122.44 106.64 121.00 123.00 Z"/>
</g>
<g fill="None" fill-opacity="0.0" stroke="#FBDCDB" stroke-opacity="1.00" stroke-width="0.3"><path d="
M 188.00 96.00 
C 186.22 88.29 185.93 79.91 185.00 72.00
C 185.00 72.00 184.50 72.00 184.00 72.00
C 184.07 79.11 185.82 87.84 185.00 96.00
C 185.91 96.25 187.11 95.69 188.00 96.00 Z"/>
</g>
<g fill="None" fill-opacity="0.0" stroke="#BC2D23" stroke-opacity="1.00" stroke-width="0.3"><path d="
M 188.00 96.00 
C 188.11 96.47 188.03 97.50 188.00 98.00
C 187.68 102.50 188.56 107.42 189.00 112.00
C 189.23 114.40 190.03 119.29 191.00 122.00
C 191.16 122.44 191.00 123.00 191.00 123.00
C 193.15 125.91 192.25 133.06 191.00 136.00
C 191.00 136.50 191.12 137.53 191.00 138.00
C 197.58 156.89 216.64 168.22 236.00 158.00
C 237.53 157.19 239.73 156.06 241.00 155.00
C 246.46 150.43 250.21 141.75 251.00 135.00
C 251.06 132.00 250.00 126.78 250.00 123.00
C 230.82 124.73 211.22 121.70 192.00 123.00
C 190.02 106.01 188.46 88.86 186.00 72.00
C 186.00 72.00 185.32 72.24 185.00 72.00
C 185.93 79.91 186.22 88.29 188.00 96.00 Z"/>
</g>
<g fill="None" fill-opacity="0.0" stroke="#EA4739" stroke-opacity="1.00" stroke-width="0.3"><path d="
M 250.00 123.00 
C 250.00 122.50 250.00 122.00 250.00 122.00
C 249.75 111.46 243.34 102.97 241.33 92.67 C 239.31 82.37 236.86 70.78 224.00 72.00 C 211.14 73.22 198.81 72.00 186.00 72.00
C 188.46 88.86 190.02 106.01 192.00 123.00
C 211.22 121.70 230.82 124.73 250.00 123.00 Z"/>
</g>
<g fill="None" fill-opacity="0.0" stroke="#FEE5E3" stroke-opacity="1.00" stroke-width="0.3"><path d="
M 189.00 112.00 
C 188.56 107.42 187.68 102.50 188.00 98.00
C 185.81 103.16 187.97 109.61 189.00 112.00 Z"/>
</g>
<g fill="None" fill-opacity="0.0" stroke="#FFD8D4" stroke-opacity="1.00" stroke-width="0.3"><path d="
M 190.00 139.00 
C 190.11 138.74 190.91 138.35 191.00 138.00
C 191.12 137.53 191.00 136.50 191.00 136.00
C 191.00 131.67 191.00 127.33 191.00 123.00
C 191.00 123.00 191.16 122.44 191.00 122.00
C 190.96 126.33 190.67 133.99 190.00 139.00 Z"/>
</g>
<g fill="None" fill-opacity="0.0" stroke="#7D3537" stroke-opacity="0.53" stroke-width="0.3"><path d="
M 250.00 123.00 
C 250.00 126.78 251.06 132.00 251.00 135.00
C 251.52 130.59 250.67 125.73 250.00 122.00
C 250.00 122.00 250.00 122.50 250.00 123.00 Z"/>
</g>
<g fill="None" fill-opacity="0.0" stroke="#863839" stroke-opacity="0.76" stroke-width="0.3"><path d="
M 61.00 134.00 
C 61.05 131.15 62.33 126.69 62.00 123.00
C 62.00 123.00 61.00 122.96 61.00 123.00
C 60.68 126.49 60.72 130.51 61.00 134.00 Z"/>
</g>
<g fill="None" fill-opacity="0.0" stroke="#A0270C" stroke-opacity="1.00" stroke-width="0.3"><path d="
M 71.00 154.00 
C 90.02 167.77 118.20 159.04 121.00 134.00
C 121.40 130.38 120.68 126.63 121.00 123.00
C 118.55 135.05 118.17 148.99 105.74 155.74 C 93.32 162.49 81.15 159.42 71.00 154.00 Z"/>
</g>
<g fill="None" fill-opacity="0.0" stroke="#7E1C1A" stroke-opacity="1.00" stroke-width="0.3"><path d="
M 191.00 136.00 
C 192.25 133.06 193.15 125.91 191.00 123.00
C 191.00 127.33 191.00 131.67 191.00 136.00 Z"/>
</g>
<g fill="None" fill-opacity="0.0" stroke="#F8A54A" stroke-opacity="1.00" stroke-width="0.3"><path d="
M 71.00 154.00 
C 71.00 154.00 71.00 154.50 71.00 155.00
C 74.71 160.01 69.42 172.16 79.00 171.00 C 88.58 169.84 93.12 175.51 101.22 172.22 C 109.32 168.93 112.47 170.27 118.00 164.00
C 136.01 174.56 159.83 176.69 179.08 168.08 C 198.32 159.47 220.22 183.78 239.00 168.00
C 239.00 164.67 239.00 161.33 239.00 158.00
C 238.16 158.58 236.39 159.71 236.00 158.00
C 216.64 168.22 197.58 156.89 191.00 138.00
C 190.91 138.35 190.11 138.74 190.00 139.00
C 183.90 153.63 169.51 165.71 153.01 161.99 C 136.50 158.28 123.65 150.33 121.00 134.00
C 118.20 159.04 90.02 167.77 71.00 154.00 Z"/>
</g>
<g fill="None" fill-opacity="0.0" stroke="#FCC177" stroke-opacity="1.00" stroke-width="0.3"><path d="
M 71.00 171.00 
C 71.63 175.72 72.22 184.53 72.00 192.00 C 71.78 199.47 71.82 209.45 72.00 217.00 C 72.18 224.55 70.14 232.11 74.75 238.25 C 79.37 244.39 87.98 243.05 95.00 243.00
C 94.85 231.58 95.20 216.00 95.00 205.00 C 94.80 194.00 93.04 179.14 105.00 178.00
C 117.50 176.21 141.11 172.29 145.00 188.00
C 149.08 204.49 146.00 226.44 146.00 244.00
C 157.02 243.00 170.10 244.31 181.00 244.00 C 191.90 243.69 205.74 243.83 216.00 244.00 C 226.26 244.17 238.04 244.18 241.00 234.00
C 243.02 221.29 238.91 206.60 241.00 194.00 C 243.09 181.40 237.38 167.09 241.00 155.00
C 239.73 156.06 237.53 157.19 236.00 158.00
C 236.39 159.71 238.16 158.58 239.00 158.00
C 239.00 161.33 239.00 164.67 239.00 168.00
C 220.22 183.78 198.32 159.47 179.08 168.08 C 159.83 176.69 136.01 174.56 118.00 164.00
C 112.47 170.27 109.32 168.93 101.22 172.22 C 93.12 175.51 88.58 169.84 79.00 171.00 C 69.42 172.16 74.71 160.01 71.00 155.00
C 71.00 160.33 71.00 165.67 71.00 171.00
M 168.00 216.00 
C 167.80 215.60 168.00 215.00 168.00 215.00
C 161.56 213.67 166.27 199.26 165.00 194.00 C 163.73 188.74 166.23 179.53 172.70 177.70 C 179.16 175.86 188.91 177.52 196.00 177.00 C 203.09 176.48 211.55 177.57 218.00 177.00
C 218.61 179.37 220.64 182.52 223.00 183.00
C 222.53 194.64 224.06 206.76 222.00 218.00
C 206.72 223.02 181.49 226.93 168.00 216.00 Z"/>
</g>
<g fill="None" fill-opacity="0.0" stroke="#F3D295" stroke-opacity="0.98" stroke-width="0.3"><path d="
M 96.00 245.00 
C 96.25 233.60 95.66 217.98 96.00 207.00 C 96.34 196.02 92.83 182.44 105.00 178.00
C 93.04 179.14 94.80 194.00 95.00 205.00 C 95.20 216.00 94.85 231.58 95.00 243.00
C 87.98 243.05 79.37 244.39 74.75 238.25 C 70.14 232.11 72.18 224.55 72.00 217.00 C 71.82 209.45 71.78 199.47 72.00 192.00 C 72.22 184.53 71.63 175.72 71.00 171.00
C 71.00 181.87 70.59 193.17 71.00 204.00 C 71.41 214.83 69.58 225.85 71.70 236.30 C 73.81 246.76 88.11 245.00 96.00 245.00 Z"/>
</g>
<g fill="None" fill-opacity="0.0" stroke="#B75C1A" stroke-opacity="1.00" stroke-width="0.3"><path d="
M 105.00 178.00 
C 92.83 182.44 96.34 196.02 96.00 207.00 C 95.66 217.98 96.25 233.60 96.00 245.00
C 112.33 245.00 128.67 245.00 145.00 245.00
C 143.30 226.21 147.32 206.71 145.00 188.00
C 141.11 172.29 117.50 176.21 105.00 178.00 Z"/>
</g>
<g fill="None" fill-opacity="0.0" stroke="#D9CE9F" stroke-opacity="1.00" stroke-width="0.3"><path d="
M 168.00 215.00 
C 167.57 213.83 167.01 213.37 167.00 212.00
C 167.00 211.50 167.00 211.00 167.00 211.00
C 163.44 206.18 165.59 189.47 168.00 185.00
C 169.87 181.53 171.05 180.25 175.00 179.00
C 184.92 175.86 195.20 179.87 206.00 178.00 C 216.80 176.13 223.66 184.83 222.00 195.00 C 220.34 205.17 225.88 216.39 214.00 220.00
C 204.84 222.78 184.03 223.05 175.00 220.00
C 172.62 219.20 169.98 217.73 168.00 216.00
C 181.49 226.93 206.72 223.02 222.00 218.00
C 224.06 206.76 222.53 194.64 223.00 183.00
C 220.64 182.52 218.61 179.37 218.00 177.00
C 211.55 177.57 203.09 176.48 196.00 177.00 C 188.91 177.52 179.16 175.86 172.70 177.70 C 166.23 179.53 163.73 188.74 165.00 194.00 C 166.27 199.26 161.56 213.67 168.00 215.00 Z"/>
</g>
<g fill="None" fill-opacity="0.0" stroke="#328CBE" stroke-opacity="1.00" stroke-width="0.3"><path d="
M 175.00 179.00 
C 183.55 177.47 195.73 180.51 204.00 179.00 C 212.27 177.49 221.95 182.42 220.99 191.01 C 220.03 199.60 224.72 211.45 217.25 217.25 C 209.77 223.05 199.35 216.51 190.00 219.00 C 180.65 221.49 173.15 217.89 167.00 212.00
C 167.01 213.37 167.57 213.83 168.00 215.00
C 168.00 215.00 167.80 215.60 168.00 216.00
C 169.98 217.73 172.62 219.20 175.00 220.00
C 180.98 221.17 187.83 220.01 194.00 220.00 C 200.17 219.99 207.88 221.03 214.00 220.00
C 225.88 216.39 220.34 205.17 222.00 195.00 C 223.66 184.83 216.80 176.13 206.00 178.00 C 195.20 179.87 184.92 175.86 175.00 179.00 Z"/>
</g>
<g fill="None" fill-opacity="0.0" stroke="#159BEF" stroke-opacity="1.00" stroke-width="0.3"><path d="
M 168.00 185.00 
C 165.29 192.42 167.00 202.97 167.00 211.00
C 167.00 211.00 167.00 211.50 167.00 212.00
C 173.15 217.89 180.65 221.49 190.00 219.00 C 199.35 216.51 209.77 223.05 217.25 217.25 C 224.72 211.45 220.03 199.60 220.99 191.01 C 221.95 182.42 212.27 177.49 204.00 179.00 C 195.73 180.51 183.55 177.47 175.00 179.00
C 171.05 180.25 169.87 181.53 168.00 185.00 Z"/>
</g>
<g fill="None" fill-opacity="0.0" stroke="#96BCC3" stroke-opacity="1.00" stroke-width="0.3"><path d="
M 167.00 211.00 
C 167.00 202.97 165.29 192.42 168.00 185.00
C 165.59 189.47 163.44 206.18 167.00 211.00 Z"/>
</g>
<g fill="None" fill-opacity="0.0" stroke="#E89957" stroke-opacity="1.00" stroke-width="0.3"><path d="
M 145.00 245.00 
C 145.00 245.00 145.50 245.00 146.00 245.00
C 146.25 244.75 146.00 244.00 146.00 244.00
C 146.00 226.44 149.08 204.49 145.00 188.00
C 147.32 206.71 143.30 226.21 145.00 245.00 Z"/>
</g>
<g fill="None" fill-opacity="0.0" stroke="#739C98" stroke-opacity="1.00" stroke-width="0.3"><path d="
M 214.00 220.00 
C 207.88 221.03 200.17 219.99 194.00 220.00 C 187.83 220.01 180.98 221.17 175.00 220.00
C 184.03 223.05 204.84 222.78 214.00 220.00 Z"/>
</g>
<g fill="None" fill-opacity="0.0" stroke="#E3C899" stroke-opacity="0.96" stroke-width="0.3"><path d="
M 146.00 244.00 
C 146.00 244.00 146.25 244.75 146.00 245.00
C 160.84 244.99 185.10 245.82 199.00 245.00 C 212.90 244.18 238.26 251.22 241.00 234.00
C 238.04 244.18 226.26 244.17 216.00 244.00 C 205.74 243.83 191.90 243.69 181.00 244.00 C 170.10 244.31 157.02 243.00 146.00 244.00 Z"/>
</g>
<g fill="#000000" fill-opacity="0.00" stroke="None">
<path d="
M 0.00 316.00 
L 316.00 316.00
L 316.00 0.00
L 0.00 0.00
L 0.00 316.00
M 125.00 72.00 
C 125.32 72.24 126.00 72.00 126.00 72.00
C 126.50 72.00 127.00 72.00 127.00 72.00
C 132.28 68.10 149.10 71.01 156.00 71.00 C 162.90 70.99 179.78 68.14 185.00 72.00
C 185.32 72.24 186.00 72.00 186.00 72.00
C 198.81 72.00 211.14 73.22 224.00 72.00 C 236.86 70.78 239.31 82.37 241.33 92.67 C 243.34 102.97 249.75 111.46 250.00 122.00
C 250.67 125.73 251.52 130.59 251.00 135.00
C 250.21 141.75 246.46 150.43 241.00 155.00
C 237.38 167.09 243.09 181.40 241.00 194.00 C 238.91 206.60 243.02 221.29 241.00 234.00
C 238.26 251.22 212.90 244.18 199.00 245.00 C 185.10 245.82 160.84 244.99 146.00 245.00
C 145.50 245.00 145.00 245.00 145.00 245.00
C 128.67 245.00 112.33 245.00 96.00 245.00
C 88.11 245.00 73.81 246.76 71.70 236.30 C 69.58 225.85 71.41 214.83 71.00 204.00 C 70.59 193.17 71.00 181.87 71.00 171.00
C 71.00 165.67 71.00 160.33 71.00 155.00
C 71.00 154.50 71.00 154.00 71.00 154.00
C 64.83 149.69 61.57 141.18 61.00 134.00
C 60.72 130.51 60.68 126.49 61.00 123.00
C 63.08 114.20 66.86 104.14 69.78 95.78 C 72.69 87.41 72.50 75.00 82.00 72.00
C 87.42 70.29 96.86 70.27 103.00 71.00 C 109.14 71.73 120.26 68.49 125.00 72.00 Z"/>
</g>
<g fill="#5B2629" fill-opacity="0.10" stroke="None">
<path d="
M 82.00 72.00 
C 95.89 69.51 111.00 73.87 125.00 72.00
C 120.26 68.49 109.14 71.73 103.00 71.00 C 96.86 70.27 87.42 70.29 82.00 72.00 Z"/>
</g>
<g fill="#52585D" fill-opacity="0.11" stroke="None">
<path d="
M 127.00 72.00 
C 146.00 72.00 165.00 72.00 184.00 72.00
C 184.50 72.00 185.00 72.00 185.00 72.00
C 179.78 68.14 162.90 70.99 156.00 71.00 C 149.10 71.01 132.28 68.10 127.00 72.00 Z"/>
</g>
<g fill="#E9473A" fill-opacity="1.00" stroke="None">
<path d="
M 61.00 123.00 
C 61.00 122.96 62.00 123.00 62.00 123.00
C 81.33 123.00 100.67 123.00 120.00 123.00
C 121.58 105.99 123.00 88.93 125.00 72.00
C 111.00 73.87 95.89 69.51 82.00 72.00
C 72.50 75.00 72.69 87.41 69.78 95.78 C 66.86 104.14 63.08 114.20 61.00 123.00 Z"/>
</g>
<g fill="#BD2E25" fill-opacity="1.00" stroke="None">
<path d="
M 62.00 123.00 
C 62.33 126.69 61.05 131.15 61.00 134.00
C 61.57 141.18 64.83 149.69 71.00 154.00
C 81.15 159.42 93.32 162.49 105.74 155.74 C 118.17 148.99 118.55 135.05 121.00 123.00
C 122.44 106.64 127.50 88.59 126.00 72.00
C 126.00 72.00 125.32 72.24 125.00 72.00
C 123.00 88.93 121.58 105.99 120.00 123.00
C 100.67 123.00 81.33 123.00 62.00 123.00 Z"/>
</g>
<g fill="#E4E8ED" fill-opacity="1.00" stroke="None">
<path d="
M 121.00 123.00 
C 120.68 126.63 121.40 130.38 121.00 134.00
C 123.65 150.33 136.50 158.28 153.01 161.99 C 169.51 165.71 183.90 153.63 190.00 139.00
C 190.67 133.99 190.96 126.33 191.00 122.00
C 190.03 119.29 189.23 114.40 189.00 112.00
C 187.97 109.61 185.81 103.16 188.00 98.00
C 188.03 97.50 188.11 96.47 188.00 96.00
C 187.11 95.69 185.91 96.25 185.00 96.00
C 185.82 87.84 184.07 79.11 184.00 72.00
C 165.00 72.00 146.00 72.00 127.00 72.00
C 127.00 72.00 126.50 72.00 126.00 72.00
C 127.50 88.59 122.44 106.64 121.00 123.00 Z"/>
</g>
<g fill="#FBDCDB" fill-opacity="1.00" stroke="None">
<path d="
M 188.00 96.00 
C 186.22 88.29 185.93 79.91 185.00 72.00
C 185.00 72.00 184.50 72.00 184.00 72.00
C 184.07 79.11 185.82 87.84 185.00 96.00
C 185.91 96.25 187.11 95.69 188.00 96.00 Z"/>
</g>
<g fill="#BC2D23" fill-opacity="1.00" stroke="None">
<path d="
M 188.00 96.00 
C 188.11 96.47 188.03 97.50 188.00 98.00
C 187.68 102.50 188.56 107.42 189.00 112.00
C 189.23 114.40 190.03 119.29 191.00 122.00
C 191.16 122.44 191.00 123.00 191.00 123.00
C 193.15 125.91 192.25 133.06 191.00 136.00
C 191.00 136.50 191.12 137.53 191.00 138.00
C 197.58 156.89 216.64 168.22 236.00 158.00
C 237.53 157.19 239.73 156.06 241.00 155.00
C 246.46 150.43 250.21 141.75 251.00 135.00
C 251.06 132.00 250.00 126.78 250.00 123.00
C 230.82 124.73 211.22 121.70 192.00 123.00
C 190.02 106.01 188.46 88.86 186.00 72.00
C 186.00 72.00 185.32 72.24 185.00 72.00
C 185.93 79.91 186.22 88.29 188.00 96.00 Z"/>
</g>
<g fill="#EA4739" fill-opacity="1.00" stroke="None">
<path d="
M 250.00 123.00 
C 250.00 122.50 250.00 122.00 250.00 122.00
C 249.75 111.46 243.34 102.97 241.33 92.67 C 239.31 82.37 236.86 70.78 224.00 72.00 C 211.14 73.22 198.81 72.00 186.00 72.00
C 188.46 88.86 190.02 106.01 192.00 123.00
C 211.22 121.70 230.82 124.73 250.00 123.00 Z"/>
</g>
<g fill="#FEE5E3" fill-opacity="1.00" stroke="None">
<path d="
M 189.00 112.00 
C 188.56 107.42 187.68 102.50 188.00 98.00
C 185.81 103.16 187.97 109.61 189.00 112.00 Z"/>
</g>
<g fill="#FFD8D4" fill-opacity="1.00" stroke="None">
<path d="
M 190.00 139.00 
C 190.11 138.74 190.91 138.35 191.00 138.00
C 191.12 137.53 191.00 136.50 191.00 136.00
C 191.00 131.67 191.00 127.33 191.00 123.00
C 191.00 123.00 191.16 122.44 191.00 122.00
C 190.96 126.33 190.67 133.99 190.00 139.00 Z"/>
</g>
<g fill="#7D3537" fill-opacity="0.53" stroke="None">
<path d="
M 250.00 123.00 
C 250.00 126.78 251.06 132.00 251.00 135.00
C 251.52 130.59 250.67 125.73 250.00 122.00
C 250.00 122.00 250.00 122.50 250.00 123.00 Z"/>
</g>
<g fill="#863839" fill-opacity="0.76" stroke="None">
<path d="
M 61.00 134.00 
C 61.05 131.15 62.33 126.69 62.00 123.00
C 62.00 123.00 61.00 122.96 61.00 123.00
C 60.68 126.49 60.72 130.51 61.00 134.00 Z"/>
</g>
<g fill="#A0270C" fill-opacity="1.00" stroke="None">
<path d="
M 71.00 154.00 
C 90.02 167.77 118.20 159.04 121.00 134.00
C 121.40 130.38 120.68 126.63 121.00 123.00
C 118.55 135.05 118.17 148.99 105.74 155.74 C 93.32 162.49 81.15 159.42 71.00 154.00 Z"/>
</g>
<g fill="#7E1C1A" fill-opacity="1.00" stroke="None">
<path d="
M 191.00 136.00 
C 192.25 133.06 193.15 125.91 191.00 123.00
C 191.00 127.33 191.00 131.67 191.00 136.00 Z"/>
</g>
<g fill="#F8A54A" fill-opacity="1.00" stroke="None">
<path d="
M 71.00 154.00 
C 71.00 154.00 71.00 154.50 71.00 155.00
C 74.71 160.01 69.42 172.16 79.00 171.00 C 88.58 169.84 93.12 175.51 101.22 172.22 C 109.32 168.93 112.47 170.27 118.00 164.00
C 136.01 174.56 159.83 176.69 179.08 168.08 C 198.32 159.47 220.22 183.78 239.00 168.00
C 239.00 164.67 239.00 161.33 239.00 158.00
C 238.16 158.58 236.39 159.71 236.00 158.00
C 216.64 168.22 197.58 156.89 191.00 138.00
C 190.91 138.35 190.11 138.74 190.00 139.00
C 183.90 153.63 169.51 165.71 153.01 161.99 C 136.50 158.28 123.65 150.33 121.00 134.00
C 118.20 159.04 90.02 167.77 71.00 154.00 Z"/>
</g>
<g fill="#FCC177" fill-opacity="1.00" stroke="None">
<path d="
M 71.00 171.00 
C 71.63 175.72 72.22 184.53 72.00 192.00 C 71.78 199.47 71.82 209.45 72.00 217.00 C 72.18 224.55 70.14 232.11 74.75 238.25 C 79.37 244.39 87.98 243.05 95.00 243.00
C 94.85 231.58 95.20 216.00 95.00 205.00 C 94.80 194.00 93.04 179.14 105.00 178.00
C 117.50 176.21 141.11 172.29 145.00 188.00
C 149.08 204.49 146.00 226.44 146.00 244.00
C 157.02 243.00 170.10 244.31 181.00 244.00 C 191.90 243.69 205.74 243.83 216.00 244.00 C 226.26 244.17 238.04 244.18 241.00 234.00
C 243.02 221.29 238.91 206.60 241.00 194.00 C 243.09 181.40 237.38 167.09 241.00 155.00
C 239.73 156.06 237.53 157.19 236.00 158.00
C 236.39 159.71 238.16 158.58 239.00 158.00
C 239.00 161.33 239.00 164.67 239.00 168.00
C 220.22 183.78 198.32 159.47 179.08 168.08 C 159.83 176.69 136.01 174.56 118.00 164.00
C 112.47 170.27 109.32 168.93 101.22 172.22 C 93.12 175.51 88.58 169.84 79.00 171.00 C 69.42 172.16 74.71 160.01 71.00 155.00
C 71.00 160.33 71.00 165.67 71.00 171.00
M 168.00 216.00 
C 167.80 215.60 168.00 215.00 168.00 215.00
C 161.56 213.67 166.27 199.26 165.00 194.00 C 163.73 188.74 166.23 179.53 172.70 177.70 C 179.16 175.86 188.91 177.52 196.00 177.00 C 203.09 176.48 211.55 177.57 218.00 177.00
C 218.61 179.37 220.64 182.52 223.00 183.00
C 222.53 194.64 224.06 206.76 222.00 218.00
C 206.72 223.02 181.49 226.93 168.00 216.00 Z"/>
</g>
<g fill="#F3D295" fill-opacity="0.98" stroke="None">
<path d="
M 96.00 245.00 
C 96.25 233.60 95.66 217.98 96.00 207.00 C 96.34 196.02 92.83 182.44 105.00 178.00
C 93.04 179.14 94.80 194.00 95.00 205.00 C 95.20 216.00 94.85 231.58 95.00 243.00
C 87.98 243.05 79.37 244.39 74.75 238.25 C 70.14 232.11 72.18 224.55 72.00 217.00 C 71.82 209.45 71.78 199.47 72.00 192.00 C 72.22 184.53 71.63 175.72 71.00 171.00
C 71.00 181.87 70.59 193.17 71.00 204.00 C 71.41 214.83 69.58 225.85 71.70 236.30 C 73.81 246.76 88.11 245.00 96.00 245.00 Z"/>
</g>
<g fill="#B75C1A" fill-opacity="1.00" stroke="None">
<path d="
M 105.00 178.00 
C 92.83 182.44 96.34 196.02 96.00 207.00 C 95.66 217.98 96.25 233.60 96.00 245.00
C 112.33 245.00 128.67 245.00 145.00 245.00
C 143.30 226.21 147.32 206.71 145.00 188.00
C 141.11 172.29 117.50 176.21 105.00 178.00 Z"/>
</g>
<g fill="#D9CE9F" fill-opacity="1.00" stroke="None">
<path d="
M 168.00 215.00 
C 167.57 213.83 167.01 213.37 167.00 212.00
C 167.00 211.50 167.00 211.00 167.00 211.00
C 163.44 206.18 165.59 189.47 168.00 185.00
C 169.87 181.53 171.05 180.25 175.00 179.00
C 184.92 175.86 195.20 179.87 206.00 178.00 C 216.80 176.13 223.66 184.83 222.00 195.00 C 220.34 205.17 225.88 216.39 214.00 220.00
C 204.84 222.78 184.03 223.05 175.00 220.00
C 172.62 219.20 169.98 217.73 168.00 216.00
C 181.49 226.93 206.72 223.02 222.00 218.00
C 224.06 206.76 222.53 194.64 223.00 183.00
C 220.64 182.52 218.61 179.37 218.00 177.00
C 211.55 177.57 203.09 176.48 196.00 177.00 C 188.91 177.52 179.16 175.86 172.70 177.70 C 166.23 179.53 163.73 188.74 165.00 194.00 C 166.27 199.26 161.56 213.67 168.00 215.00 Z"/>
</g>
<g fill="#328CBE" fill-opacity="1.00" stroke="None">
<path d="
M 175.00 179.00 
C 183.55 177.47 195.73 180.51 204.00 179.00 C 212.27 177.49 221.95 182.42 220.99 191.01 C 220.03 199.60 224.72 211.45 217.25 217.25 C 209.77 223.05 199.35 216.51 190.00 219.00 C 180.65 221.49 173.15 217.89 167.00 212.00
C 167.01 213.37 167.57 213.83 168.00 215.00
C 168.00 215.00 167.80 215.60 168.00 216.00
C 169.98 217.73 172.62 219.20 175.00 220.00
C 180.98 221.17 187.83 220.01 194.00 220.00 C 200.17 219.99 207.88 221.03 214.00 220.00
C 225.88 216.39 220.34 205.17 222.00 195.00 C 223.66 184.83 216.80 176.13 206.00 178.00 C 195.20 179.87 184.92 175.86 175.00 179.00 Z"/>
</g>
<g fill="#159BEF" fill-opacity="1.00" stroke="None">
<path d="
M 168.00 185.00 
C 165.29 192.42 167.00 202.97 167.00 211.00
C 167.00 211.00 167.00 211.50 167.00 212.00
C 173.15 217.89 180.65 221.49 190.00 219.00 C 199.35 216.51 209.77 223.05 217.25 217.25 C 224.72 211.45 220.03 199.60 220.99 191.01 C 221.95 182.42 212.27 177.49 204.00 179.00 C 195.73 180.51 183.55 177.47 175.00 179.00
C 171.05 180.25 169.87 181.53 168.00 185.00 Z"/>
</g>
<g fill="#96BCC3" fill-opacity="1.00" stroke="None">
<path d="
M 167.00 211.00 
C 167.00 202.97 165.29 192.42 168.00 185.00
C 165.59 189.47 163.44 206.18 167.00 211.00 Z"/>
</g>
<g fill="#E89957" fill-opacity="1.00" stroke="None">
<path d="
M 145.00 245.00 
C 145.00 245.00 145.50 245.00 146.00 245.00
C 146.25 244.75 146.00 244.00 146.00 244.00
C 146.00 226.44 149.08 204.49 145.00 188.00
C 147.32 206.71 143.30 226.21 145.00 245.00 Z"/>
</g>
<g fill="#739C98" fill-opacity="1.00" stroke="None">
<path d="
M 214.00 220.00 
C 207.88 221.03 200.17 219.99 194.00 220.00 C 187.83 220.01 180.98 221.17 175.00 220.00
C 184.03 223.05 204.84 222.78 214.00 220.00 Z"/>
</g>
<g fill="#E3C899" fill-opacity="0.96" stroke="None">
<path d="
M 146.00 244.00 
C 146.00 244.00 146.25 244.75 146.00 245.00
C 160.84 244.99 185.10 245.82 199.00 245.00 C 212.90 244.18 238.26 251.22 241.00 234.00
C 238.04 244.18 226.26 244.17 216.00 244.00 C 205.74 243.83 191.90 243.69 181.00 244.00 C 170.10 244.31 157.02 243.00 146.00 244.00 Z"/>
</g>
</svg>