<svg xmlns="http://www.w3.org/2000/svg" xmlns:v="https://svgstorm.com"
viewBox = "0 0 316 316"
width="316"
height="316">
<g fill="None" fill-opacity="0.0" stroke="#000000" stroke-opacity="0.00" stroke-width="0.3"><path d="
M 0.00 316.00 
L 316.00 316.00
L 316.00 0.00
L 0.00 0.00
L 0.00 316.00
M 164.00 67.00 
C 163.50 67.00 163.00 67.00 163.00 67.00
C 163.40 71.41 163.40 76.59 163.00 81.00
C 167.14 86.41 181.21 85.03 187.23 89.77 C 193.25 94.51 203.21 96.60 209.00 102.00
C 209.00 100.71 209.58 100.15 210.00 99.00
C 211.98 93.52 208.48 87.67 215.25 83.25 C 222.02 78.83 226.90 77.42 232.75 82.25 C 238.59 87.08 242.44 91.70 240.67 98.67 C 238.90 105.64 231.76 110.02 225.00 108.00
C 224.79 108.10 221.00 113.98 221.00 114.00
C 246.30 139.30 249.81 188.51 233.00 219.00
C 201.54 276.07 120.30 287.98 76.25 236.75 C 32.19 185.52 58.02 103.37 122.00 85.00
C 126.15 83.81 130.63 82.35 135.00 82.00
C 134.66 77.03 135.45 71.96 135.00 67.00
C 134.50 67.00 134.00 67.00 134.00 67.00
C 122.64 67.00 111.42 60.27 117.31 48.31 C 123.19 36.34 138.40 40.92 149.00 41.00 C 159.60 41.08 173.85 36.15 180.30 47.70 C 186.75 59.24 175.45 67.00 164.00 67.00 Z"/>
</g>
<g fill="None" fill-opacity="0.0" stroke="#3EA9DE" stroke-opacity="0.84" stroke-width="0.3"><path d="
M 134.00 67.00 
C 128.73 63.10 117.52 65.41 118.00 55.00 C 118.48 44.59 123.11 42.89 133.00 43.00 C 142.89 43.11 152.23 43.02 162.00 43.00 C 171.77 42.98 178.42 42.74 180.00 54.00 C 181.58 65.26 169.22 63.13 164.00 67.00
C 175.45 67.00 186.75 59.24 180.30 47.70 C 173.85 36.15 159.60 41.08 149.00 41.00 C 138.40 40.92 123.19 36.34 117.31 48.31 C 111.42 60.27 122.64 67.00 134.00 67.00 Z"/>
</g>
<g fill="None" fill-opacity="0.0" stroke="#149BEE" stroke-opacity="1.00" stroke-width="0.3"><path d="
M 134.00 67.00 
C 134.00 67.00 134.50 67.00 135.00 67.00
C 144.00 67.00 153.00 67.00 162.00 67.00
C 162.50 67.00 163.00 67.00 163.00 67.00
C 163.00 67.00 163.50 67.00 164.00 67.00
C 169.22 63.13 181.58 65.26 180.00 54.00 C 178.42 42.74 171.77 42.98 162.00 43.00 C 152.23 43.02 142.89 43.11 133.00 43.00 C 123.11 42.89 118.48 44.59 118.00 55.00 C 117.52 65.41 128.73 63.10 134.00 67.00 Z"/>
</g>
<g fill="None" fill-opacity="0.0" stroke="#0A6CB0" stroke-opacity="1.00" stroke-width="0.3"><path d="
M 135.00 82.00 
C 141.92 81.45 156.68 84.94 162.00 81.00
C 161.60 76.59 161.60 71.41 162.00 67.00
C 153.00 67.00 144.00 67.00 135.00 67.00
C 135.45 71.96 134.66 77.03 135.00 82.00 Z"/>
</g>
<g fill="None" fill-opacity="0.0" stroke="#3679A8" stroke-opacity="0.41" stroke-width="0.3"><path d="
M 162.00 81.00 
C 162.32 80.76 163.00 81.00 163.00 81.00
C 163.40 76.59 163.40 71.41 163.00 67.00
C 163.00 67.00 162.50 67.00 162.00 67.00
C 161.60 71.41 161.60 76.59 162.00 81.00 Z"/>
</g>
<g fill="None" fill-opacity="0.0" stroke="#1E9EEC" stroke-opacity="0.98" stroke-width="0.3"><path d="
M 210.00 99.00 
C 214.52 94.81 221.12 106.84 225.00 108.00
C 231.76 110.02 238.90 105.64 240.67 98.67 C 242.44 91.70 238.59 87.08 232.75 82.25 C 226.90 77.42 222.02 78.83 215.25 83.25 C 208.48 87.67 211.98 93.52 210.00 99.00 Z"/>
</g>
<g fill="None" fill-opacity="0.0" stroke="#159CEF" stroke-opacity="1.00" stroke-width="0.3"><path d="
M 135.00 82.00 
C 130.63 82.35 126.15 83.81 122.00 85.00
C 104.95 93.71 88.12 101.21 75.70 117.70 C 63.28 134.19 54.68 156.62 56.00 178.00 C 57.32 199.38 63.81 220.11 77.75 236.25 C 91.69 252.38 107.57 260.89 128.01 265.99 C 148.45 271.10 175.19 266.89 193.23 257.23 C 211.27 247.57 220.71 234.41 233.00 219.00
C 249.81 188.51 246.30 139.30 221.00 114.00
C 218.21 111.21 209.00 107.09 209.00 102.00
C 203.21 96.60 193.25 94.51 187.23 89.77 C 181.21 85.03 167.14 86.41 163.00 81.00
C 163.00 81.00 162.32 80.76 162.00 81.00
C 156.68 84.94 141.92 81.45 135.00 82.00
M 214.00 143.00 
C 214.17 143.33 214.74 143.75 215.00 144.00
C 224.11 152.73 223.32 172.57 222.67 184.67 C 222.02 196.77 215.55 210.24 208.23 220.23 C 200.91 230.22 192.96 236.80 181.77 242.77 C 170.58 248.74 152.86 250.62 139.93 249.07 C 126.99 247.52 114.83 243.62 104.30 235.70 C 93.77 227.78 88.33 219.38 82.08 207.92 C 75.82 196.47 74.08 179.61 75.00 166.00 C 75.92 152.39 82.33 141.37 89.75 130.75 C 97.17 120.13 105.05 113.94 116.23 108.23 C 127.41 102.52 146.81 99.20 159.00 101.00 C 171.19 102.80 185.25 108.90 193.25 115.75 C 201.24 122.61 215.89 133.95 214.00 143.00 Z"/>
</g>
<g fill="None" fill-opacity="0.0" stroke="#3CAFE6" stroke-opacity="0.84" stroke-width="0.3"><path d="
M 233.00 219.00 
C 220.71 234.41 211.27 247.57 193.23 257.23 C 175.19 266.89 148.45 271.10 128.01 265.99 C 107.57 260.89 91.69 252.38 77.75 236.25 C 63.81 220.11 57.32 199.38 56.00 178.00 C 54.68 156.62 63.28 134.19 75.70 117.70 C 88.12 101.21 104.95 93.71 122.00 85.00
C 58.02 103.37 32.19 185.52 76.25 236.75 C 120.30 287.98 201.54 276.07 233.00 219.00 Z"/>
</g>
<g fill="None" fill-opacity="0.0" stroke="#0C70B6" stroke-opacity="0.97" stroke-width="0.3"><path d="
M 210.00 99.00 
C 209.58 100.15 209.00 100.71 209.00 102.00
C 209.00 107.09 218.21 111.21 221.00 114.00
C 221.00 113.98 224.79 108.10 225.00 108.00
C 221.12 106.84 214.52 94.81 210.00 99.00 Z"/>
</g>
<g fill="None" fill-opacity="0.0" stroke="#2E8CD1" stroke-opacity="1.00" stroke-width="0.3"><path d="
M 215.00 144.00 
C 217.27 152.42 220.65 159.88 221.00 169.00
C 221.57 172.98 221.56 177.09 221.00 181.00
C 219.05 232.07 160.25 263.49 115.92 241.08 C 71.60 218.66 62.44 158.22 97.25 123.25 C 132.05 88.28 191.52 99.59 214.00 143.00
C 215.89 133.95 201.24 122.61 193.25 115.75 C 185.25 108.90 171.19 102.80 159.00 101.00 C 146.81 99.20 127.41 102.52 116.23 108.23 C 105.05 113.94 97.17 120.13 89.75 130.75 C 82.33 141.37 75.92 152.39 75.00 166.00 C 74.08 179.61 75.82 196.47 82.08 207.92 C 88.33 219.38 93.77 227.78 104.30 235.70 C 114.83 243.62 126.99 247.52 139.93 249.07 C 152.86 250.62 170.58 248.74 181.77 242.77 C 192.96 236.80 200.91 230.22 208.23 220.23 C 215.55 210.24 222.02 196.77 222.67 184.67 C 223.32 172.57 224.11 152.73 215.00 144.00 Z"/>
</g>
<g fill="None" fill-opacity="0.0" stroke="#D7F8FE" stroke-opacity="1.00" stroke-width="0.3"><path d="
M 221.00 181.00 
C 221.15 177.04 221.15 172.96 221.00 169.00
C 220.65 159.88 217.27 152.42 215.00 144.00
C 214.74 143.75 214.17 143.33 214.00 143.00
C 191.52 99.59 132.05 88.28 97.25 123.25 C 62.44 158.22 71.60 218.66 115.92 241.08 C 160.25 263.49 219.05 232.07 221.00 181.00
M 153.00 103.00 
C 206.31 108.16 237.72 168.53 208.70 214.70 C 179.67 260.86 110.74 255.92 85.70 209.30 C 60.65 162.69 97.76 97.65 153.00 103.00 Z"/>
</g>
<g fill="None" fill-opacity="0.0" stroke="#ECEFF4" stroke-opacity="1.00" stroke-width="0.3"><path d="
M 153.00 103.00 
C 97.76 97.65 60.65 162.69 85.70 209.30 C 110.74 255.92 179.67 260.86 208.70 214.70 C 237.72 168.53 206.31 108.16 153.00 103.00
M 152.00 119.00 
C 158.86 121.79 153.52 135.96 155.00 142.00 C 156.48 148.04 152.25 160.74 158.23 164.77 C 164.21 168.80 165.29 177.43 162.22 183.22 C 159.16 189.02 152.55 193.59 145.33 191.67 C 138.11 189.75 134.65 185.79 133.01 177.99 C 131.37 170.20 140.27 166.85 140.99 159.99 C 141.72 153.13 141.23 141.01 141.00 134.00 C 140.77 126.99 141.16 114.59 152.00 119.00 Z"/>
</g>
<g fill="None" fill-opacity="0.0" stroke="#000000" stroke-opacity="0.00" stroke-width="0.3"><path d="
M 152.00 119.00 
C 141.16 114.59 140.77 126.99 141.00 134.00 C 141.23 141.01 141.72 153.13 140.99 159.99 C 140.27 166.85 131.37 170.20 133.01 177.99 C 134.65 185.79 138.11 189.75 145.33 191.67 C 152.55 193.59 159.16 189.02 162.22 183.22 C 165.29 177.43 164.21 168.80 158.23 164.77 C 152.25 160.74 156.48 148.04 155.00 142.00 C 153.52 135.96 158.86 121.79 152.00 119.00 Z"/>
</g>
<g fill="None" fill-opacity="0.0" stroke="#74B6E7" stroke-opacity="1.00" stroke-width="0.3"><path d="
M 221.00 181.00 
C 221.56 177.09 221.57 172.98 221.00 169.00
C 221.15 172.96 221.15 177.04 221.00 181.00 Z"/>
</g>
<g fill="#000000" fill-opacity="0.00" stroke="None">
<path d="
M 0.00 316.00 
L 316.00 316.00
L 316.00 0.00
L 0.00 0.00
L 0.00 316.00
M 164.00 67.00 
C 163.50 67.00 163.00 67.00 163.00 67.00
C 163.40 71.41 163.40 76.59 163.00 81.00
C 167.14 86.41 181.21 85.03 187.23 89.77 C 193.25 94.51 203.21 96.60 209.00 102.00
C 209.00 100.71 209.58 100.15 210.00 99.00
C 211.98 93.52 208.48 87.67 215.25 83.25 C 222.02 78.83 226.90 77.42 232.75 82.25 C 238.59 87.08 242.44 91.70 240.67 98.67 C 238.90 105.64 231.76 110.02 225.00 108.00
C 224.79 108.10 221.00 113.98 221.00 114.00
C 246.30 139.30 249.81 188.51 233.00 219.00
C 201.54 276.07 120.30 287.98 76.25 236.75 C 32.19 185.52 58.02 103.37 122.00 85.00
C 126.15 83.81 130.63 82.35 135.00 82.00
C 134.66 77.03 135.45 71.96 135.00 67.00
C 134.50 67.00 134.00 67.00 134.00 67.00
C 122.64 67.00 111.42 60.27 117.31 48.31 C 123.19 36.34 138.40 40.92 149.00 41.00 C 159.60 41.08 173.85 36.15 180.30 47.70 C 186.75 59.24 175.45 67.00 164.00 67.00 Z"/>
</g>
<g fill="#3EA9DE" fill-opacity="0.84" stroke="None">
<path d="
M 134.00 67.00 
C 128.73 63.10 117.52 65.41 118.00 55.00 C 118.48 44.59 123.11 42.89 133.00 43.00 C 142.89 43.11 152.23 43.02 162.00 43.00 C 171.77 42.98 178.42 42.74 180.00 54.00 C 181.58 65.26 169.22 63.13 164.00 67.00
C 175.45 67.00 186.75 59.24 180.30 47.70 C 173.85 36.15 159.60 41.08 149.00 41.00 C 138.40 40.92 123.19 36.34 117.31 48.31 C 111.42 60.27 122.64 67.00 134.00 67.00 Z"/>
</g>
<g fill="#149BEE" fill-opacity="1.00" stroke="None">
<path d="
M 134.00 67.00 
C 134.00 67.00 134.50 67.00 135.00 67.00
C 144.00 67.00 153.00 67.00 162.00 67.00
C 162.50 67.00 163.00 67.00 163.00 67.00
C 163.00 67.00 163.50 67.00 164.00 67.00
C 169.22 63.13 181.58 65.26 180.00 54.00 C 178.42 42.74 171.77 42.98 162.00 43.00 C 152.23 43.02 142.89 43.11 133.00 43.00 C 123.11 42.89 118.48 44.59 118.00 55.00 C 117.52 65.41 128.73 63.10 134.00 67.00 Z"/>
</g>
<g fill="#0A6CB0" fill-opacity="1.00" stroke="None">
<path d="
M 135.00 82.00 
C 141.92 81.45 156.68 84.94 162.00 81.00
C 161.60 76.59 161.60 71.41 162.00 67.00
C 153.00 67.00 144.00 67.00 135.00 67.00
C 135.45 71.96 134.66 77.03 135.00 82.00 Z"/>
</g>
<g fill="#3679A8" fill-opacity="0.41" stroke="None">
<path d="
M 162.00 81.00 
C 162.32 80.76 163.00 81.00 163.00 81.00
C 163.40 76.59 163.40 71.41 163.00 67.00
C 163.00 67.00 162.50 67.00 162.00 67.00
C 161.60 71.41 161.60 76.59 162.00 81.00 Z"/>
</g>
<g fill="#1E9EEC" fill-opacity="0.98" stroke="None">
<path d="
M 210.00 99.00 
C 214.52 94.81 221.12 106.84 225.00 108.00
C 231.76 110.02 238.90 105.64 240.67 98.67 C 242.44 91.70 238.59 87.08 232.75 82.25 C 226.90 77.42 222.02 78.83 215.25 83.25 C 208.48 87.67 211.98 93.52 210.00 99.00 Z"/>
</g>
<g fill="#159CEF" fill-opacity="1.00" stroke="None">
<path d="
M 135.00 82.00 
C 130.63 82.35 126.15 83.81 122.00 85.00
C 104.95 93.71 88.12 101.21 75.70 117.70 C 63.28 134.19 54.68 156.62 56.00 178.00 C 57.32 199.38 63.81 220.11 77.75 236.25 C 91.69 252.38 107.57 260.89 128.01 265.99 C 148.45 271.10 175.19 266.89 193.23 257.23 C 211.27 247.57 220.71 234.41 233.00 219.00
C 249.81 188.51 246.30 139.30 221.00 114.00
C 218.21 111.21 209.00 107.09 209.00 102.00
C 203.21 96.60 193.25 94.51 187.23 89.77 C 181.21 85.03 167.14 86.41 163.00 81.00
C 163.00 81.00 162.32 80.76 162.00 81.00
C 156.68 84.94 141.92 81.45 135.00 82.00
M 214.00 143.00 
C 214.17 143.33 214.74 143.75 215.00 144.00
C 224.11 152.73 223.32 172.57 222.67 184.67 C 222.02 196.77 215.55 210.24 208.23 220.23 C 200.91 230.22 192.96 236.80 181.77 242.77 C 170.58 248.74 152.86 250.62 139.93 249.07 C 126.99 247.52 114.83 243.62 104.30 235.70 C 93.77 227.78 88.33 219.38 82.08 207.92 C 75.82 196.47 74.08 179.61 75.00 166.00 C 75.92 152.39 82.33 141.37 89.75 130.75 C 97.17 120.13 105.05 113.94 116.23 108.23 C 127.41 102.52 146.81 99.20 159.00 101.00 C 171.19 102.80 185.25 108.90 193.25 115.75 C 201.24 122.61 215.89 133.95 214.00 143.00 Z"/>
</g>
<g fill="#3CAFE6" fill-opacity="0.84" stroke="None">
<path d="
M 233.00 219.00 
C 220.71 234.41 211.27 247.57 193.23 257.23 C 175.19 266.89 148.45 271.10 128.01 265.99 C 107.57 260.89 91.69 252.38 77.75 236.25 C 63.81 220.11 57.32 199.38 56.00 178.00 C 54.68 156.62 63.28 134.19 75.70 117.70 C 88.12 101.21 104.95 93.71 122.00 85.00
C 58.02 103.37 32.19 185.52 76.25 236.75 C 120.30 287.98 201.54 276.07 233.00 219.00 Z"/>
</g>
<g fill="#0C70B6" fill-opacity="0.97" stroke="None">
<path d="
M 210.00 99.00 
C 209.58 100.15 209.00 100.71 209.00 102.00
C 209.00 107.09 218.21 111.21 221.00 114.00
C 221.00 113.98 224.79 108.10 225.00 108.00
C 221.12 106.84 214.52 94.81 210.00 99.00 Z"/>
</g>
<g fill="#2E8CD1" fill-opacity="1.00" stroke="None">
<path d="
M 215.00 144.00 
C 217.27 152.42 220.65 159.88 221.00 169.00
C 221.57 172.98 221.56 177.09 221.00 181.00
C 219.05 232.07 160.25 263.49 115.92 241.08 C 71.60 218.66 62.44 158.22 97.25 123.25 C 132.05 88.28 191.52 99.59 214.00 143.00
C 215.89 133.95 201.24 122.61 193.25 115.75 C 185.25 108.90 171.19 102.80 159.00 101.00 C 146.81 99.20 127.41 102.52 116.23 108.23 C 105.05 113.94 97.17 120.13 89.75 130.75 C 82.33 141.37 75.92 152.39 75.00 166.00 C 74.08 179.61 75.82 196.47 82.08 207.92 C 88.33 219.38 93.77 227.78 104.30 235.70 C 114.83 243.62 126.99 247.52 139.93 249.07 C 152.86 250.62 170.58 248.74 181.77 242.77 C 192.96 236.80 200.91 230.22 208.23 220.23 C 215.55 210.24 222.02 196.77 222.67 184.67 C 223.32 172.57 224.11 152.73 215.00 144.00 Z"/>
</g>
<g fill="#D7F8FE" fill-opacity="1.00" stroke="None">
<path d="
M 221.00 181.00 
C 221.15 177.04 221.15 172.96 221.00 169.00
C 220.65 159.88 217.27 152.42 215.00 144.00
C 214.74 143.75 214.17 143.33 214.00 143.00
C 191.52 99.59 132.05 88.28 97.25 123.25 C 62.44 158.22 71.60 218.66 115.92 241.08 C 160.25 263.49 219.05 232.07 221.00 181.00
M 153.00 103.00 
C 206.31 108.16 237.72 168.53 208.70 214.70 C 179.67 260.86 110.74 255.92 85.70 209.30 C 60.65 162.69 97.76 97.65 153.00 103.00 Z"/>
</g>
<g fill="#ECEFF4" fill-opacity="1.00" stroke="None">
<path d="
M 153.00 103.00 
C 97.76 97.65 60.65 162.69 85.70 209.30 C 110.74 255.92 179.67 260.86 208.70 214.70 C 237.72 168.53 206.31 108.16 153.00 103.00
M 152.00 119.00 
C 158.86 121.79 153.52 135.96 155.00 142.00 C 156.48 148.04 152.25 160.74 158.23 164.77 C 164.21 168.80 165.29 177.43 162.22 183.22 C 159.16 189.02 152.55 193.59 145.33 191.67 C 138.11 189.75 134.65 185.79 133.01 177.99 C 131.37 170.20 140.27 166.85 140.99 159.99 C 141.72 153.13 141.23 141.01 141.00 134.00 C 140.77 126.99 141.16 114.59 152.00 119.00 Z"/>
</g>
<g fill="#000000" fill-opacity="0.00" stroke="None">
<path d="
M 152.00 119.00 
C 141.16 114.59 140.77 126.99 141.00 134.00 C 141.23 141.01 141.72 153.13 140.99 159.99 C 140.27 166.85 131.37 170.20 133.01 177.99 C 134.65 185.79 138.11 189.75 145.33 191.67 C 152.55 193.59 159.16 189.02 162.22 183.22 C 165.29 177.43 164.21 168.80 158.23 164.77 C 152.25 160.74 156.48 148.04 155.00 142.00 C 153.52 135.96 158.86 121.79 152.00 119.00 Z"/>
</g>
<g fill="#74B6E7" fill-opacity="1.00" stroke="None">
<path d="
M 221.00 181.00 
C 221.56 177.09 221.57 172.98 221.00 169.00
C 221.15 172.96 221.15 177.04 221.00 181.00 Z"/>
</g>
</svg>