<svg xmlns="http://www.w3.org/2000/svg" xmlns:xlink="http://www.w3.org/1999/xlink" viewBox="0 0 1080 1080" width="1080" height="1080" preserveAspectRatio="xMidYMid meet" style="width: 100%; height: 100%; transform: translate3d(0px, 0px, 0px); content-visibility: visible;"><defs><clipPath id="__lottie_element_2777"><rect width="1080" height="1080" x="0" y="0"></rect></clipPath><g id="__lottie_element_2778"><g style="display: block;" transform="matrix(1,0,0,1,519.6948852539062,527.6640014648438)" opacity="1"><path fill="rgb(255,255,255)" fill-opacity="1" d=" M-97.80221557617188,-40.73698425292969 C-118.48119354248047,-31.42551612854004 -116.5573501586914,-9.95377254486084 -104.94349670410156,-5.556553363800049 C-94.57311248779297,-0.5376011729240417 -74.01235961914062,-6.19393253326416 -70.18060302734375,-21.144451141357422 C-67.85737609863281,-27.612943649291992 -70.3454818725586,-34.455101013183594 -75.60847473144531,-38.714481353759766 C-80.8948974609375,-42.99248504638672 -88.98021697998047,-44.66571044921875 -97.80221557617188,-40.73698425292969z"></path></g></g><mask id="__lottie_element_2778_1" mask-type="alpha"><use xlink:href="#__lottie_element_2778"></use></mask><g id="__lottie_element_2802"><g transform="matrix(1,0,0,1,519.6948852539062,527.6640014648438)" opacity="1" style="display: block;"><path fill="rgb(255,255,255)" fill-opacity="1" d=" M-120.5,-91.06900024414062 C-120.5,-107.78600311279297 -106.80000305175781,-123.54900360107422 -90.19000244140625,-125.95800018310547 C-74.1500015258789,-128.2830047607422 -61.36000061035156,-117.26799774169922 -61.36000061035156,-101.13200378417969 C-61.36000061035156,-101.13200378417969 -61.36000061035156,-82.12899780273438 -61.36000061035156,-82.12899780273438 C-61.36000061035156,-65.41200256347656 -75.05999755859375,-49.64899826049805 -91.66999816894531,-47.2400016784668 C-107.69999694824219,-44.915000915527344 -120.5,-55.93000030517578 -120.5,-72.06600189208984 C-120.5,-72.06600189208984 -120.5,-91.06900024414062 -120.5,-91.06900024414062z M-54.2599983215332,-117.49800109863281 C-54.2599983215332,-134.27999877929688 -40.560001373291016,-152.0749969482422 -25.15999984741211,-155.28700256347656 C-12.449999809265137,-157.93899536132812 -2.9700000286102295,-149.57899475097656 -2.9700000286102295,-135.7169952392578 C-2.9700000286102295,-135.7169952392578 -2.9700000286102295,-114.94200134277344 -2.9700000286102295,-114.94200134277344 C-2.9700000286102295,-98.16100311279297 -16.670000076293945,-80.36499786376953 -32.060001373291016,-77.15399932861328 C-44.779998779296875,-74.5009994506836 -54.2599983215332,-82.86100006103516 -54.2599983215332,-96.7229995727539 C-54.2599983215332,-96.7229995727539 -54.2599983215332,-117.49800109863281 -54.2599983215332,-117.49800109863281z"></path></g></g><mask id="__lottie_element_2802_1" mask-type="alpha"><use xlink:href="#__lottie_element_2802"></use></mask><g id="__lottie_element_2832"><g transform="matrix(0.9757732152938843,-0.21878443658351898,0.21878443658351898,0.9757732152938843,540.9918212890625,535.399658203125)" opacity="1" style="display: block;"><path fill="rgb(236,227,227)" fill-opacity="1" d=" M137.27200317382812,0.5910000205039978 C137.27200317382812,0.5910000205039978 150.4010009765625,27.893999099731445 150.4010009765625,27.893999099731445 C152.40899658203125,32.07099914550781 157.31100463867188,34.28799819946289 161.49200439453125,32.79600143432617 C161.49200439453125,32.79600143432617 202.05599975585938,18.31800079345703 202.05599975585938,18.31800079345703 C209.3780059814453,15.630999565124512 216.51800537109375,3.1500000953674316 205.73899841308594,-16.70800018310547 C195.33200073242188,-35.88100051879883 183.06700134277344,-37.65599822998047 177.0050048828125,-33.77799987792969 C177.0050048828125,-33.77799987792969 140.36900329589844,-11.133000373840332 140.36900329589844,-11.133000373840332 C136.59300231933594,-8.798999786376953 135.26400756835938,-3.5859999656677246 137.27200317382812,0.5910000205039978z"></path></g></g><mask id="__lottie_element_2832_1" mask-type="alpha"><use xlink:href="#__lottie_element_2832"></use></mask><clipPath id="__lottie_element_2845"><path d="M0,0 L1080,0 L1080,1080 L0,1080z"></path></clipPath><clipPath id="__lottie_element_2849"><path d="M0,0 L1080,0 L1080,1080 L0,1080z"></path></clipPath><clipPath id="__lottie_element_2856"><path d="M0,0 L1080,0 L1080,1080 L0,1080z"></path></clipPath><clipPath id="__lottie_element_2863"><path d="M0,0 L1080,0 L1080,1080 L0,1080z"></path></clipPath><clipPath id="__lottie_element_2870"><path d="M0,0 L1080,0 L1080,1080 L0,1080z"></path></clipPath><clipPath id="__lottie_element_2877"><path d="M0,0 L1080,0 L1080,1080 L0,1080z"></path></clipPath><clipPath id="__lottie_element_2884"><path d="M0,0 L1080,0 L1080,1080 L0,1080z"></path></clipPath><clipPath id="__lottie_element_2891"><path d="M0,0 L1080,0 L1080,1080 L0,1080z"></path></clipPath><clipPath id="__lottie_element_2898"><path d="M0,0 L1080,0 L1080,1080 L0,1080z"></path></clipPath><clipPath id="__lottie_element_2905"><path d="M0,0 L1080,0 L1080,1080 L0,1080z"></path></clipPath><clipPath id="__lottie_element_2912"><path d="M0,0 L1080,0 L1080,1080 L0,1080z"></path></clipPath><clipPath id="__lottie_element_2919"><path d="M0,0 L1080,0 L1080,1080 L0,1080z"></path></clipPath><clipPath id="__lottie_element_2926"><path d="M0,0 L1080,0 L1080,1080 L0,1080z"></path></clipPath><clipPath id="__lottie_element_2933"><path d="M0,0 L1080,0 L1080,1080 L0,1080z"></path></clipPath><clipPath id="__lottie_element_2940"><path d="M0,0 L1080,0 L1080,1080 L0,1080z"></path></clipPath><clipPath id="__lottie_element_2947"><path d="M0,0 L1080,0 L1080,1080 L0,1080z"></path></clipPath><clipPath id="__lottie_element_2954"><path d="M0,0 L1080,0 L1080,1080 L0,1080z"></path></clipPath><clipPath id="__lottie_element_2961"><path d="M0,0 L1080,0 L1080,1080 L0,1080z"></path></clipPath><clipPath id="__lottie_element_2968"><path d="M0,0 L1080,0 L1080,1080 L0,1080z"></path></clipPath><clipPath id="__lottie_element_2975"><path d="M0,0 L1080,0 L1080,1080 L0,1080z"></path></clipPath><clipPath id="__lottie_element_2982"><path d="M0,0 L1080,0 L1080,1080 L0,1080z"></path></clipPath><clipPath id="__lottie_element_2989"><path d="M0,0 L1080,0 L1080,1080 L0,1080z"></path></clipPath><clipPath id="__lottie_element_2996"><path d="M0,0 L1080,0 L1080,1080 L0,1080z"></path></clipPath></defs><g clip-path="url(#__lottie_element_2777)"><g transform="matrix(1,0,0,1,540,540)" opacity="0.3" style="display: block;"><path fill="rgb(175,175,175)" fill-opacity="1" d=" M300.5400085449219,391.3299865722656 C300.5400085449219,450.5 238.92999267578125,498.4599914550781 162.94000244140625,498.4599914550781 C87.5,498.4599914550781 11,447 27.56999969482422,372.07000732421875 C-8.630000114440918,403.54998779296875 -61.220001220703125,423.3599853515625 -119.75,423.3599853515625 C-228.92999267578125,423.3599853515625 -317.44000244140625,354.44000244140625 -317.44000244140625,269.42999267578125 C-317.44000244140625,184.4199981689453 -228.92999267578125,115.5 -119.75,115.5 C20.5,115.5 104,218 70.20999908447266,312.19000244140625 C94.66999816894531,294.79998779296875 127.22000122070312,284.20001220703125 162.94000244140625,284.20001220703125 C238.92999267578125,284.20001220703125 300.5400085449219,332.1600036621094 300.5400085449219,391.3299865722656z"></path></g><g transform="matrix(1,0,0,1,540,540)" opacity="1" style="display: block;"><path fill="rgb(191,95,0)" fill-opacity="1" d=" M10.880000114440918,308.1000061035156 C10.880000114440918,308.1000061035156 -42.27000045776367,308.1000061035156 -42.27000045776367,308.1000061035156 C-58.349998474121094,313.9100036621094 -76.80999755859375,317.6400146484375 -96.58999633789062,318.6700134277344 C-96.58999633789062,318.6700134277344 -130.63999938964844,348.19000244140625 -130.63999938964844,348.19000244140625 C-149.16000366210938,359.75 -161.5500030517578,353.3599853515625 -170.2100067138672,339.6499938964844 C-170.2100067138672,339.6499938964844 -187.47999572753906,302.3299865722656 -187.47999572753906,302.3299865722656 C-195.94000244140625,298.2799987792969 -203.47999572753906,293.5799865722656 -209.88999938964844,288.3699951171875 C-209.88999938964844,288.3699951171875 -254.44000244140625,276.989990234375 -254.44000244140625,276.989990234375 C-271.239990234375,273.0400085449219 -277.07000732421875,258.6700134277344 -265.82000732421875,248.49000549316406 C-265.82000732421875,248.49000549316406 -233.77999877929688,221.69000244140625 -233.77999877929688,221.69000244140625 C-233.77999877929688,221.69000244140625 -233.77999877929688,161.82000732421875 -233.77999877929688,161.82000732421875 C-233.77999877929688,161.82000732421875 17.850000381469727,161.82000732421875 17.850000381469727,161.82000732421875 C17.850000381469727,161.82000732421875 17.530000686645508,250.27999877929688 17.530000686645508,250.27999877929688 C17.530000686645508,250.27999877929688 33.43000030517578,286.1000061035156 33.43000030517578,286.1000061035156 C38.79999923706055,300.2900085449219 28.75,308.1000061035156 10.880000114440918,308.1000061035156z M-211.75799560546875,197.3520050048828 C-211.75799560546875,197.3520050048828 -211.75799560546875,239.95899963378906 -211.75799560546875,239.95899963378906 M-195.74099731445312,234.06399536132812 C-195.74099731445312,234.06399536132812 -195.74099731445312,258.6709899902344 -195.74099731445312,258.6709899902344 M17.847999572753906,161.81700134277344 C17.847999572753906,120.9520034790039 -38.47999954223633,87.82499694824219 -107.96399688720703,87.82499694824219 C-177.447998046875,87.82499694824219 -233.77499389648438,120.9520034790039 -233.77499389648438,161.81700134277344 C-233.77499389648438,202.6820068359375 -177.447998046875,235.8090057373047 -107.96399688720703,235.8090057373047 C-38.47999954223633,235.8090057373047 17.847999572753906,202.6820068359375 17.847999572753906,161.81700134277344z M-16.420000076293945,161.81700134277344 C-16.420000076293945,132.08299255371094 -57.40599822998047,107.97899627685547 -107.96399688720703,107.97899627685547 C-158.52200317382812,107.97899627685547 -199.5070037841797,132.08299255371094 -199.5070037841797,161.81700134277344 C-199.5070037841797,191.55099487304688 -158.52200317382812,215.65499877929688 -107.96399688720703,215.65499877929688 C-57.40599822998047,215.65499877929688 -16.420000076293945,191.55099487304688 -16.420000076293945,161.81700134277344z"></path><g opacity="1" transform="matrix(1,0,0,1,0,0)"><path stroke-linecap="round" stroke-linejoin="miter" fill-opacity="0" stroke-miterlimit="10" stroke="rgb(163,81,0)" stroke-opacity="1" stroke-width="10" d=" M-211.75799560546875,197.3520050048828 C-211.75799560546875,197.3520050048828 -211.75799560546875,239.95899963378906 -211.75799560546875,239.95899963378906 M-195.74099731445312,234.06399536132812 C-195.74099731445312,234.06399536132812 -195.74099731445312,258.6709899902344 -195.74099731445312,258.6709899902344"></path></g><g opacity="1" transform="matrix(1,0,0,1,0,0)"><path fill="rgb(254,184,106)" fill-opacity="1" d=" M17.847999572753906,161.81700134277344 C17.847999572753906,120.9520034790039 -38.47999954223633,87.82499694824219 -107.96399688720703,87.82499694824219 C-177.447998046875,87.82499694824219 -233.77499389648438,120.9520034790039 -233.77499389648438,161.81700134277344 C-233.77499389648438,202.6820068359375 -177.447998046875,235.8090057373047 -107.96399688720703,235.8090057373047 C-38.47999954223633,235.8090057373047 17.847999572753906,202.6820068359375 17.847999572753906,161.81700134277344z M-16.420000076293945,161.81700134277344 C-16.420000076293945,132.08299255371094 -57.40599822998047,107.97899627685547 -107.96399688720703,107.97899627685547 C-158.52200317382812,107.97899627685547 -199.5070037841797,132.08299255371094 -199.5070037841797,161.81700134277344 C-199.5070037841797,191.55099487304688 -158.52200317382812,215.65499877929688 -107.96399688720703,215.65499877929688 C-57.40599822998047,215.65499877929688 -16.420000076293945,191.55099487304688 -16.420000076293945,161.81700134277344z"></path><path stroke-linecap="butt" stroke-linejoin="miter" fill-opacity="0" stroke-miterlimit="10" stroke="rgb(241,160,74)" stroke-opacity="1" stroke-width="7" d=" M17.847999572753906,161.81700134277344 C17.847999572753906,120.9520034790039 -38.47999954223633,87.82499694824219 -107.96399688720703,87.82499694824219 C-177.447998046875,87.82499694824219 -233.77499389648438,120.9520034790039 -233.77499389648438,161.81700134277344 C-233.77499389648438,202.6820068359375 -177.447998046875,235.8090057373047 -107.96399688720703,235.8090057373047 C-38.47999954223633,235.8090057373047 17.847999572753906,202.6820068359375 17.847999572753906,161.81700134277344z M-16.420000076293945,161.81700134277344 C-16.420000076293945,132.08299255371094 -57.40599822998047,107.97899627685547 -107.96399688720703,107.97899627685547 C-158.52200317382812,107.97899627685547 -199.5070037841797,132.08299255371094 -199.5070037841797,161.81700134277344 C-199.5070037841797,191.55099487304688 -158.52200317382812,215.65499877929688 -107.96399688720703,215.65499877929688 C-57.40599822998047,215.65499877929688 -16.420000076293945,191.55099487304688 -16.420000076293945,161.81700134277344z"></path></g></g><g clip-path="url(#__lottie_element_2845)" transform="matrix(1,0,0,1,0,0)" opacity="1" style="display: block;"><g transform="matrix(1,0,0,1,540,540)" opacity="1" style="display: block;"><g opacity="1" transform="matrix(1,0,0,1,0,0)"><g opacity="1" transform="matrix(1,0,0,1,0,0)"><path fill="rgb(191,95,0)" fill-opacity="1" d=" M233.25999450683594,425.9800109863281 C233.25999450683594,425.9800109863281 121.79499816894531,338.9200134277344 121.79499816894531,338.9200134277344 C109.99500274658203,329.7030029296875 107.9000015258789,312.6659851074219 117.11699676513672,300.8659973144531 C117.11699676513672,300.8659973144531 119.15799713134766,298.25299072265625 119.15799713134766,298.25299072265625 C128.375,286.4530029296875 145.41200256347656,284.3580017089844 157.21200561523438,293.57501220703125 C157.21200561523438,293.57501220703125 268.677001953125,380.635009765625 268.677001953125,380.635009765625 C279.2510070800781,388.8940124511719 281.12799072265625,404.1610107421875 272.8689880371094,414.7349853515625 C272.8689880371094,414.7349853515625 267.3609924316406,421.7879943847656 267.3609924316406,421.7879943847656 C259.10198974609375,432.36199951171875 243.83399963378906,434.239013671875 233.25999450683594,425.9800109863281z"></path></g><g opacity="1" transform="matrix(1,0,0,1,0,0)"><path stroke-linecap="round" stroke-linejoin="miter" fill-opacity="0" stroke-miterlimit="10" stroke="rgb(163,81,0)" stroke-opacity="1" stroke-width="10" d=" M222.42599487304688,381.02899169921875 C222.42599487304688,381.02899169921875 257.5639953613281,408.4570007324219 257.5639953613281,408.4570007324219 M176.58099365234375,366.3349914550781 C176.58099365234375,366.3349914550781 239.62600708007812,415.5469970703125 239.62600708007812,415.5469970703125"></path></g></g><g opacity="1" transform="matrix(1,0,0,1,0,0)"><g opacity="1" transform="matrix(1,0,0,1,0,0)"><path fill="rgb(191,95,0)" fill-opacity="1" d=" M99.89099884033203,423.9800109863281 C99.89099884033203,423.9800109863281 211.3560028076172,336.9200134277344 211.3560028076172,336.9200134277344 C223.156005859375,327.7030029296875 225.25100708007812,310.6659851074219 216.03399658203125,298.8659973144531 C216.03399658203125,298.8659973144531 213.9929962158203,296.25299072265625 213.9929962158203,296.25299072265625 C204.7760009765625,284.4530029296875 187.73899841308594,282.3580017089844 175.93899536132812,291.57501220703125 C175.93899536132812,291.57501220703125 64.4739990234375,378.635009765625 64.4739990234375,378.635009765625 C53.900001525878906,386.8940124511719 52.02299880981445,402.1610107421875 60.28200149536133,412.7349853515625 C60.28200149536133,412.7349853515625 65.79000091552734,419.7879943847656 65.79000091552734,419.7879943847656 C74.04900360107422,430.36199951171875 89.31700134277344,432.239013671875 99.89099884033203,423.9800109863281z"></path></g><g opacity="1" transform="matrix(1,0,0,1,0,0)"><path stroke-linecap="round" stroke-linejoin="miter" fill-opacity="0" stroke-miterlimit="10" stroke="rgb(163,81,0)" stroke-opacity="1" stroke-width="10" d=" M71.60099792480469,391.90301513671875 C71.60099792480469,391.90301513671875 59.75,401.15301513671875 59.75,401.15301513671875 M102.73600006103516,388.614013671875 C102.73600006103516,388.614013671875 68.25,415.5329895019531 68.25,415.5329895019531"></path></g></g><g opacity="1" transform="matrix(1,0,0,1,0,0)"><g opacity="1" transform="matrix(1,0,0,1,0,0)"><path fill="rgb(191,95,0)" fill-opacity="1" d=" M138.48899841308594,451.67401123046875 C138.48899841308594,451.67401123046875 138.5290069580078,310.239013671875 138.5290069580078,310.239013671875 C138.5330047607422,295.2659912109375 150.6750030517578,283.1319885253906 165.6479949951172,283.135986328125 C165.6479949951172,283.135986328125 168.96299743652344,283.1369934082031 168.96299743652344,283.1369934082031 C183.93600463867188,283.1409912109375 196.0709991455078,295.2820129394531 196.06700134277344,310.2550048828125 C196.06700134277344,310.2550048828125 196.0260009765625,451.6910095214844 196.0260009765625,451.6910095214844 C196.02200317382812,465.1080017089844 185.14199829101562,475.98199462890625 171.72500610351562,475.9779968261719 C171.72500610351562,475.9779968261719 162.7760009765625,475.97601318359375 162.7760009765625,475.97601318359375 C149.35899353027344,475.97198486328125 138.48500061035156,465.09100341796875 138.48899841308594,451.67401123046875z"></path></g><g opacity="1" transform="matrix(1,0,0,1,0,0)"><path stroke-linecap="round" stroke-linejoin="miter" fill-opacity="0" stroke-miterlimit="10" stroke="rgb(163,81,0)" stroke-opacity="1" stroke-width="10" d=" M167.25599670410156,415.4750061035156 C167.25599670410156,415.4750061035156 167.25599670410156,460.04998779296875 167.25599670410156,460.04998779296875 M150.6300048828125,370.2950134277344 C150.6300048828125,370.2950134277344 150.6300048828125,450.27301025390625 150.6300048828125,450.27301025390625"></path></g><g opacity="1" transform="matrix(1,0,0,1,0,0)"><path fill="rgb(254,184,106)" fill-opacity="1" d=" M138.48699951171875,458.0899963378906 C138.48699951171875,458.0899963378906 138.48800659179688,455.1889953613281 138.48800659179688,455.1889953613281 C138.49200439453125,442.0880126953125 149.11599731445312,431.4700012207031 162.2169952392578,431.4739990234375 C162.2169952392578,431.4739990234375 172.30999755859375,431.47698974609375 172.30999755859375,431.47698974609375 C185.41099548339844,431.4809875488281 196.0290069580078,442.1050109863281 196.02499389648438,455.20599365234375 C196.02499389648438,455.20599365234375 196.0240020751953,458.10699462890625 196.0240020751953,458.10699462890625 C196.02000427246094,471.2080078125 185.39599609375,481.82598876953125 172.2949981689453,481.8219909667969 C172.2949981689453,481.8219909667969 162.20199584960938,481.8190002441406 162.20199584960938,481.8190002441406 C149.1009979248047,481.81500244140625 138.48300170898438,471.1910095214844 138.48699951171875,458.0899963378906z"></path></g><g opacity="1" transform="matrix(1,0,0,1,0,0)"><path stroke-linecap="butt" stroke-linejoin="miter" fill-opacity="0" stroke-miterlimit="10" stroke="rgb(241,160,74)" stroke-opacity="1" stroke-width="7" d=" M149.3300018310547,457.9700012207031 C148.6490020751953,450.49700927734375 154.32899475097656,443.7619934082031 161.95399475097656,443.80999755859375 C172.19000244140625,443.45001220703125 185.00100708007812,442.72601318359375 185.6300048828125,456.43798828125 C186.31199645996094,463.9100036621094 180.63099670410156,470.6449890136719 173.00599670410156,470.59698486328125 C162.77000427246094,470.9570007324219 149.95899963378906,471.6809997558594 149.3300018310547,457.9700012207031z"></path></g></g></g><g clip-path="url(#__lottie_element_2996)" transform="matrix(1,0,0,1,0,0)" opacity="1" style="display: none;"><g transform="matrix(0.9999188780784607,0,0,1.0001622438430786,540.0134887695312,539.9352416992188)" opacity="1" style="display: block;"><g opacity="1" transform="matrix(1,0,0,1,0,0)"><path fill="rgb(255,150,0)" fill-opacity="1" d=" M263.5570068359375,302.9110107421875 C264.15228271484375,356.7861022949219 223.80654907226562,399.2312927246094 167.48744201660156,399.2312927246094 C101.97140502929688,399.2312927246094 35.28617477416992,330.1148376464844 91.33799743652344,243.0659942626953 C92.11699676513672,241.531005859375 151.58999633789062,164.6020050048828 152.50799560546875,163.14300537109375 C159.6739959716797,153.55299377441406 174.75999450683594,153.4980010986328 181.9250030517578,163.14599609375 C181.9250030517578,163.14599609375 212.35153198242188,203.09776306152344 212.35153198242188,203.09776306152344 C217.39028930664062,197.44090270996094 229.19757080078125,186.4595184326172 237.73638916015625,186.87281799316406 C247.7100067138672,186.6720733642578 256.2932434082031,194.57650756835938 257.2701416015625,206.21377563476562 C258.8751525878906,215.70419311523438 263.1266784667969,254.39849853515625 263.5570068359375,302.9110107421875z"></path></g><g opacity="1" transform="matrix(1,0,0,1,0,0)"><path fill="rgb(255,200,0)" fill-opacity="1" d=" M208.32899475097656,319.23699951171875 C207.40899658203125,373.37799072265625 127.0199966430664,373.3940124511719 126.10199737548828,319.2349853515625 C124.85600280761719,298.364990234375 151.49200439453125,273.9580078125 162.36900329589844,258.5119934082031 C165.8419952392578,255.83700561523438 170.8260040283203,256.4809875488281 173.5019989013672,259.9530029296875 C173.5019989013672,259.9530029296875 199.13299560546875,293.2030029296875 199.13299560546875,293.2030029296875 C204.83599853515625,300.40399169921875 208.35000610351562,309.3380126953125 208.32899475097656,319.23699951171875z"></path></g></g></g><g clip-path="url(#__lottie_element_2989)" style="display: none;" transform="matrix(1,0,0,1,0,0)" opacity="1"><g transform="matrix(0.999454140663147,0,0,1.001091718673706,540.0909423828125,539.564208984375)" opacity="1" style="display: block;"><g opacity="1" transform="matrix(1,0,0,1,0,0)"><path fill="rgb(255,150,0)" fill-opacity="1" d=" M263.5570068359375,302.9110107421875 C264.1371154785156,356.7660827636719 223.84970092773438,399.2324523925781 167.51380920410156,399.2324523925781 C101.99761962890625,399.2324523925781 35.27870178222656,330.1264343261719 91.33799743652344,243.0659942626953 C92.11699676513672,241.531005859375 151.58999633789062,164.6020050048828 152.50799560546875,163.14300537109375 C159.6739959716797,153.55299377441406 174.75999450683594,153.4980010986328 181.9250030517578,163.14599609375 C181.9250030517578,163.14599609375 212.4560089111328,203.22776794433594 212.4560089111328,203.22776794433594 C217.5347442626953,197.6287841796875 229.39633178710938,186.6049041748047 237.92213439941406,187.03173828125 C247.90243530273438,186.8361053466797 256.4783630371094,194.75051879882812 257.43035888671875,206.35205078125 C258.9944763183594,215.65179443359375 263.13763427734375,254.2818603515625 263.5570068359375,302.9110107421875z"></path></g><g opacity="1" transform="matrix(1,0,0,1,0,0)"><path fill="rgb(255,200,0)" fill-opacity="1" d=" M208.32899475097656,319.23699951171875 C207.40899658203125,373.37799072265625 127.0199966430664,373.3940124511719 126.10199737548828,319.2349853515625 C124.85600280761719,298.364990234375 151.49200439453125,273.9580078125 162.36900329589844,258.5119934082031 C165.8419952392578,255.83700561523438 170.8260040283203,256.4809875488281 173.5019989013672,259.9530029296875 C173.5019989013672,259.9530029296875 199.13299560546875,293.2030029296875 199.13299560546875,293.2030029296875 C204.83599853515625,300.40399169921875 208.35000610351562,309.3380126953125 208.32899475097656,319.23699951171875z"></path></g></g></g><g clip-path="url(#__lottie_element_2982)" style="display: none;" transform="matrix(1,0,0,1,0,0)" opacity="1"><g transform="matrix(0.998624324798584,0,0,1.002751350402832,540.2293090820312,538.901611328125)" opacity="1" style="display: block;"><g opacity="1" transform="matrix(1,0,0,1,0,0)"><path fill="rgb(255,150,0)" fill-opacity="1" d=" M263.5570068359375,302.9110107421875 C264.1166076660156,356.7389831542969 223.90806579589844,399.2340393066406 167.54946899414062,399.2340393066406 C102.03307342529297,399.2340393066406 35.26859664916992,330.1421203613281 91.33799743652344,243.0659942626953 C92.11699676513672,241.531005859375 151.58999633789062,164.6020050048828 152.50799560546875,163.14300537109375 C159.6739959716797,153.55299377441406 174.75999450683594,153.4980010986328 181.9250030517578,163.14599609375 C181.9250030517578,163.14599609375 212.59730529785156,203.40359497070312 212.59730529785156,203.40359497070312 C217.73008728027344,197.8828887939453 229.6651611328125,186.801513671875 238.17335510253906,187.24664306640625 C248.16265869140625,187.05792236328125 256.72869873046875,194.98583984375 257.6470642089844,206.53903198242188 C259.1558532714844,215.58091735839844 263.1524658203125,254.12413024902344 263.5570068359375,302.9110107421875z"></path></g><g opacity="1" transform="matrix(1,0,0,1,0,0)"><path fill="rgb(255,200,0)" fill-opacity="1" d=" M208.32899475097656,319.23699951171875 C207.40899658203125,373.37799072265625 127.0199966430664,373.3940124511719 126.10199737548828,319.2349853515625 C124.85600280761719,298.364990234375 151.49200439453125,273.9580078125 162.36900329589844,258.5119934082031 C165.8419952392578,255.83700561523438 170.8260040283203,256.4809875488281 173.5019989013672,259.9530029296875 C173.5019989013672,259.9530029296875 199.13299560546875,293.2030029296875 199.13299560546875,293.2030029296875 C204.83599853515625,300.40399169921875 208.35000610351562,309.3380126953125 208.32899475097656,319.23699951171875z"></path></g></g></g><g clip-path="url(#__lottie_element_2975)" style="display: none;" transform="matrix(1,0,0,1,0,0)" opacity="1"><g transform="matrix(0.9999075531959534,0,0,1.0001850128173828,540.015380859375,539.9261474609375)" opacity="1" style="display: block;"><g opacity="1" transform="matrix(1,0,0,1,0,0)"><path fill="rgb(255,150,0)" fill-opacity="1" d=" M263.5570068359375,302.9110107421875 C264.1518249511719,356.7854919433594 223.807861328125,399.2313232421875 167.4882354736328,399.2313232421875 C101.97219848632812,399.2313232421875 35.28594970703125,330.11517333984375 91.33799743652344,243.0659942626953 C92.11699676513672,241.531005859375 151.58999633789062,164.6020050048828 152.50799560546875,163.14300537109375 C159.6739959716797,153.55299377441406 174.75999450683594,153.4980010986328 181.9250030517578,163.14599609375 C181.9250030517578,163.14599609375 212.3546905517578,203.10169982910156 212.3546905517578,203.10169982910156 C217.39466857910156,197.4466094970703 229.20359802246094,186.46392822265625 237.7420196533203,186.8776397705078 C247.71585083007812,186.6770477294922 256.2988586425781,194.581787109375 257.2749938964844,206.2179718017578 C258.8787841796875,215.70260620117188 263.12701416015625,254.39495849609375 263.5570068359375,302.9110107421875z"></path></g><g opacity="1" transform="matrix(1,0,0,1,0,0)"><path fill="rgb(255,200,0)" fill-opacity="1" d=" M208.32899475097656,319.23699951171875 C207.40899658203125,373.37799072265625 127.0199966430664,373.3940124511719 126.10199737548828,319.2349853515625 C124.85600280761719,298.364990234375 151.49200439453125,273.9580078125 162.36900329589844,258.5119934082031 C165.8419952392578,255.83700561523438 170.8260040283203,256.4809875488281 173.5019989013672,259.9530029296875 C173.5019989013672,259.9530029296875 199.13299560546875,293.2030029296875 199.13299560546875,293.2030029296875 C204.83599853515625,300.40399169921875 208.35000610351562,309.3380126953125 208.32899475097656,319.23699951171875z"></path></g></g></g><g clip-path="url(#__lottie_element_2968)" style="display: none;" transform="matrix(1,0,0,1,0,0)" opacity="1"><g transform="matrix(0.9999021887779236,0,0,1.0001956224441528,540.0162963867188,539.921875)" opacity="1" style="display: block;"><g opacity="1" transform="matrix(1,0,0,1,0,0)"><path fill="rgb(255,150,0)" fill-opacity="1" d=" M263.5570068359375,302.9110107421875 C264.151611328125,356.78521728515625 223.80845642089844,399.2313232421875 167.4886016845703,399.2313232421875 C101.97256469726562,399.2313232421875 35.28584289550781,330.1153564453125 91.33799743652344,243.0659942626953 C92.11699676513672,241.531005859375 151.58999633789062,164.6020050048828 152.50799560546875,163.14300537109375 C159.6739959716797,153.55299377441406 174.75999450683594,153.4980010986328 181.9250030517578,163.14599609375 C181.9250030517578,163.14599609375 212.3561553955078,203.103515625 212.3561553955078,203.103515625 C217.3966827392578,197.44921875 229.20635986328125,186.46595764160156 237.74459838867188,186.87985229492188 C247.71852111816406,186.67933654785156 256.3014221191406,194.58421325683594 257.2772216796875,206.2198944091797 C258.88043212890625,215.70187377929688 263.1271667480469,254.39334106445312 263.5570068359375,302.9110107421875z"></path></g><g opacity="1" transform="matrix(1,0,0,1,0,0)"><path fill="rgb(255,200,0)" fill-opacity="1" d=" M208.32899475097656,319.23699951171875 C207.40899658203125,373.37799072265625 127.0199966430664,373.3940124511719 126.10199737548828,319.2349853515625 C124.85600280761719,298.364990234375 151.49200439453125,273.9580078125 162.36900329589844,258.5119934082031 C165.8419952392578,255.83700561523438 170.8260040283203,256.4809875488281 173.5019989013672,259.9530029296875 C173.5019989013672,259.9530029296875 199.13299560546875,293.2030029296875 199.13299560546875,293.2030029296875 C204.83599853515625,300.40399169921875 208.35000610351562,309.3380126953125 208.32899475097656,319.23699951171875z"></path></g></g></g><g clip-path="url(#__lottie_element_2961)" style="display: none;" transform="matrix(1,0,0,1,0,0)" opacity="1"><g transform="matrix(0.9999008178710938,0,0,1.000198245048523,540.0164794921875,539.9208984375)" opacity="1" style="display: block;"><g opacity="1" transform="matrix(1,0,0,1,0,0)"><path fill="rgb(255,150,0)" fill-opacity="1" d=" M263.5570068359375,302.9110107421875 C264.1515808105469,356.78515625 223.80860900878906,399.2313537597656 167.48870849609375,399.2313537597656 C101.97265625,399.2313537597656 35.28581619262695,330.1153869628906 91.33799743652344,243.0659942626953 C92.11699676513672,241.531005859375 151.58999633789062,164.6020050048828 152.50799560546875,163.14300537109375 C159.6739959716797,153.55299377441406 174.75999450683594,153.4980010986328 181.9250030517578,163.14599609375 C181.9250030517578,163.14599609375 212.3565216064453,203.10397338867188 212.3565216064453,203.10397338867188 C217.39718627929688,197.4498748779297 229.20706176757812,186.46646118164062 237.74525451660156,186.8804168701172 C247.71920776367188,186.67990112304688 256.30206298828125,194.58482360839844 257.2778015136719,206.2203826904297 C258.880859375,215.70169067382812 263.127197265625,254.39292907714844 263.5570068359375,302.9110107421875z"></path></g><g opacity="1" transform="matrix(1,0,0,1,0,0)"><path fill="rgb(255,200,0)" fill-opacity="1" d=" M208.32899475097656,319.23699951171875 C207.40899658203125,373.37799072265625 127.0199966430664,373.3940124511719 126.10199737548828,319.2349853515625 C124.85600280761719,298.364990234375 151.49200439453125,273.9580078125 162.36900329589844,258.5119934082031 C165.8419952392578,255.83700561523438 170.8260040283203,256.4809875488281 173.5019989013672,259.9530029296875 C173.5019989013672,259.9530029296875 199.13299560546875,293.2030029296875 199.13299560546875,293.2030029296875 C204.83599853515625,300.40399169921875 208.35000610351562,309.3380126953125 208.32899475097656,319.23699951171875z"></path></g></g></g><g clip-path="url(#__lottie_element_2954)" style="display: none;" transform="matrix(1,0,0,1,0,0)" opacity="1"><g transform="matrix(0.9998995065689087,0,0,1.0002009868621826,540.0167236328125,539.9197998046875)" opacity="1" style="display: block;"><g opacity="1" transform="matrix(1,0,0,1,0,0)"><path fill="rgb(255,150,0)" fill-opacity="1" d=" M263.5570068359375,302.9110107421875 C264.1515197753906,356.7850646972656 223.8087615966797,399.2313537597656 167.48880004882812,399.2313537597656 C101.97274780273438,399.2313537597656 35.285789489746094,330.11541748046875 91.33799743652344,243.0659942626953 C92.11699676513672,241.531005859375 151.58999633789062,164.6020050048828 152.50799560546875,163.14300537109375 C159.6739959716797,153.55299377441406 174.75999450683594,153.4980010986328 181.9250030517578,163.14599609375 C181.9250030517578,163.14599609375 212.3568878173828,203.10443115234375 212.3568878173828,203.10443115234375 C217.397705078125,197.45054626464844 229.207763671875,186.46697998046875 237.74591064453125,186.8809814453125 C247.71987915039062,186.68048095703125 256.302734375,194.58543395996094 257.2783508300781,206.2208709716797 C258.88128662109375,215.70150756835938 263.1272277832031,254.39251708984375 263.5570068359375,302.9110107421875z"></path></g><g opacity="1" transform="matrix(1,0,0,1,0,0)"><path fill="rgb(255,200,0)" fill-opacity="1" d=" M208.32899475097656,319.23699951171875 C207.40899658203125,373.37799072265625 127.0199966430664,373.3940124511719 126.10199737548828,319.2349853515625 C124.85600280761719,298.364990234375 151.49200439453125,273.9580078125 162.36900329589844,258.5119934082031 C165.8419952392578,255.83700561523438 170.8260040283203,256.4809875488281 173.5019989013672,259.9530029296875 C173.5019989013672,259.9530029296875 199.13299560546875,293.2030029296875 199.13299560546875,293.2030029296875 C204.83599853515625,300.40399169921875 208.35000610351562,309.3380126953125 208.32899475097656,319.23699951171875z"></path></g></g></g><g clip-path="url(#__lottie_element_2947)" style="display: none;" transform="matrix(1,0,0,1,0,0)" opacity="1"><g transform="matrix(0.9998939633369446,0,0,1.0002120733261108,540.0176391601562,539.9153442382812)" opacity="1" style="display: block;"><g opacity="1" transform="matrix(1,0,0,1,0,0)"><path fill="rgb(255,150,0)" fill-opacity="1" d=" M263.5570068359375,302.9110107421875 C264.15130615234375,356.7847900390625 223.8093719482422,399.2313537597656 167.48916625976562,399.2313537597656 C101.9731216430664,399.2313537597656 35.285682678222656,330.1156005859375 91.33799743652344,243.0659942626953 C92.11699676513672,241.531005859375 151.58999633789062,164.6020050048828 152.50799560546875,163.14300537109375 C159.6739959716797,153.55299377441406 174.75999450683594,153.4980010986328 181.9250030517578,163.14599609375 C181.9250030517578,163.14599609375 212.35838317871094,203.10629272460938 212.35838317871094,203.10629272460938 C217.39976501464844,197.45323181152344 229.21060180664062,186.46905517578125 237.74856567382812,186.88323974609375 C247.72262573242188,186.68283081054688 256.30535888671875,194.58792114257812 257.2806396484375,206.2228546142578 C258.8829650878906,215.7007598876953 263.1274108886719,254.39085388183594 263.5570068359375,302.9110107421875z"></path></g><g opacity="1" transform="matrix(1,0,0,1,0,0)"><path fill="rgb(255,200,0)" fill-opacity="1" d=" M208.32899475097656,319.23699951171875 C207.40899658203125,373.37799072265625 127.0199966430664,373.3940124511719 126.10199737548828,319.2349853515625 C124.85600280761719,298.364990234375 151.49200439453125,273.9580078125 162.36900329589844,258.5119934082031 C165.8419952392578,255.83700561523438 170.8260040283203,256.4809875488281 173.5019989013672,259.9530029296875 C173.5019989013672,259.9530029296875 199.13299560546875,293.2030029296875 199.13299560546875,293.2030029296875 C204.83599853515625,300.40399169921875 208.35000610351562,309.3380126953125 208.32899475097656,319.23699951171875z"></path></g></g></g><g clip-path="url(#__lottie_element_2940)" style="display: none;" transform="matrix(1,0,0,1,0,0)" opacity="1"><g transform="matrix(0.999896764755249,0,0,1.000206470489502,540.0172119140625,539.9176025390625)" opacity="1" style="display: block;"><g opacity="1" transform="matrix(1,0,0,1,0,0)"><path fill="rgb(255,150,0)" fill-opacity="1" d=" M263.5570068359375,302.9110107421875 C264.1513977050781,356.7849426269531 223.80906677246094,399.2313537597656 167.48898315429688,399.2313537597656 C101.97293853759766,399.2313537597656 35.28573989868164,330.1155090332031 91.33799743652344,243.0659942626953 C92.11699676513672,241.531005859375 151.58999633789062,164.6020050048828 152.50799560546875,163.14300537109375 C159.6739959716797,153.55299377441406 174.75999450683594,153.4980010986328 181.9250030517578,163.14599609375 C181.9250030517578,163.14599609375 212.35763549804688,203.10536193847656 212.35763549804688,203.10536193847656 C217.3987274169922,197.45187377929688 229.20916748046875,186.468017578125 237.7472381591797,186.88211059570312 C247.72125244140625,186.68165588378906 256.3040466308594,194.586669921875 257.2795104980469,206.22186279296875 C258.8821105957031,215.70114135742188 263.1273193359375,254.39169311523438 263.5570068359375,302.9110107421875z"></path></g><g opacity="1" transform="matrix(1,0,0,1,0,0)"><path fill="rgb(255,200,0)" fill-opacity="1" d=" M208.32899475097656,319.23699951171875 C207.40899658203125,373.37799072265625 127.0199966430664,373.3940124511719 126.10199737548828,319.2349853515625 C124.85600280761719,298.364990234375 151.49200439453125,273.9580078125 162.36900329589844,258.5119934082031 C165.8419952392578,255.83700561523438 170.8260040283203,256.4809875488281 173.5019989013672,259.9530029296875 C173.5019989013672,259.9530029296875 199.13299560546875,293.2030029296875 199.13299560546875,293.2030029296875 C204.83599853515625,300.40399169921875 208.35000610351562,309.3380126953125 208.32899475097656,319.23699951171875z"></path></g></g></g><g clip-path="url(#__lottie_element_2933)" style="display: none;" transform="matrix(1,0,0,1,0,0)" opacity="1"><g transform="matrix(0.9998953938484192,0,0,1.0002093315124512,540.0174560546875,539.9164428710938)" opacity="1" style="display: block;"><g opacity="1" transform="matrix(1,0,0,1,0,0)"><path fill="rgb(255,150,0)" fill-opacity="1" d=" M263.5570068359375,302.9110107421875 C264.1513671875,356.78485107421875 223.80921936035156,399.2313537597656 167.48907470703125,399.2313537597656 C101.97303009033203,399.2313537597656 35.28571319580078,330.11553955078125 91.33799743652344,243.0659942626953 C92.11699676513672,241.531005859375 151.58999633789062,164.6020050048828 152.50799560546875,163.14300537109375 C159.6739959716797,153.55299377441406 174.75999450683594,153.4980010986328 181.9250030517578,163.14599609375 C181.9250030517578,163.14599609375 212.35800170898438,203.10581970214844 212.35800170898438,203.10581970214844 C217.3992462158203,197.45254516601562 229.2098846435547,186.46853637695312 237.74789428710938,186.88267517089844 C247.72193908691406,186.68223571777344 256.3047180175781,194.58729553222656 257.28009033203125,206.22235107421875 C258.8825378417969,215.70094299316406 263.1273498535156,254.3912811279297 263.5570068359375,302.9110107421875z"></path></g><g opacity="1" transform="matrix(1,0,0,1,0,0)"><path fill="rgb(255,200,0)" fill-opacity="1" d=" M208.32899475097656,319.23699951171875 C207.40899658203125,373.37799072265625 127.0199966430664,373.3940124511719 126.10199737548828,319.2349853515625 C124.85600280761719,298.364990234375 151.49200439453125,273.9580078125 162.36900329589844,258.5119934082031 C165.8419952392578,255.83700561523438 170.8260040283203,256.4809875488281 173.5019989013672,259.9530029296875 C173.5019989013672,259.9530029296875 199.13299560546875,293.2030029296875 199.13299560546875,293.2030029296875 C204.83599853515625,300.40399169921875 208.35000610351562,309.3380126953125 208.32899475097656,319.23699951171875z"></path></g></g></g><g clip-path="url(#__lottie_element_2926)" style="display: block;" transform="matrix(1,0,0,1,0,0)" opacity="1"><g transform="matrix(0.9600166082382202,0,0,1.0799667835235596,546.6647338867188,508.0767822265625)" opacity="1" style="display: block;"><g opacity="1" transform="matrix(1,0,0,1,0,0)"><path fill="rgb(255,150,0)" fill-opacity="1" d=" M263.5570068359375,302.9110107421875 C263.557861328125,356.0011291503906 225.49754333496094,399.2769470214844 168.52049255371094,399.2769470214844 C102.99850463867188,399.2769470214844 34.99342727661133,330.5693359375 91.33799743652344,243.0659942626953 C92.11699676513672,241.531005859375 151.58999633789062,164.6020050048828 152.50799560546875,163.14300537109375 C159.6739959716797,153.55299377441406 174.75999450683594,153.4980010986328 181.9250030517578,163.14599609375 C181.9250030517578,163.14599609375 216.44503784179688,208.1915740966797 216.44503784179688,208.1915740966797 C223.0497589111328,204.80227661132812 236.98565673828125,192.15570068359375 245.014404296875,193.09893798828125 C255.2490234375,193.0986328125 263.54644775390625,201.39407348632812 263.5478515625,211.631103515625 C263.5502014160156,213.65098571777344 263.5563659667969,249.8286590576172 263.5570068359375,302.9110107421875z"></path></g><g opacity="1" transform="matrix(1,0,0,1,0,0)"><path fill="rgb(255,200,0)" fill-opacity="1" d=" M208.32899475097656,319.23699951171875 C207.40899658203125,373.37799072265625 127.0199966430664,373.3940124511719 126.10199737548828,319.2349853515625 C124.85600280761719,298.364990234375 151.49200439453125,273.9580078125 162.36900329589844,258.5119934082031 C165.8419952392578,255.83700561523438 170.8260040283203,256.4809875488281 173.5019989013672,259.9530029296875 C173.5019989013672,259.9530029296875 199.13299560546875,293.2030029296875 199.13299560546875,293.2030029296875 C204.83599853515625,300.40399169921875 208.35000610351562,309.3380126953125 208.32899475097656,319.23699951171875z"></path></g></g></g><g clip-path="url(#__lottie_element_2919)" style="display: none;" transform="matrix(1,0,0,1,0,0)" opacity="1"><g transform="matrix(0.9999318718910217,0,0,1.0001362562179565,540.0113525390625,539.9456176757812)" opacity="1" style="display: block;"><g opacity="1" transform="matrix(1,0,0,1,0,0)"><path fill="rgb(255,150,0)" fill-opacity="1" d=" M263.5570068359375,302.9110107421875 C264.15283203125,356.78680419921875 223.80502319335938,399.2312316894531 167.48651123046875,399.2312316894531 C101.9704818725586,399.2312316894531 35.28643798828125,330.11444091796875 91.33799743652344,243.0659942626953 C92.11699676513672,241.531005859375 151.58999633789062,164.6020050048828 152.50799560546875,163.14300537109375 C159.6739959716797,153.55299377441406 174.75999450683594,153.4980010986328 181.9250030517578,163.14599609375 C181.9250030517578,163.14599609375 212.3478546142578,203.0931854248047 212.3478546142578,203.0931854248047 C217.3852081298828,197.43429565429688 229.19056701660156,186.45440673828125 237.72984313964844,186.8672332763672 C247.70323181152344,186.6663055419922 256.2867126464844,194.5703887939453 257.2644958496094,206.2089080810547 C258.8709411621094,215.70603942871094 263.12628173828125,254.40260314941406 263.5570068359375,302.9110107421875z"></path></g><g opacity="1" transform="matrix(1,0,0,1,0,0)"><path fill="rgb(255,200,0)" fill-opacity="1" d=" M208.32899475097656,319.23699951171875 C207.40899658203125,373.37799072265625 127.0199966430664,373.3940124511719 126.10199737548828,319.2349853515625 C124.85600280761719,298.364990234375 151.49200439453125,273.9580078125 162.36900329589844,258.5119934082031 C165.8419952392578,255.83700561523438 170.8260040283203,256.4809875488281 173.5019989013672,259.9530029296875 C173.5019989013672,259.9530029296875 199.13299560546875,293.2030029296875 199.13299560546875,293.2030029296875 C204.83599853515625,300.40399169921875 208.35000610351562,309.3380126953125 208.32899475097656,319.23699951171875z"></path></g></g></g><g clip-path="url(#__lottie_element_2912)" style="display: none;" transform="matrix(1,0,0,1,0,0)" opacity="1"><g transform="matrix(0.999930739402771,0,0,1.000138521194458,540.0115356445312,539.9447021484375)" opacity="1" style="display: block;"><g opacity="1" transform="matrix(1,0,0,1,0,0)"><path fill="rgb(255,150,0)" fill-opacity="1" d=" M263.5570068359375,302.9110107421875 C264.15277099609375,356.7867431640625 223.80516052246094,399.23126220703125 167.48660278320312,399.23126220703125 C101.97056579589844,399.23126220703125 35.286415100097656,330.1144714355469 91.33799743652344,243.0659942626953 C92.11699676513672,241.531005859375 151.58999633789062,164.6020050048828 152.50799560546875,163.14300537109375 C159.6739959716797,153.55299377441406 174.75999450683594,153.4980010986328 181.9250030517578,163.14599609375 C181.9250030517578,163.14599609375 212.34817504882812,203.09359741210938 212.34817504882812,203.09359741210938 C217.38565063476562,197.43487548828125 229.19119262695312,186.45484924316406 237.7304229736328,186.8677215576172 C247.70384216308594,186.66680908203125 256.28729248046875,194.5709228515625 257.2650146484375,206.2093505859375 C258.871337890625,215.70587158203125 263.1263427734375,254.40225219726562 263.5570068359375,302.9110107421875z"></path></g><g opacity="1" transform="matrix(1,0,0,1,0,0)"><path fill="rgb(255,200,0)" fill-opacity="1" d=" M208.32899475097656,319.23699951171875 C207.40899658203125,373.37799072265625 127.0199966430664,373.3940124511719 126.10199737548828,319.2349853515625 C124.85600280761719,298.364990234375 151.49200439453125,273.9580078125 162.36900329589844,258.5119934082031 C165.8419952392578,255.83700561523438 170.8260040283203,256.4809875488281 173.5019989013672,259.9530029296875 C173.5019989013672,259.9530029296875 199.13299560546875,293.2030029296875 199.13299560546875,293.2030029296875 C204.83599853515625,300.40399169921875 208.35000610351562,309.3380126953125 208.32899475097656,319.23699951171875z"></path></g></g></g><g clip-path="url(#__lottie_element_2905)" style="display: none;" transform="matrix(1,0,0,1,0,0)" opacity="1"><g transform="matrix(0.9999296069145203,0,0,1.0001407861709595,540.01171875,539.9437866210938)" opacity="1" style="display: block;"><g opacity="1" transform="matrix(1,0,0,1,0,0)"><path fill="rgb(255,150,0)" fill-opacity="1" d=" M263.5570068359375,302.9110107421875 C264.1527404785156,356.78668212890625 223.8052978515625,399.23126220703125 167.48667907714844,399.23126220703125 C101.97064208984375,399.23126220703125 35.28639221191406,330.114501953125 91.33799743652344,243.0659942626953 C92.11699676513672,241.531005859375 151.58999633789062,164.6020050048828 152.50799560546875,163.14300537109375 C159.6739959716797,153.55299377441406 174.75999450683594,153.4980010986328 181.9250030517578,163.14599609375 C181.9250030517578,163.14599609375 212.34849548339844,203.093994140625 212.34849548339844,203.093994140625 C217.3861083984375,197.4354705810547 229.19180297851562,186.45530700683594 237.7310028076172,186.86822509765625 C247.70443725585938,186.66732788085938 256.2878723144531,194.57147216796875 257.2655029296875,206.20977783203125 C258.8717041015625,215.70571899414062 263.1263732910156,254.40188598632812 263.5570068359375,302.9110107421875z"></path></g><g opacity="1" transform="matrix(1,0,0,1,0,0)"><path fill="rgb(255,200,0)" fill-opacity="1" d=" M208.32899475097656,319.23699951171875 C207.40899658203125,373.37799072265625 127.0199966430664,373.3940124511719 126.10199737548828,319.2349853515625 C124.85600280761719,298.364990234375 151.49200439453125,273.9580078125 162.36900329589844,258.5119934082031 C165.8419952392578,255.83700561523438 170.8260040283203,256.4809875488281 173.5019989013672,259.9530029296875 C173.5019989013672,259.9530029296875 199.13299560546875,293.2030029296875 199.13299560546875,293.2030029296875 C204.83599853515625,300.40399169921875 208.35000610351562,309.3380126953125 208.32899475097656,319.23699951171875z"></path></g></g></g><g clip-path="url(#__lottie_element_2898)" style="display: none;" transform="matrix(1,0,0,1,0,0)" opacity="1"><g transform="matrix(0.9999284148216248,0,0,1.0001431703567505,540.0119018554688,539.94287109375)" opacity="1" style="display: block;"><g opacity="1" transform="matrix(1,0,0,1,0,0)"><path fill="rgb(255,150,0)" fill-opacity="1" d=" M263.5570068359375,302.9110107421875 C264.1526794433594,356.78662109375 223.80543518066406,399.23126220703125 167.48675537109375,399.23126220703125 C101.9707260131836,399.23126220703125 35.2863655090332,330.1145324707031 91.33799743652344,243.0659942626953 C92.11699676513672,241.531005859375 151.58999633789062,164.6020050048828 152.50799560546875,163.14300537109375 C159.6739959716797,153.55299377441406 174.75999450683594,153.4980010986328 181.9250030517578,163.14599609375 C181.9250030517578,163.14599609375 212.3488311767578,203.0944061279297 212.3488311767578,203.0944061279297 C217.38656616210938,197.43605041503906 229.1924285888672,186.4557647705078 237.73158264160156,186.8687286376953 C247.70504760742188,186.6678466796875 256.2884521484375,194.572021484375 257.2660217285156,206.210205078125 C258.8720703125,215.70555114746094 263.12640380859375,254.40151977539062 263.5570068359375,302.9110107421875z"></path></g><g opacity="1" transform="matrix(1,0,0,1,0,0)"><path fill="rgb(255,200,0)" fill-opacity="1" d=" M208.32899475097656,319.23699951171875 C207.40899658203125,373.37799072265625 127.0199966430664,373.3940124511719 126.10199737548828,319.2349853515625 C124.85600280761719,298.364990234375 151.49200439453125,273.9580078125 162.36900329589844,258.5119934082031 C165.8419952392578,255.83700561523438 170.8260040283203,256.4809875488281 173.5019989013672,259.9530029296875 C173.5019989013672,259.9530029296875 199.13299560546875,293.2030029296875 199.13299560546875,293.2030029296875 C204.83599853515625,300.40399169921875 208.35000610351562,309.3380126953125 208.32899475097656,319.23699951171875z"></path></g></g></g><g clip-path="url(#__lottie_element_2891)" style="display: none;" transform="matrix(1,0,0,1,0,0)" opacity="1"><g transform="matrix(0.9999237656593323,0,0,1.0001524686813354,540.0126953125,539.9391479492188)" opacity="1" style="display: block;"><g opacity="1" transform="matrix(1,0,0,1,0,0)"><path fill="rgb(255,150,0)" fill-opacity="1" d=" M263.5570068359375,302.9110107421875 C264.1524963378906,356.786376953125 223.8059844970703,399.23126220703125 167.48709106445312,399.23126220703125 C101.97106170654297,399.23126220703125 35.28627014160156,330.11468505859375 91.33799743652344,243.0659942626953 C92.11699676513672,241.531005859375 151.58999633789062,164.6020050048828 152.50799560546875,163.14300537109375 C159.6739959716797,153.55299377441406 174.75999450683594,153.4980010986328 181.9250030517578,163.14599609375 C181.9250030517578,163.14599609375 212.35015869140625,203.0960693359375 212.35015869140625,203.0960693359375 C217.38841247558594,197.43844604492188 229.19497680664062,186.45762634277344 237.7339630126953,186.87075805664062 C247.70750427246094,186.66993713378906 256.2908020019531,194.57424926757812 257.26806640625,206.21197509765625 C258.87359619140625,215.7048797607422 263.12652587890625,254.4000244140625 263.5570068359375,302.9110107421875z"></path></g><g opacity="1" transform="matrix(1,0,0,1,0,0)"><path fill="rgb(255,200,0)" fill-opacity="1" d=" M208.32899475097656,319.23699951171875 C207.40899658203125,373.37799072265625 127.0199966430664,373.3940124511719 126.10199737548828,319.2349853515625 C124.85600280761719,298.364990234375 151.49200439453125,273.9580078125 162.36900329589844,258.5119934082031 C165.8419952392578,255.83700561523438 170.8260040283203,256.4809875488281 173.5019989013672,259.9530029296875 C173.5019989013672,259.9530029296875 199.13299560546875,293.2030029296875 199.13299560546875,293.2030029296875 C204.83599853515625,300.40399169921875 208.35000610351562,309.3380126953125 208.32899475097656,319.23699951171875z"></path></g></g></g><g clip-path="url(#__lottie_element_2884)" style="display: none;" transform="matrix(1,0,0,1,0,0)" opacity="1"><g transform="matrix(0.9999225735664368,0,0,1.0001548528671265,540.0128784179688,539.9381713867188)" opacity="1" style="display: block;"><g opacity="1" transform="matrix(1,0,0,1,0,0)"><path fill="rgb(255,150,0)" fill-opacity="1" d=" M263.5570068359375,302.9110107421875 C264.1524353027344,356.78631591796875 223.80612182617188,399.23126220703125 167.4871826171875,399.23126220703125 C101.97114562988281,399.23126220703125 35.28624725341797,330.1147155761719 91.33799743652344,243.0659942626953 C92.11699676513672,241.531005859375 151.58999633789062,164.6020050048828 152.50799560546875,163.14300537109375 C159.6739959716797,153.55299377441406 174.75999450683594,153.4980010986328 181.9250030517578,163.14599609375 C181.9250030517578,163.14599609375 212.35049438476562,203.0964813232422 212.35049438476562,203.0964813232422 C217.3888702392578,197.43905639648438 229.19561767578125,186.45809936523438 237.73455810546875,186.8712615966797 C247.7081298828125,186.67047119140625 256.2914123535156,194.57479858398438 257.2685852050781,206.21241760253906 C258.8739929199219,215.7047119140625 263.1265869140625,254.39964294433594 263.5570068359375,302.9110107421875z"></path></g><g opacity="1" transform="matrix(1,0,0,1,0,0)"><path fill="rgb(255,200,0)" fill-opacity="1" d=" M208.32899475097656,319.23699951171875 C207.40899658203125,373.37799072265625 127.0199966430664,373.3940124511719 126.10199737548828,319.2349853515625 C124.85600280761719,298.364990234375 151.49200439453125,273.9580078125 162.36900329589844,258.5119934082031 C165.8419952392578,255.83700561523438 170.8260040283203,256.4809875488281 173.5019989013672,259.9530029296875 C173.5019989013672,259.9530029296875 199.13299560546875,293.2030029296875 199.13299560546875,293.2030029296875 C204.83599853515625,300.40399169921875 208.35000610351562,309.3380126953125 208.32899475097656,319.23699951171875z"></path></g></g></g><g clip-path="url(#__lottie_element_2877)" style="display: none;" transform="matrix(1,0,0,1,0,0)" opacity="1"><g transform="matrix(0.999924898147583,0,0,1.000150203704834,540.0125122070312,539.9400634765625)" opacity="1" style="display: block;"><g opacity="1" transform="matrix(1,0,0,1,0,0)"><path fill="rgb(255,150,0)" fill-opacity="1" d=" M263.5570068359375,302.9110107421875 C264.15252685546875,356.78643798828125 223.80584716796875,399.23126220703125 167.4870147705078,399.23126220703125 C101.97097778320312,399.23126220703125 35.28629684448242,330.1146545410156 91.33799743652344,243.0659942626953 C92.11699676513672,241.531005859375 151.58999633789062,164.6020050048828 152.50799560546875,163.14300537109375 C159.6739959716797,153.55299377441406 174.75999450683594,153.4980010986328 181.9250030517578,163.14599609375 C181.9250030517578,163.14599609375 212.34982299804688,203.09564208984375 212.34982299804688,203.09564208984375 C217.387939453125,197.43785095214844 229.1943359375,186.4571533203125 237.73336791992188,186.8702392578125 C247.70687866210938,186.66940307617188 256.29022216796875,194.5736846923828 257.2675476074219,206.21153259277344 C258.8731994628906,215.70504760742188 263.1264953613281,254.40040588378906 263.5570068359375,302.9110107421875z"></path></g><g opacity="1" transform="matrix(1,0,0,1,0,0)"><path fill="rgb(255,200,0)" fill-opacity="1" d=" M208.32899475097656,319.23699951171875 C207.40899658203125,373.37799072265625 127.0199966430664,373.3940124511719 126.10199737548828,319.2349853515625 C124.85600280761719,298.364990234375 151.49200439453125,273.9580078125 162.36900329589844,258.5119934082031 C165.8419952392578,255.83700561523438 170.8260040283203,256.4809875488281 173.5019989013672,259.9530029296875 C173.5019989013672,259.9530029296875 199.13299560546875,293.2030029296875 199.13299560546875,293.2030029296875 C204.83599853515625,300.40399169921875 208.35000610351562,309.3380126953125 208.32899475097656,319.23699951171875z"></path></g></g></g><g clip-path="url(#__lottie_element_2870)" style="display: none;" transform="matrix(1,0,0,1,0,0)" opacity="1"><g transform="matrix(0.9961538910865784,0,0,1.0076922178268433,540.64111328125,536.92919921875)" opacity="1" style="display: block;"><g opacity="1" transform="matrix(1,0,0,1,0,0)"><path fill="rgb(255,150,0)" fill-opacity="1" d=" M263.5570068359375,302.9110107421875 C264.0697326660156,356.67706298828125 224.0414276123047,399.2376403808594 167.6309356689453,399.2376403808594 C102.11407470703125,399.2376403808594 35.24551010131836,330.177978515625 91.33799743652344,243.0659942626953 C92.11699676513672,241.531005859375 151.58999633789062,164.6020050048828 152.50799560546875,163.14300537109375 C159.6739959716797,153.55299377441406 174.75999450683594,153.4980010986328 181.9250030517578,163.14599609375 C181.9250030517578,163.14599609375 212.92013549804688,203.80532836914062 212.92013549804688,203.80532836914062 C218.17642211914062,198.46343994140625 230.2793731689453,187.25074768066406 238.74734497070312,187.7376708984375 C248.75721740722656,187.56475830078125 257.3007507324219,195.5235137939453 258.14215087890625,206.96627807617188 C259.5245361328125,215.4189910888672 263.1863708496094,253.76373291015625 263.5570068359375,302.9110107421875z"></path></g><g opacity="1" transform="matrix(1,0,0,1,0,0)"><path fill="rgb(255,200,0)" fill-opacity="1" d=" M208.32899475097656,319.23699951171875 C207.40899658203125,373.37799072265625 127.0199966430664,373.3940124511719 126.10199737548828,319.2349853515625 C124.85600280761719,298.364990234375 151.49200439453125,273.9580078125 162.36900329589844,258.5119934082031 C165.8419952392578,255.83700561523438 170.8260040283203,256.4809875488281 173.5019989013672,259.9530029296875 C173.5019989013672,259.9530029296875 199.13299560546875,293.2030029296875 199.13299560546875,293.2030029296875 C204.83599853515625,300.40399169921875 208.35000610351562,309.3380126953125 208.32899475097656,319.23699951171875z"></path></g></g></g><g clip-path="url(#__lottie_element_2863)" style="display: none;" transform="matrix(1,0,0,1,0,0)" opacity="1"><g transform="matrix(0.9994664192199707,0,0,1.0010671615600586,540.0889282226562,539.573974609375)" opacity="1" style="display: block;"><g opacity="1" transform="matrix(1,0,0,1,0,0)"><path fill="rgb(255,150,0)" fill-opacity="1" d=" M263.5570068359375,302.9110107421875 C264.1374816894531,356.76654052734375 223.84872436523438,399.232421875 167.51319885253906,399.232421875 C101.99701690673828,399.232421875 35.278873443603516,330.12615966796875 91.33799743652344,243.0659942626953 C92.11699676513672,241.531005859375 151.58999633789062,164.6020050048828 152.50799560546875,163.14300537109375 C159.6739959716797,153.55299377441406 174.75999450683594,153.4980010986328 181.9250030517578,163.14599609375 C181.9250030517578,163.14599609375 212.45361328125,203.2248077392578 212.45361328125,203.2248077392578 C217.53143310546875,197.62449645996094 229.3917999267578,186.60157775878906 237.9178924560547,187.02810668945312 C247.8980255126953,186.8323516845703 256.47412109375,194.7465362548828 257.42669677734375,206.34889221191406 C258.9917297363281,215.65298461914062 263.13739013671875,254.28453063964844 263.5570068359375,302.9110107421875z"></path></g><g opacity="1" transform="matrix(1,0,0,1,0,0)"><path fill="rgb(255,200,0)" fill-opacity="1" d=" M208.32899475097656,319.23699951171875 C207.40899658203125,373.37799072265625 127.0199966430664,373.3940124511719 126.10199737548828,319.2349853515625 C124.85600280761719,298.364990234375 151.49200439453125,273.9580078125 162.36900329589844,258.5119934082031 C165.8419952392578,255.83700561523438 170.8260040283203,256.4809875488281 173.5019989013672,259.9530029296875 C173.5019989013672,259.9530029296875 199.13299560546875,293.2030029296875 199.13299560546875,293.2030029296875 C204.83599853515625,300.40399169921875 208.35000610351562,309.3380126953125 208.32899475097656,319.23699951171875z"></path></g></g></g><g clip-path="url(#__lottie_element_2856)" style="display: none;" transform="matrix(1,0,0,1,0,0)" opacity="1"><g transform="matrix(0.9999176859855652,0,0,1.0001646280288696,540.013671875,539.9342651367188)" opacity="1" style="display: block;"><g opacity="1" transform="matrix(1,0,0,1,0,0)"><path fill="rgb(255,150,0)" fill-opacity="1" d=" M263.5570068359375,302.9110107421875 C264.1522521972656,356.7860412597656 223.8066864013672,399.2312927246094 167.48753356933594,399.2312927246094 C101.97148895263672,399.2312927246094 35.28614807128906,330.1148681640625 91.33799743652344,243.0659942626953 C92.11699676513672,241.531005859375 151.58999633789062,164.6020050048828 152.50799560546875,163.14300537109375 C159.6739959716797,153.55299377441406 174.75999450683594,153.4980010986328 181.9250030517578,163.14599609375 C181.9250030517578,163.14599609375 212.35186767578125,203.0981903076172 212.35186767578125,203.0981903076172 C217.39076232910156,197.4415283203125 229.19822692871094,186.4600067138672 237.73699951171875,186.87335205078125 C247.7106475830078,186.67262268066406 256.2938537597656,194.57708740234375 257.2706604003906,206.2142333984375 C258.87554931640625,215.7040252685547 263.126708984375,254.3981170654297 263.5570068359375,302.9110107421875z"></path></g><g opacity="1" transform="matrix(1,0,0,1,0,0)"><path fill="rgb(255,200,0)" fill-opacity="1" d=" M208.32899475097656,319.23699951171875 C207.40899658203125,373.37799072265625 127.0199966430664,373.3940124511719 126.10199737548828,319.2349853515625 C124.85600280761719,298.364990234375 151.49200439453125,273.9580078125 162.36900329589844,258.5119934082031 C165.8419952392578,255.83700561523438 170.8260040283203,256.4809875488281 173.5019989013672,259.9530029296875 C173.5019989013672,259.9530029296875 199.13299560546875,293.2030029296875 199.13299560546875,293.2030029296875 C204.83599853515625,300.40399169921875 208.35000610351562,309.3380126953125 208.32899475097656,319.23699951171875z"></path></g></g></g><g clip-path="url(#__lottie_element_2849)" style="display: none;" transform="matrix(1,0,0,1,0,0)" opacity="1"><g transform="matrix(0.9994694590568542,0,0,1.0010610818862915,540.0884399414062,539.576416015625)" opacity="1" style="display: block;"><g opacity="1" transform="matrix(1,0,0,1,0,0)"><path fill="rgb(255,150,0)" fill-opacity="1" d=" M263.5570068359375,302.9110107421875 C264.1375427246094,356.7666320800781 223.8484649658203,399.232421875 167.5130615234375,399.232421875 C101.99687194824219,399.232421875 35.27891540527344,330.1260986328125 91.33799743652344,243.0659942626953 C92.11699676513672,241.531005859375 151.58999633789062,164.6020050048828 152.50799560546875,163.14300537109375 C159.6739959716797,153.55299377441406 174.75999450683594,153.4980010986328 181.9250030517578,163.14599609375 C181.9250030517578,163.14599609375 212.45301818847656,203.22406005859375 212.45301818847656,203.22406005859375 C217.53060913085938,197.62342834472656 229.39065551757812,186.6007537841797 237.91683959960938,187.02719116210938 C247.8969268798828,186.8314208984375 256.4730529785156,194.74554443359375 257.42578125,206.3480987548828 C258.9910583496094,215.65328979492188 263.1373291015625,254.2852020263672 263.5570068359375,302.9110107421875z"></path></g><g opacity="1" transform="matrix(1,0,0,1,0,0)"><path fill="rgb(255,200,0)" fill-opacity="1" d=" M208.32899475097656,319.23699951171875 C207.40899658203125,373.37799072265625 127.0199966430664,373.3940124511719 126.10199737548828,319.2349853515625 C124.85600280761719,298.364990234375 151.49200439453125,273.9580078125 162.36900329589844,258.5119934082031 C165.8419952392578,255.83700561523438 170.8260040283203,256.4809875488281 173.5019989013672,259.9530029296875 C173.5019989013672,259.9530029296875 199.13299560546875,293.2030029296875 199.13299560546875,293.2030029296875 C204.83599853515625,300.40399169921875 208.35000610351562,309.3380126953125 208.32899475097656,319.23699951171875z"></path></g></g></g></g><g transform="matrix(0.9995647072792053,-0.029502512887120247,0.029502512887120247,0.9995647072792053,534.3821411132812,529.3524169921875)" opacity="1" style="display: block;"><path stroke-linecap="round" stroke-linejoin="miter" fill-opacity="0" stroke-miterlimit="10" stroke="rgb(164,102,72)" stroke-opacity="1" stroke-width="60" d=" M-105.1539077758789,-3.0333595275878906 C-105.1539077758789,-3.0333595275878906 -25.565811157226562,75.60581970214844 35.85026550292969,57.9254035949707"></path></g><g transform="matrix(1,0,0,1,540,540)" opacity="0.5" style="display: none;"><g opacity="1" transform="matrix(1,0,0,1,0,0)"><path stroke-linecap="round" stroke-linejoin="round" fill-opacity="0" stroke="rgb(146,146,146)" stroke-opacity="1" stroke-width="0" d=" M302.5,-131 C302.5,-131 305.5,-131 305.5,-131 M360.5,-131 C360.5,-131 383,-131 383,-131"></path></g><g opacity="1" transform="matrix(1,0,0,1,0,0)"><path stroke-linecap="round" stroke-linejoin="round" fill-opacity="0" stroke="rgb(146,146,146)" stroke-opacity="1" stroke-width="7" d=" M220.5,-96 C220.5,-96 256.5,-96 256.5,-96 M304.5,-96 C304.5,-96 335.5,-96 335.5,-96"></path></g></g><g transform="matrix(0.9995647072792053,-0.029502512887120247,0.029502512887120247,0.9995647072792053,543.946533203125,537.3541259765625)" opacity="1" style="display: block;"><path fill="rgb(255,150,0)" fill-opacity="1" d=" M187.04481506347656,-153.1354522705078 C179.73353576660156,-163.58448791503906 171.900390625,-159.60415649414062 167.20018005371094,-152.6376190185547 C162.4999542236328,-145.67108154296875 135.88812255859375,-112.37248229980469 114.97762298583984,-75.01463317871094 C98.26647186279297,-45.15961456298828 101.92237854003906,24.005237579345703 171.37750244140625,24.50261878967285 C237.17527770996094,24.974000930786133 250.2329864501953,-42.67134094238281 232.99993896484375,-75.51201629638672 C225.37515258789062,-90.04328918457031 195.88827514648438,-140.4962615966797 187.04481506347656,-153.1354522705078z"></path></g><g transform="matrix(0.9757732152938843,-0.21878443658351898,0.21878443658351898,0.9757732152938843,540.9918212890625,535.399658203125)" opacity="1" style="display: block;"><g opacity="1" transform="matrix(1,0,0,1,0,0)"><path fill="rgb(164,102,72)" fill-opacity="1" d=" M58.02199935913086,39.36199951171875 C63.74100112915039,60.05099868774414 51.60599899291992,81.45899963378906 30.91699981689453,87.1780014038086 C10.227999687194824,92.89700317382812 -11.178999900817871,80.76200103759766 -16.898000717163086,60.073001861572266 C-22.617000579833984,39.38399887084961 -10.482999801635742,17.97599983215332 10.206000328063965,12.256999969482422 C30.895000457763672,6.538000106811523 52.303001403808594,18.67300033569336 58.02199935913086,39.36199951171875z"></path></g><g opacity="1" transform="matrix(1,0,0,1,0,0)"><path stroke-linecap="round" stroke-linejoin="miter" fill-opacity="0" stroke-miterlimit="10" stroke="rgb(218,117,0)" stroke-opacity="1" stroke-width="15" d=" M-21.48699951171875,63.132999420166016 C-21.48699951171875,63.132999420166016 81.16100311279297,16.805999755859375 81.16100311279297,16.805999755859375 C87.34600067138672,14.121999740600586 96.28800201416016,15.479999542236328 100.74199676513672,16.184999465942383 C105.552001953125,16.945999145507812 113.53700256347656,18.051000595092773 119.08899688720703,19.694000244140625 C123.36599731445312,20.959999084472656 129.6959991455078,19.20199966430664 136.16000366210938,17.073999404907227 C136.16000366210938,17.073999404907227 144.22799682617188,14.375 144.22799682617188,14.375"></path></g><g opacity="1" transform="matrix(1,0,0,1,0,0)"><path stroke-linecap="round" stroke-linejoin="miter" fill-opacity="0" stroke-miterlimit="10" stroke="rgb(218,117,0)" stroke-opacity="1" stroke-width="15" d=" M43.404998779296875,35.941001892089844 C43.404998779296875,35.941001892089844 80.76499938964844,41.26499938964844 80.76499938964844,41.26499938964844"></path></g><g opacity="1" transform="matrix(1,0,0,1,0,0)"><path fill="rgb(164,102,72)" fill-opacity="1" d=" M27.347000122070312,29.632999420166016 C31.1200008392334,38.29800033569336 35.801998138427734,50.55799865722656 24.666000366210938,55.21699905395508 C13.119999885559082,60.04800033569336 6.869999885559082,48.54800033569336 3.1600000858306885,37.64799880981445"></path><path stroke-linecap="round" stroke-linejoin="round" fill-opacity="0" stroke="rgb(136,71,39)" stroke-opacity="1" stroke-width="6" d=" M27.347000122070312,29.632999420166016 C31.1200008392334,38.29800033569336 35.801998138427734,50.55799865722656 24.666000366210938,55.21699905395508 C13.119999885559082,60.04800033569336 6.869999885559082,48.54800033569336 3.1600000858306885,37.64799880981445"></path></g></g><g mask="url(#__lottie_element_2832_1)" style="display: block;"><g transform="matrix(0.9757732152938843,-0.21878443658351898,0.21878443658351898,0.9757732152938843,540.9918212890625,535.399658203125)" opacity="1"><g opacity="1" transform="matrix(1,0,0,1,179.5,-4)"><path fill="rgb(236,227,227)" fill-opacity="1" d=" M81.5,-74 C81.5,-74 81.5,74 81.5,74 C81.5,74 -81.5,74 -81.5,74 C-81.5,74 -81.5,-74 -81.5,-74 C-81.5,-74 81.5,-74 81.5,-74z"></path></g><path fill="rgb(61,61,61)" fill-opacity="1" d=" M197.26600646972656,0.3529999852180481 C197.26600646972656,-22.386999130249023 176.39100646972656,-40.821998596191406 150.64100646972656,-40.821998596191406 C124.89099884033203,-40.821998596191406 104.01599884033203,-22.386999130249023 104.01599884033203,0.3529999852180481 C104.01599884033203,23.093000411987305 124.89099884033203,41.527000427246094 150.64100646972656,41.527000427246094 C176.39100646972656,41.527000427246094 197.26600646972656,23.093000411987305 197.26600646972656,0.3529999852180481z M222.15199279785156,-0.23999999463558197 C222.15199279785156,-19.18600082397461 205.468994140625,-38.75699996948242 184.01600646972656,-38.75699996948242 C162.56300354003906,-38.75699996948242 144.46200561523438,-19.18600082397461 144.46200561523438,-0.23999999463558197 C144.46200561523438,18.70599937438965 161.85400390625,34.06399917602539 183.3070068359375,34.06399917602539 C204.75999450683594,34.06399917602539 222.15199279785156,18.70599937438965 222.15199279785156,-0.23999999463558197z"></path></g></g><g transform="matrix(0.9757732152938843,-0.21878443658351898,0.21878443658351898,0.9757732152938843,540.9918212890625,535.399658203125)" opacity="1" style="display: block;"><path fill="rgb(218,117,0)" fill-opacity="1" d=" M200.56199645996094,-9.836999893188477 C200.56199645996094,-9.836999893188477 197.3679962158203,-16.7810001373291 197.3679962158203,-16.7810001373291 C196.5189971923828,-18.62700080871582 197.32699584960938,-20.81100082397461 199.17300415039062,-21.65999984741211 C199.17300415039062,-21.65999984741211 207.6739959716797,-25.569000244140625 207.6739959716797,-25.569000244140625 C207.6739959716797,-25.569000244140625 214.4219970703125,-29.082000732421875 217.6060028076172,-21.927000045776367 C220.7899932861328,-14.772000312805176 213.9409942626953,-11.940999984741211 213.9409942626953,-11.940999984741211 C213.9409942626953,-11.940999984741211 205.44000244140625,-8.031999588012695 205.44000244140625,-8.031999588012695 C203.593994140625,-7.183000087738037 201.41099548339844,-7.991000175476074 200.56199645996094,-9.836999893188477z"></path></g><g transform="matrix(1,0,0,1,540,540)" opacity="1" style="display: block;"><path stroke-linecap="round" stroke-linejoin="round" fill-opacity="0" stroke="rgb(28,176,246)" stroke-opacity="1" stroke-width="99" d=" M-113.5,82.5 C-113.5,82.5 -22,151 -22,151 M-172.5,116.5 C-172.5,116.5 -81,190 -81,190"></path></g><g transform="matrix(1,0,0,1,540.1079711914062,548.22998046875)" opacity="1" style="display: block;"><g opacity="1" transform="matrix(1,0,0,1,0,0)"><path stroke-linecap="round" stroke-linejoin="round" fill-opacity="0" stroke="rgb(255,75,75)" stroke-opacity="1" stroke-width="45" d=" M-23,230.5 C-23,230.5 1,268.5 1,268.5"></path></g><g opacity="1" transform="matrix(1,0,0,1,0,0)"><path fill="rgb(76,197,255)" fill-opacity="1" d=" M-24.44300079345703,143.9600067138672 C-24.44300079345703,143.9600067138672 -17.094999313354492,143.9600067138672 -17.094999313354492,143.9600067138672 C11.187999725341797,143.9600067138672 34.1150016784668,166.88800048828125 34.1150016784668,195.1699981689453 C34.1150016784668,195.1699981689453 33.91400146484375,195.0570068359375 33.91400146484375,195.0570068359375 C33.94599914550781,217.4969940185547 9.392999649047852,243.40499877929688 -18.888999938964844,243.40499877929688 C-18.888999938964844,243.40499877929688 -26.23699951171875,243.40499877929688 -26.23699951171875,243.40499877929688 C-54.51900100708008,243.40499877929688 -75.63700103759766,216.58999633789062 -75.85399627685547,195.0570068359375 C-75.85399627685547,195.0570068359375 -75.65299987792969,195.1699981689453 -75.65299987792969,195.1699981689453 C-75.65299987792969,166.88800048828125 -52.724998474121094,143.9600067138672 -24.44300079345703,143.9600067138672z"></path></g><g opacity="1" transform="matrix(1,0,0,1,0,0)"><path fill="rgb(28,176,246)" fill-opacity="1" d=" M-22.107999801635742,101.2699966430664 C-61.608001708984375,101.2699966430664 -71.10800170898438,133.27000427246094 -71.10800170898438,146.27000427246094 C-71.10800170898438,159.27000427246094 -71.10800170898438,172.77000427246094 -71.10800170898438,178.27000427246094 C-71.10800170898438,183.77000427246094 -62.608001708984375,223.27000427246094 -21.607999801635742,223.27000427246094 C14.392000198364258,223.27000427246094 27.392000198364258,191.77000427246094 27.392000198364258,168.27000427246094 C27.392000198364258,148.27000427246094 27.392000198364258,156.27000427246094 27.392000198364258,148.27000427246094 C27.392000198364258,137.77000427246094 17.392000198364258,101.2699966430664 -22.107999801635742,101.2699966430664z"></path></g></g><g transform="matrix(1,0,0,1,540,540)" opacity="1" style="display: block;"><path stroke-linecap="round" stroke-linejoin="miter" fill-opacity="0" stroke-miterlimit="4" stroke="rgb(13,157,225)" stroke-opacity="1" stroke-width="6.312" d=" M-72.77999877929688,118.33599853515625 C-72.77999877929688,118.33599853515625 -52.244998931884766,132.5800018310547 -52.244998931884766,132.5800018310547 C-40.652000427246094,140.23699951171875 -24.5,152.5 -24.969999313354492,182.5 C-25.111000061035156,191.46499633789062 -26.25,212.25 -27.211000442504883,226.61599731445312"></path></g><g transform="matrix(1,0,0,1,540,546.5)" opacity="1" style="display: block;"><g opacity="1" transform="matrix(1,0,0,1,0,0)"><path stroke-linecap="round" stroke-linejoin="round" fill-opacity="0" stroke="rgb(255,75,75)" stroke-opacity="1" stroke-width="45" d=" M-76.5,266.5 C-76.5,266.5 -59,297.5 -59,297.5"></path></g><g opacity="1" transform="matrix(1,0,0,1,0,0)"><path fill="rgb(76,197,255)" fill-opacity="1" d=" M-129.20799255371094,200.17599487304688 C-115.63500213623047,175.25399780273438 -20,185.5 -29.982999801635742,235.427001953125 C-37.97700119018555,275.4079895019531 -80.68199920654297,285.0880126953125 -106.34100341796875,271.29400634765625 C-132,257.5 -143,225.5 -129.20799255371094,200.17599487304688z"></path></g><g opacity="1" transform="matrix(1,0,0,1,0,0)"><path fill="rgb(28,176,246)" fill-opacity="1" d=" M-81.5,150.5 C-123.5,150.5 -132,167.0330047607422 -132,188 C-132,212 -129,261.5 -79,261.5 C-29,261.5 -28.5,212.5 -28.5,191.5 C-28.5,179.5 -39.5,150.5 -81.5,150.5z"></path></g></g><g transform="matrix(0.9995647072792053,-0.029502512887120247,0.029502512887120247,0.9995647072792053,534.3821411132812,529.3524169921875)" opacity="1" style="display: block;"><g opacity="1" transform="matrix(1,0,0,1,0,0)"><path fill="rgb(255,75,75)" fill-opacity="1" d=" M-66.13999938964844,51.47800064086914 C-68.38175201416016,78.32212829589844 -100.34416961669922,100.82342529296875 -137.83416748046875,100.82342529296875 C-175.3141632080078,100.82342529296875 -201.8800048828125,78.4540023803711 -201.8800048828125,51.47800064086914 C-201.8800048828125,24.50200080871582 -171.49000549316406,-14.529000282287598 -134.00999450683594,-14.529000282287598 C-96.5199966430664,-14.529000282287598 -63.89570999145508,24.612735748291016 -66.13999938964844,51.47800064086914z"></path></g><g opacity="1" transform="matrix(1,0,0,1,0,0)"><path stroke-linecap="butt" stroke-linejoin="miter" fill-opacity="0" stroke-miterlimit="4" stroke="rgb(28,176,246)" stroke-opacity="1" stroke-width="15" d=" M-132.8920135498047,73.91990661621094 C-132.8920135498047,73.91990661621094 -142.0513458251953,117.1172866821289 -142.0513458251953,117.1172866821289"></path></g><g opacity="1" transform="matrix(1,0,0,1,0,0)"><path stroke-linecap="butt" stroke-linejoin="miter" fill-opacity="0" stroke-miterlimit="4" stroke="rgb(28,176,246)" stroke-opacity="1" stroke-width="10" d=" M-80.98014068603516,55.51056671142578 C-80.98014068603516,55.51056671142578 -93.53865814208984,104.5226058959961 -93.53865814208984,104.5226058959961"></path></g><g opacity="1" transform="matrix(1,0,0,1,0,0)"><path fill="rgb(253,176,42)" fill-opacity="1" d=" M-54.17496109008789,24.042966842651367 C-58.409950256347656,53.66124725341797 -92.36000061035156,83.66200256347656 -134.00999450683594,83.66200256347656 C-175.66000366210938,83.66200256347656 -208.8408203125,55.29438018798828 -211.83236694335938,25.49689483642578 C-216.0758056640625,-14.83565616607666 -175.66000366210938,-43.95800018310547 -134.00999450683594,-43.95800018310547 C-92.36000061035156,-43.95800018310547 -46.44039535522461,-26.221101760864258 -54.17496109008789,24.042966842651367z"></path></g></g><g transform="matrix(1,0,0,1,540,540)" opacity="1" style="display: block;"><g opacity="1" transform="matrix(1,0,0,1,0,0)"><path stroke-linecap="round" stroke-linejoin="round" fill-opacity="0" stroke="rgb(164,102,72)" stroke-opacity="1" stroke-width="62" d=" M-213.5,157 C-213.5,157 -190.91714477539062,44.309383392333984 -190.91714477539062,44.309383392333984"></path></g><path stroke-linecap="round" stroke-linejoin="round" fill-opacity="0" stroke="rgb(164,102,72)" stroke-opacity="1" stroke-width="49" d=" M-214.75,164 C-214.75,164 -233,166 -233,166"></path></g><g transform="matrix(1,0,0,1,525.47314453125,533.0291137695312)" opacity="1" style="display: block;"><path fill="rgb(164,102,72)" fill-opacity="1" d=" M-2.7699999809265137,-237.93800354003906 C-2.7699999809265137,-237.93800354003906 12.760000228881836,-145.69500732421875 12.760000228881836,-145.69500732421875 C12.760000228881836,-145.69500732421875 12.760000228881836,-78.53099822998047 12.760000228881836,-78.53099822998047 C12.760000228881836,-53.80099868774414 -0.949999988079071,-31.111000061035156 -22.850000381469727,-19.615999221801758 C-22.850000381469727,-19.615999221801758 -107.08000183105469,24.604000091552734 -107.08000183105469,24.604000091552734 C-127.0999984741211,35.1150016784668 -151.08999633789062,34.73899841308594 -170.77000427246094,23.60700035095215 C-170.77000427246094,23.60700035095215 -246.45599365234375,-19.20400047302246 -246.45599365234375,-19.20400047302246 C-267.33099365234375,-31.01099967956543 -280.23699951171875,-53.138999938964844 -280.23699951171875,-77.12100219726562 C-280.23699951171875,-77.12100219726562 -273.73699951171875,-114.47000122070312 -273.73699951171875,-114.47000122070312 C-273.73699951171875,-114.47000122070312 -2.7699999809265137,-237.93800354003906 -2.7699999809265137,-237.93800354003906z"></path></g><g mask="url(#__lottie_element_2802_1)" style="display: block;"><g transform="matrix(1,0,0,1,521.6948852539062,528.6694946289062)" opacity="1"><g opacity="1" transform="matrix(1,0,0,1,-67.5,-104.5)"><path fill="rgb(255,255,255)" fill-opacity="1" d=" M88.5,-69 C88.5,-69 88.5,69 88.5,69 C88.5,69 -88.5,69 -88.5,69 C-88.5,69 -88.5,-69 -88.5,-69 C-88.5,-69 88.5,-69 88.5,-69z"></path></g><path fill="rgb(61,61,61)" fill-opacity="1" d=" M-17.577470779418945,-108.5351791381836 C-20.579357147216797,-107.59161376953125 -22.72332000732422,-103.64701080322266 -22.72332000732422,-101.15949249267578 C-22.72332000732422,-100.55579376220703 -22.72332000732422,-100.55494689941406 -22.72332000732422,-99.85014343261719 C-22.72332000732422,-96.07620239257812 -20.15047264099121,-94.87580108642578 -17.406116485595703,-95.73318481445312 C-14.661760330200195,-96.59056854248047 -12.088067054748535,-100.19384765625 -12.088067054748535,-103.10971069335938 C-12.088067054748535,-103.51036071777344 -12.088067054748535,-103.90385437011719 -12.088067054748535,-104.24671173095703 C-12.088067054748535,-106.8195571899414 -14.575584411621094,-109.4787368774414 -17.577470779418945,-108.5351791381836z M-74.5686264038086,-87.2110366821289 C-77.16960906982422,-86.15403747558594 -79.444580078125,-82.74173736572266 -79.444580078125,-80.22208404541016 C-79.444580078125,-79.67815399169922 -79.444580078125,-78.12785339355469 -79.444580078125,-77.93364715576172 C-79.444580078125,-74.35784149169922 -77.0071029663086,-73.21966552734375 -74.40612030029297,-74.03266906738281 C-71.80513000488281,-74.84567260742188 -69.36680603027344,-78.25797271728516 -69.36680603027344,-81.02162170410156 C-69.36680603027344,-83.78527069091797 -69.36680603027344,-82.74089050292969 -69.36680603027344,-83.14739227294922 C-69.36680603027344,-86.07354736328125 -71.96763610839844,-88.26802825927734 -74.5686264038086,-87.2110366821289z"></path></g></g><g transform="matrix(1,0,0,1,519.6948852539062,527.6640014648438)" opacity="1" style="display: block;"><path fill="rgb(165,102,68)" fill-opacity="1" d=" M-22.5,-77 C-46,-69 -53.034454345703125,-45.6873664855957 -53.034454345703125,-45.6873664855957 C-53.034454345703125,-45.6873664855957 -61.70720291137695,-62.58652114868164 -96.55689239501953,-62.72182083129883 C-133.4312744140625,-63.07892990112305 -125.75,-31.75 -125.75,-31.75 C-125.75,-31.75 -39.5,-30.5 -39.5,-30.5 C-39.5,-30.5 -1.5,-71 -1.5,-71 C-1.5,-71 1,-85 -22.5,-77z M-138.22999572753906,-99.69200134277344 C-138.22999572753906,-99.69200134277344 -128,-156 -61.80799865722656,-137.2010040283203 C-22,-187 6.119999885559082,-150.60800170898438 6.119999885559082,-150.60800170898438 C6.119999885559082,-150.60800170898438 17,-230.5 -63.27000045776367,-143.31100463867188 C-167,-154 -138.22999572753906,-99.69200134277344 -138.22999572753906,-99.69200134277344z"></path></g><g transform="matrix(1,0,0,1,531.2671508789062,540.8634643554688)" opacity="1" style="display: none;"><g opacity="1" transform="matrix(1,0,0,1,0,0)"><path stroke-linecap="round" stroke-linejoin="round" fill-opacity="0" stroke="rgb(136,71,39)" stroke-opacity="1" stroke-width="7" d=" M-95,-78 C-95,-78 -63,-87.25 -47.75,-77 C-77.5,-70 -88,-58 -88,-58 M9,-113.5 C9,-113.5 -19.5,-110 -25.75,-85 C-5.25,-95.5 8.75,-95 8.75,-95"></path></g></g><g transform="matrix(1,0,0,1,519.6948852539062,527.6640014648438)" opacity="1" style="display: block;"><path fill="rgb(134,64,31)" fill-opacity="1" d=" M-44.54999923706055,-71.03600311279297 C-49.04999923706055,-75.19100189208984 -54.65999984741211,-78.97699737548828 -54.91999816894531,-78.88999938964844 C-55.209999084472656,-78.79399871826172 -57.869998931884766,-70.96800231933594 -58.77000045776367,-64.47200012207031 C-61.380001068115234,-61.58300018310547 -62.29199981689453,-57.362998962402344 -60.779998779296875,-53.487998962402344 C-58.650001525878906,-48.02899932861328 -52.4900016784668,-45.33399963378906 -47.040000915527344,-47.46900177001953 C-47.040000915527344,-47.46900177001953 -38.709999084472656,-50.722999572753906 -38.709999084472656,-50.722999572753906 C-33.25,-52.856998443603516 -30.555999755859375,-59.01300048828125 -32.689998626708984,-64.47100067138672 C-34.58000183105469,-69.30500030517578 -39.630001068115234,-71.97200012207031 -44.54999923706055,-71.03600311279297z M-100.36416625976562,-8.449369430541992 C-97.3705825805664,-17.116539001464844 -87.44740295410156,-24.8281307220459 -74.30438995361328,-24.555776596069336 M-96.61100006103516,-149.20599365234375 C-107.29199981689453,-150.63999938964844 -124.08399963378906,-139.80999755859375 -131.96800231933594,-120.41000366210938 M-34.17100143432617,-170.3000030517578 C-19,-177.5 2,-167 3.1700000762939453,-156.08299255371094"></path><g opacity="1" transform="matrix(1,0,0,1,0,0)"><path stroke-linecap="round" stroke-linejoin="round" fill-opacity="0" stroke="rgb(136,71,39)" stroke-opacity="1" stroke-width="8.5" d=" M-100.36416625976562,-8.449369430541992 C-97.3705825805664,-17.116539001464844 -87.44740295410156,-24.8281307220459 -74.30438995361328,-24.555776596069336 M-96.61100006103516,-149.20599365234375 C-107.29199981689453,-150.63999938964844 -124.08399963378906,-139.80999755859375 -131.96800231933594,-120.41000366210938 M-34.17100143432617,-170.3000030517578 C-19,-177.5 2,-167 3.1700000762939453,-156.08299255371094"></path></g></g><g transform="matrix(1,0,0,1,525.47314453125,533.0291137695312)" opacity="1" style="display: block;"><path fill="rgb(61,61,61)" fill-opacity="1" d=" M-280,-122.5 C-280,-122.5 -280,-89 -280,-84 C-280,-79 -280.25,-62 -277,-58 C-269.75,-57.5 -261.75,-59.5 -255.5,-63.5 C-263,-65.5 -267.25,-76.25 -266.25,-88 C-265.10400390625,-101.46099853515625 -251.5,-108 -251.5,-108 C-251.5,-108 -280,-122.5 -280,-122.5z M-133.5,-427 C-146.5,-425 -161.5,-422.5 -191,-418 C-220.5,-413.5 -245.5,-381 -246.5,-366.5 C-283,-364 -301,-339 -307,-326 C-313,-313 -325,-280 -327,-270 C-329,-260 -333.3699951171875,-250.86099243164062 -324,-226.5 C-314,-200.5 -288,-186 -288,-186 C-288,-186 -191.5,-121 -154.5,-139.5 C-117.5,-158 -1.5,-193.5 11.5,-202 C24.5,-210.5 32,-230.5 45,-261 C60,-314 24.85099983215332,-342.197998046875 13.5,-348 C2.25,-353.75 -11.75,-360.5 -20.25,-364 C-26.8700008392334,-366.72601318359375 -41,-374.5 -51,-374.5 C-74.5,-427 -120.5,-429 -133.5,-427z M-38.25,-220.5 C-45.5,-218.25 -63.25,-207.75 -68.5,-196 C-68.5,-196 -83.75,-210.25 -105.75,-208.75 C-107.25,-180 -77,-175 -77,-175 C-77,-175 -139,-152 -151.5,-148.5 C-164,-145 -183,-142 -196,-147.5 C-209,-153 -289,-187 -289,-187 C-289,-187 -280,-113.5 -280,-113.5 C-280,-113.5 -270.1919860839844,-109.58999633789062 -256.7040100097656,-104.24800109863281 C-242.25,-116.5 -219.5,-107 -215.87600708007812,-88.1780014038086 C-202.32899475097656,-82.89099884033203 -190.2429962158203,-78.24099731445312 -184,-76 C-153,-80.75 -63,-170 -63,-170 C-63,-170 13,-144.5 13,-144.5 C13,-144.5 18,-208 18,-208 C18,-208 -29,-190.5 -50.5,-183.5 C-43,-188 -28,-207.75 -38.25,-220.5z"></path><g opacity="1" transform="matrix(1,0,0,1,0,0)"><path fill="rgb(253,176,42)" fill-opacity="1" d=" M-38.25,-220.5 C-45.5,-218.25 -63.25,-207.75 -68.5,-196 C-68.5,-196 -83.75,-210.25 -105.75,-208.75 C-107.25,-180 -77,-175 -77,-175 C-77,-175 -139,-152 -151.5,-148.5 C-164,-145 -183,-142 -196,-147.5 C-209,-153 -289,-187 -289,-187 C-289,-187 -280,-113.5 -280,-113.5 C-280,-113.5 -270.1919860839844,-109.58999633789062 -256.7040100097656,-104.24800109863281 C-242.25,-116.5 -219.5,-107 -215.87600708007812,-88.1780014038086 C-202.32899475097656,-82.89099884033203 -190.2429962158203,-78.24099731445312 -184,-76 C-153,-80.75 -63,-170 -63,-170 C-63,-170 13,-144.5 13,-144.5 C13,-144.5 18,-208 18,-208 C18,-208 -29,-190.5 -50.5,-183.5 C-43,-188 -28,-207.75 -38.25,-220.5z"></path></g></g><g mask="url(#__lottie_element_2778_1)" style="display: block;"><g transform="matrix(1,0,0,1,519.6948852539062,531.0919799804688)" opacity="1"><path fill="rgb(164,20,20)" fill-opacity="1" d=" M-112.2979965209961,-47.64899826049805 C-146.8090057373047,-34.70899963378906 -115.61900329589844,34.19300079345703 -100.2239990234375,25.315000534057617 C-91.75,20.42799949645996 -35.26900100708008,-2.5880000591278076 -28.93400001525879,-3.933000087738037 C-22.731000900268555,-5.25 -3.36899995803833,-64.51599884033203 -6.011000156402588,-67.66799926757812 C-8.664999961853027,-70.83399963378906 -98.36799621582031,-52.87200164794922 -112.2979965209961,-47.64899826049805z M-116.55,-8.77 C-116.55,-8.77 -116.05,-8.77 -116.05,-8.77 M-105.75,15.25 C-105.75,15.25 -105.75,54.5 -105.75,54.5 C-105.75,54.5 -85,45 -85,45 C-85,45 -85,4.75 -85,4.75"></path><g opacity="1" transform="matrix(1,0,0,1,-87.65609741210938,-19.243160247802734)"><path stroke-linecap="round" stroke-linejoin="miter" fill-opacity="0" stroke-miterlimit="4" stroke="rgb(210,33,33)" stroke-opacity="1" stroke-width="34" d=" M-28.895000457763672,10.47599983215332 C-28.895000457763672,10.47599983215332 -28.395000457763672,10.47599983215332 -28.395000457763672,10.47599983215332"></path></g><path stroke-linecap="butt" stroke-linejoin="miter" fill-opacity="0" stroke-miterlimit="4" stroke="rgb(229,229,229)" stroke-opacity="1" stroke-width="5" d=" M-105.75,15.25 C-105.75,15.25 -105.75,54.5 -105.75,54.5 C-105.75,54.5 -85,45 -85,45 C-85,45 -85,4.75 -85,4.75"></path></g></g></g></svg>